<?xml version="1.0" encoding="utf-8"?>
<svg xmlns="http://www.w3.org/2000/svg" xmlns:xlink="http://www.w3.org/1999/xlink" width="480" height="384" viewBox="0 0 1920 1536">
<defs>
  <clipPath id="clip410">
    <rect x="0" y="0" width="1920" height="1536"/>
  </clipPath>
</defs>
<path clip-path="url(#clip410)" d="M0 1536 L1920 1536 L1920 0 L0 0  Z" fill="#ffffff" fill-rule="evenodd" fill-opacity="1"/>
<defs>
  <clipPath id="clip411">
    <rect x="180" y="135" width="1694" height="1209"/>
  </clipPath>
</defs>
<path clip-path="url(#clip410)" d="M433.3 1343.4 L1872.76 1343.4 L1872.76 135.568 L433.3 135.568  Z" fill="#ffffff" fill-rule="evenodd" fill-opacity="1"/>
<defs>
  <clipPath id="clip412">
    <rect x="433" y="135" width="1440" height="1209"/>
  </clipPath>
</defs>
<polyline clip-path="url(#clip412)" style="stroke:#000000; stroke-linecap:round; stroke-linejoin:round; stroke-width:2; stroke-opacity:0.1; fill:none" points="624.926,1343.4 624.926,135.568 "/>
<polyline clip-path="url(#clip412)" style="stroke:#000000; stroke-linecap:round; stroke-linejoin:round; stroke-width:2; stroke-opacity:0.1; fill:none" points="926.699,1343.4 926.699,135.568 "/>
<polyline clip-path="url(#clip412)" style="stroke:#000000; stroke-linecap:round; stroke-linejoin:round; stroke-width:2; stroke-opacity:0.1; fill:none" points="1228.47,1343.4 1228.47,135.568 "/>
<polyline clip-path="url(#clip412)" style="stroke:#000000; stroke-linecap:round; stroke-linejoin:round; stroke-width:2; stroke-opacity:0.1; fill:none" points="1530.24,1343.4 1530.24,135.568 "/>
<polyline clip-path="url(#clip412)" style="stroke:#000000; stroke-linecap:round; stroke-linejoin:round; stroke-width:2; stroke-opacity:0.1; fill:none" points="1832.02,1343.4 1832.02,135.568 "/>
<polyline clip-path="url(#clip412)" style="stroke:#000000; stroke-linecap:round; stroke-linejoin:round; stroke-width:2; stroke-opacity:0.1; fill:none" points="433.3,1180.33 1872.76,1180.33 "/>
<polyline clip-path="url(#clip412)" style="stroke:#000000; stroke-linecap:round; stroke-linejoin:round; stroke-width:2; stroke-opacity:0.1; fill:none" points="433.3,966.589 1872.76,966.589 "/>
<polyline clip-path="url(#clip412)" style="stroke:#000000; stroke-linecap:round; stroke-linejoin:round; stroke-width:2; stroke-opacity:0.1; fill:none" points="433.3,752.845 1872.76,752.845 "/>
<polyline clip-path="url(#clip412)" style="stroke:#000000; stroke-linecap:round; stroke-linejoin:round; stroke-width:2; stroke-opacity:0.1; fill:none" points="433.3,539.101 1872.76,539.101 "/>
<polyline clip-path="url(#clip412)" style="stroke:#000000; stroke-linecap:round; stroke-linejoin:round; stroke-width:2; stroke-opacity:0.1; fill:none" points="433.3,325.358 1872.76,325.358 "/>
<polyline clip-path="url(#clip410)" style="stroke:#000000; stroke-linecap:round; stroke-linejoin:round; stroke-width:4; stroke-opacity:1; fill:none" points="433.3,1343.4 1872.76,1343.4 "/>
<polyline clip-path="url(#clip410)" style="stroke:#000000; stroke-linecap:round; stroke-linejoin:round; stroke-width:4; stroke-opacity:1; fill:none" points="624.926,1343.4 624.926,1324.51 "/>
<polyline clip-path="url(#clip410)" style="stroke:#000000; stroke-linecap:round; stroke-linejoin:round; stroke-width:4; stroke-opacity:1; fill:none" points="926.699,1343.4 926.699,1324.51 "/>
<polyline clip-path="url(#clip410)" style="stroke:#000000; stroke-linecap:round; stroke-linejoin:round; stroke-width:4; stroke-opacity:1; fill:none" points="1228.47,1343.4 1228.47,1324.51 "/>
<polyline clip-path="url(#clip410)" style="stroke:#000000; stroke-linecap:round; stroke-linejoin:round; stroke-width:4; stroke-opacity:1; fill:none" points="1530.24,1343.4 1530.24,1324.51 "/>
<polyline clip-path="url(#clip410)" style="stroke:#000000; stroke-linecap:round; stroke-linejoin:round; stroke-width:4; stroke-opacity:1; fill:none" points="1832.02,1343.4 1832.02,1324.51 "/>
<path clip-path="url(#clip410)" d="M603.109 1370.48 Q599.498 1370.48 597.669 1374.05 Q595.864 1377.59 595.864 1384.72 Q595.864 1391.83 597.669 1395.39 Q599.498 1398.93 603.109 1398.93 Q606.743 1398.93 608.549 1395.39 Q610.377 1391.83 610.377 1384.72 Q610.377 1377.59 608.549 1374.05 Q606.743 1370.48 603.109 1370.48 M603.109 1366.78 Q608.919 1366.78 611.975 1371.39 Q615.053 1375.97 615.053 1384.72 Q615.053 1393.45 611.975 1398.05 Q608.919 1402.64 603.109 1402.64 Q597.299 1402.64 594.22 1398.05 Q591.165 1393.45 591.165 1384.72 Q591.165 1375.97 594.22 1371.39 Q597.299 1366.78 603.109 1366.78 Z" fill="#000000" fill-rule="nonzero" fill-opacity="1" /><path clip-path="url(#clip410)" d="M623.271 1396.08 L628.155 1396.08 L628.155 1401.96 L623.271 1401.96 L623.271 1396.08 Z" fill="#000000" fill-rule="nonzero" fill-opacity="1" /><path clip-path="url(#clip410)" d="M642.368 1398.03 L658.687 1398.03 L658.687 1401.96 L636.743 1401.96 L636.743 1398.03 Q639.405 1395.27 643.988 1390.64 Q648.595 1385.99 649.775 1384.65 Q652.021 1382.13 652.9 1380.39 Q653.803 1378.63 653.803 1376.94 Q653.803 1374.19 651.859 1372.45 Q649.937 1370.71 646.836 1370.71 Q644.637 1370.71 642.183 1371.48 Q639.752 1372.24 636.975 1373.79 L636.975 1369.07 Q639.799 1367.94 642.252 1367.36 Q644.706 1366.78 646.743 1366.78 Q652.113 1366.78 655.308 1369.46 Q658.502 1372.15 658.502 1376.64 Q658.502 1378.77 657.692 1380.69 Q656.905 1382.59 654.799 1385.18 Q654.22 1385.85 651.118 1389.07 Q648.016 1392.26 642.368 1398.03 Z" fill="#000000" fill-rule="nonzero" fill-opacity="1" /><path clip-path="url(#clip410)" d="M903.84 1370.48 Q900.229 1370.48 898.4 1374.05 Q896.595 1377.59 896.595 1384.72 Q896.595 1391.83 898.4 1395.39 Q900.229 1398.93 903.84 1398.93 Q907.474 1398.93 909.28 1395.39 Q911.108 1391.83 911.108 1384.72 Q911.108 1377.59 909.28 1374.05 Q907.474 1370.48 903.84 1370.48 M903.84 1366.78 Q909.65 1366.78 912.706 1371.39 Q915.784 1375.97 915.784 1384.72 Q915.784 1393.45 912.706 1398.05 Q909.65 1402.64 903.84 1402.64 Q898.03 1402.64 894.951 1398.05 Q891.896 1393.45 891.896 1384.72 Q891.896 1375.97 894.951 1371.39 Q898.03 1366.78 903.84 1366.78 Z" fill="#000000" fill-rule="nonzero" fill-opacity="1" /><path clip-path="url(#clip410)" d="M924.002 1396.08 L928.886 1396.08 L928.886 1401.96 L924.002 1401.96 L924.002 1396.08 Z" fill="#000000" fill-rule="nonzero" fill-opacity="1" /><path clip-path="url(#clip410)" d="M951.918 1371.48 L940.113 1389.93 L951.918 1389.93 L951.918 1371.48 M950.692 1367.4 L956.571 1367.4 L956.571 1389.93 L961.502 1389.93 L961.502 1393.82 L956.571 1393.82 L956.571 1401.96 L951.918 1401.96 L951.918 1393.82 L936.317 1393.82 L936.317 1389.3 L950.692 1367.4 Z" fill="#000000" fill-rule="nonzero" fill-opacity="1" /><path clip-path="url(#clip410)" d="M1205.77 1370.48 Q1202.16 1370.48 1200.33 1374.05 Q1198.53 1377.59 1198.53 1384.72 Q1198.53 1391.83 1200.33 1395.39 Q1202.16 1398.93 1205.77 1398.93 Q1209.41 1398.93 1211.21 1395.39 Q1213.04 1391.83 1213.04 1384.72 Q1213.04 1377.59 1211.21 1374.05 Q1209.41 1370.48 1205.77 1370.48 M1205.77 1366.78 Q1211.58 1366.78 1214.64 1371.39 Q1217.72 1375.97 1217.72 1384.72 Q1217.72 1393.45 1214.64 1398.05 Q1211.58 1402.64 1205.77 1402.64 Q1199.96 1402.64 1196.89 1398.05 Q1193.83 1393.45 1193.83 1384.72 Q1193.83 1375.97 1196.89 1371.39 Q1199.96 1366.78 1205.77 1366.78 Z" fill="#000000" fill-rule="nonzero" fill-opacity="1" /><path clip-path="url(#clip410)" d="M1225.94 1396.08 L1230.82 1396.08 L1230.82 1401.96 L1225.94 1401.96 L1225.94 1396.08 Z" fill="#000000" fill-rule="nonzero" fill-opacity="1" /><path clip-path="url(#clip410)" d="M1251.58 1382.82 Q1248.44 1382.82 1246.58 1384.97 Q1244.76 1387.13 1244.76 1390.88 Q1244.76 1394.6 1246.58 1396.78 Q1248.44 1398.93 1251.58 1398.93 Q1254.73 1398.93 1256.56 1396.78 Q1258.41 1394.6 1258.41 1390.88 Q1258.41 1387.13 1256.56 1384.97 Q1254.73 1382.82 1251.58 1382.82 M1260.87 1368.17 L1260.87 1372.43 Q1259.11 1371.59 1257.3 1371.15 Q1255.52 1370.71 1253.76 1370.71 Q1249.13 1370.71 1246.68 1373.84 Q1244.25 1376.96 1243.9 1383.28 Q1245.27 1381.27 1247.33 1380.2 Q1249.39 1379.12 1251.86 1379.12 Q1257.07 1379.12 1260.08 1382.29 Q1263.11 1385.44 1263.11 1390.88 Q1263.11 1396.2 1259.96 1399.42 Q1256.82 1402.64 1251.58 1402.64 Q1245.59 1402.64 1242.42 1398.05 Q1239.25 1393.45 1239.25 1384.72 Q1239.25 1376.52 1243.14 1371.66 Q1247.02 1366.78 1253.58 1366.78 Q1255.33 1366.78 1257.12 1367.13 Q1258.92 1367.47 1260.87 1368.17 Z" fill="#000000" fill-rule="nonzero" fill-opacity="1" /><path clip-path="url(#clip410)" d="M1507.67 1370.48 Q1504.06 1370.48 1502.23 1374.05 Q1500.43 1377.59 1500.43 1384.72 Q1500.43 1391.83 1502.23 1395.39 Q1504.06 1398.93 1507.67 1398.93 Q1511.31 1398.93 1513.11 1395.39 Q1514.94 1391.83 1514.94 1384.72 Q1514.94 1377.59 1513.11 1374.05 Q1511.31 1370.48 1507.67 1370.48 M1507.67 1366.78 Q1513.48 1366.78 1516.54 1371.39 Q1519.62 1375.97 1519.62 1384.72 Q1519.62 1393.45 1516.54 1398.05 Q1513.48 1402.64 1507.67 1402.64 Q1501.86 1402.64 1498.79 1398.05 Q1495.73 1393.45 1495.73 1384.72 Q1495.73 1375.97 1498.79 1371.39 Q1501.86 1366.78 1507.67 1366.78 Z" fill="#000000" fill-rule="nonzero" fill-opacity="1" /><path clip-path="url(#clip410)" d="M1527.84 1396.08 L1532.72 1396.08 L1532.72 1401.96 L1527.84 1401.96 L1527.84 1396.08 Z" fill="#000000" fill-rule="nonzero" fill-opacity="1" /><path clip-path="url(#clip410)" d="M1552.91 1385.55 Q1549.57 1385.55 1547.65 1387.33 Q1545.75 1389.12 1545.75 1392.24 Q1545.75 1395.37 1547.65 1397.15 Q1549.57 1398.93 1552.91 1398.93 Q1556.24 1398.93 1558.16 1397.15 Q1560.08 1395.34 1560.08 1392.24 Q1560.08 1389.12 1558.16 1387.33 Q1556.26 1385.55 1552.91 1385.55 M1548.23 1383.56 Q1545.22 1382.82 1543.53 1380.76 Q1541.86 1378.7 1541.86 1375.74 Q1541.86 1371.59 1544.8 1369.19 Q1547.77 1366.78 1552.91 1366.78 Q1558.07 1366.78 1561.01 1369.19 Q1563.95 1371.59 1563.95 1375.74 Q1563.95 1378.7 1562.26 1380.76 Q1560.59 1382.82 1557.6 1383.56 Q1560.98 1384.35 1562.86 1386.64 Q1564.76 1388.93 1564.76 1392.24 Q1564.76 1397.26 1561.68 1399.95 Q1558.62 1402.64 1552.91 1402.64 Q1547.19 1402.64 1544.11 1399.95 Q1541.05 1397.26 1541.05 1392.24 Q1541.05 1388.93 1542.95 1386.64 Q1544.85 1384.35 1548.23 1383.56 M1546.52 1376.18 Q1546.52 1378.86 1548.18 1380.37 Q1549.87 1381.87 1552.91 1381.87 Q1555.92 1381.87 1557.6 1380.37 Q1559.32 1378.86 1559.32 1376.18 Q1559.32 1373.49 1557.6 1371.99 Q1555.92 1370.48 1552.91 1370.48 Q1549.87 1370.48 1548.18 1371.99 Q1546.52 1373.49 1546.52 1376.18 Z" fill="#000000" fill-rule="nonzero" fill-opacity="1" /><path clip-path="url(#clip410)" d="M1799.17 1398.03 L1806.81 1398.03 L1806.81 1371.66 L1798.5 1373.33 L1798.5 1369.07 L1806.76 1367.4 L1811.44 1367.4 L1811.44 1398.03 L1819.08 1398.03 L1819.08 1401.96 L1799.17 1401.96 L1799.17 1398.03 Z" fill="#000000" fill-rule="nonzero" fill-opacity="1" /><path clip-path="url(#clip410)" d="M1828.52 1396.08 L1833.41 1396.08 L1833.41 1401.96 L1828.52 1401.96 L1828.52 1396.08 Z" fill="#000000" fill-rule="nonzero" fill-opacity="1" /><path clip-path="url(#clip410)" d="M1853.59 1370.48 Q1849.98 1370.48 1848.15 1374.05 Q1846.35 1377.59 1846.35 1384.72 Q1846.35 1391.83 1848.15 1395.39 Q1849.98 1398.93 1853.59 1398.93 Q1857.22 1398.93 1859.03 1395.39 Q1860.86 1391.83 1860.86 1384.72 Q1860.86 1377.59 1859.03 1374.05 Q1857.22 1370.48 1853.59 1370.48 M1853.59 1366.78 Q1859.4 1366.78 1862.46 1371.39 Q1865.53 1375.97 1865.53 1384.72 Q1865.53 1393.45 1862.46 1398.05 Q1859.4 1402.64 1853.59 1402.64 Q1847.78 1402.64 1844.7 1398.05 Q1841.65 1393.45 1841.65 1384.72 Q1841.65 1375.97 1844.7 1371.39 Q1847.78 1366.78 1853.59 1366.78 Z" fill="#000000" fill-rule="nonzero" fill-opacity="1" /><path clip-path="url(#clip410)" d="M885.541 1437.21 L885.541 1443.99 Q882.295 1440.96 878.603 1439.47 Q874.942 1437.97 870.805 1437.97 Q862.656 1437.97 858.328 1442.97 Q853.999 1447.93 853.999 1457.36 Q853.999 1466.75 858.328 1471.74 Q862.656 1476.71 870.805 1476.71 Q874.942 1476.71 878.603 1475.21 Q882.295 1473.72 885.541 1470.69 L885.541 1477.41 Q882.167 1479.7 878.38 1480.85 Q874.624 1481.99 870.423 1481.99 Q859.633 1481.99 853.426 1475.4 Q847.22 1468.78 847.22 1457.36 Q847.22 1445.9 853.426 1439.31 Q859.633 1432.69 870.423 1432.69 Q874.688 1432.69 878.443 1433.83 Q882.231 1434.95 885.541 1437.21 Z" fill="#000000" fill-rule="nonzero" fill-opacity="1" /><path clip-path="url(#clip410)" d="M894.994 1445.42 L900.819 1445.42 L900.819 1462.16 L917.338 1445.42 L924.531 1445.42 L910.908 1459.2 L926.282 1481.07 L919.725 1481.07 L907.089 1463.08 L900.819 1469.45 L900.819 1481.07 L894.994 1481.07 L894.994 1445.42 Z" fill="#000000" fill-rule="nonzero" fill-opacity="1" /><path clip-path="url(#clip410)" d="M948.402 1449.53 Q943.692 1449.53 940.955 1453.22 Q938.217 1456.88 938.217 1463.28 Q938.217 1469.67 940.923 1473.37 Q943.66 1477.03 948.402 1477.03 Q953.081 1477.03 955.819 1473.33 Q958.556 1469.64 958.556 1463.28 Q958.556 1456.94 955.819 1453.25 Q953.081 1449.53 948.402 1449.53 M948.402 1444.56 Q956.041 1444.56 960.402 1449.53 Q964.762 1454.49 964.762 1463.28 Q964.762 1472.03 960.402 1477.03 Q956.041 1481.99 948.402 1481.99 Q940.732 1481.99 936.371 1477.03 Q932.043 1472.03 932.043 1463.28 Q932.043 1454.49 936.371 1449.53 Q940.732 1444.56 948.402 1444.56 Z" fill="#000000" fill-rule="nonzero" fill-opacity="1" /><path clip-path="url(#clip410)" d="M980.136 1475.72 L980.136 1494.63 L974.247 1494.63 L974.247 1445.42 L980.136 1445.42 L980.136 1450.83 Q981.982 1447.65 984.782 1446.12 Q987.615 1444.56 991.53 1444.56 Q998.023 1444.56 1002.07 1449.72 Q1006.14 1454.87 1006.14 1463.28 Q1006.14 1471.68 1002.07 1476.83 Q998.023 1481.99 991.53 1481.99 Q987.615 1481.99 984.782 1480.46 Q981.982 1478.9 980.136 1475.72 M1000.06 1463.28 Q1000.06 1456.81 997.387 1453.15 Q994.745 1449.46 990.098 1449.46 Q985.451 1449.46 982.777 1453.15 Q980.136 1456.81 980.136 1463.28 Q980.136 1469.74 982.777 1473.43 Q985.451 1477.09 990.098 1477.09 Q994.745 1477.09 997.387 1473.43 Q1000.06 1469.74 1000.06 1463.28 Z" fill="#000000" fill-rule="nonzero" fill-opacity="1" /><path clip-path="url(#clip410)" d="M1029.66 1449.53 Q1024.95 1449.53 1022.21 1453.22 Q1019.48 1456.88 1019.48 1463.28 Q1019.48 1469.67 1022.18 1473.37 Q1024.92 1477.03 1029.66 1477.03 Q1034.34 1477.03 1037.08 1473.33 Q1039.81 1469.64 1039.81 1463.28 Q1039.81 1456.94 1037.08 1453.25 Q1034.34 1449.53 1029.66 1449.53 M1029.66 1444.56 Q1037.3 1444.56 1041.66 1449.53 Q1046.02 1454.49 1046.02 1463.28 Q1046.02 1472.03 1041.66 1477.03 Q1037.3 1481.99 1029.66 1481.99 Q1021.99 1481.99 1017.63 1477.03 Q1013.3 1472.03 1013.3 1463.28 Q1013.3 1454.49 1017.63 1449.53 Q1021.99 1444.56 1029.66 1444.56 Z" fill="#000000" fill-rule="nonzero" fill-opacity="1" /><path clip-path="url(#clip410)" d="M1081.38 1446.79 L1081.38 1452.26 Q1078.9 1450.89 1076.39 1450.23 Q1073.9 1449.53 1071.36 1449.53 Q1065.66 1449.53 1062.51 1453.15 Q1059.36 1456.75 1059.36 1463.28 Q1059.36 1469.8 1062.51 1473.43 Q1065.66 1477.03 1071.36 1477.03 Q1073.9 1477.03 1076.39 1476.36 Q1078.9 1475.66 1081.38 1474.29 L1081.38 1479.7 Q1078.93 1480.85 1076.29 1481.42 Q1073.68 1481.99 1070.72 1481.99 Q1062.67 1481.99 1057.92 1476.93 Q1053.18 1471.87 1053.18 1463.28 Q1053.18 1454.55 1057.96 1449.56 Q1062.76 1444.56 1071.1 1444.56 Q1073.81 1444.56 1076.39 1445.13 Q1078.96 1445.67 1081.38 1446.79 Z" fill="#000000" fill-rule="nonzero" fill-opacity="1" /><path clip-path="url(#clip410)" d="M1087.33 1445.42 L1121.49 1445.42 L1121.49 1450.1 L1107.29 1450.1 L1107.29 1481.07 L1101.53 1481.07 L1101.53 1450.1 L1087.33 1450.1 L1087.33 1445.42 Z" fill="#000000" fill-rule="nonzero" fill-opacity="1" /><path clip-path="url(#clip410)" d="M1151.72 1470.5 Q1151.72 1467.64 1149.62 1466.14 Q1147.55 1464.64 1143.54 1464.64 L1135.2 1464.64 L1135.2 1476.39 L1143.54 1476.39 Q1147.55 1476.39 1149.62 1474.89 Q1151.72 1473.37 1151.72 1470.5 M1129.32 1445.42 L1135.2 1445.42 L1135.2 1459.97 L1143.8 1459.97 Q1150.61 1459.97 1154.27 1462.58 Q1157.96 1465.15 1157.96 1470.5 Q1157.96 1475.85 1154.27 1478.46 Q1150.61 1481.07 1143.8 1481.07 L1129.32 1481.07 L1129.32 1445.42 Z" fill="#000000" fill-rule="nonzero" fill-opacity="1" /><path clip-path="url(#clip410)" d="M1194.34 1475.72 L1194.34 1494.63 L1188.45 1494.63 L1188.45 1445.42 L1194.34 1445.42 L1194.34 1450.83 Q1196.19 1447.65 1198.99 1446.12 Q1201.82 1444.56 1205.74 1444.56 Q1212.23 1444.56 1216.27 1449.72 Q1220.35 1454.87 1220.35 1463.28 Q1220.35 1471.68 1216.27 1476.83 Q1212.23 1481.99 1205.74 1481.99 Q1201.82 1481.99 1198.99 1480.46 Q1196.19 1478.9 1194.34 1475.72 M1214.27 1463.28 Q1214.27 1456.81 1211.59 1453.15 Q1208.95 1449.46 1204.3 1449.46 Q1199.66 1449.46 1196.98 1453.15 Q1194.34 1456.81 1194.34 1463.28 Q1194.34 1469.74 1196.98 1473.43 Q1199.66 1477.09 1204.3 1477.09 Q1208.95 1477.09 1211.59 1473.43 Q1214.27 1469.74 1214.27 1463.28 Z" fill="#000000" fill-rule="nonzero" fill-opacity="1" /><path clip-path="url(#clip410)" d="M1243.87 1449.53 Q1239.16 1449.53 1236.42 1453.22 Q1233.68 1456.88 1233.68 1463.28 Q1233.68 1469.67 1236.39 1473.37 Q1239.12 1477.03 1243.87 1477.03 Q1248.55 1477.03 1251.28 1473.33 Q1254.02 1469.64 1254.02 1463.28 Q1254.02 1456.94 1251.28 1453.25 Q1248.55 1449.53 1243.87 1449.53 M1243.87 1444.56 Q1251.51 1444.56 1255.87 1449.53 Q1260.23 1454.49 1260.23 1463.28 Q1260.23 1472.03 1255.87 1477.03 Q1251.51 1481.99 1243.87 1481.99 Q1236.2 1481.99 1231.84 1477.03 Q1227.51 1472.03 1227.51 1463.28 Q1227.51 1454.49 1231.84 1449.53 Q1236.2 1444.56 1243.87 1444.56 Z" fill="#000000" fill-rule="nonzero" fill-opacity="1" /><path clip-path="url(#clip410)" d="M1295.59 1446.79 L1295.59 1452.26 Q1293.11 1450.89 1290.59 1450.23 Q1288.11 1449.53 1285.56 1449.53 Q1279.86 1449.53 1276.71 1453.15 Q1273.56 1456.75 1273.56 1463.28 Q1273.56 1469.8 1276.71 1473.43 Q1279.86 1477.03 1285.56 1477.03 Q1288.11 1477.03 1290.59 1476.36 Q1293.11 1475.66 1295.59 1474.29 L1295.59 1479.7 Q1293.14 1480.85 1290.5 1481.42 Q1287.89 1481.99 1284.93 1481.99 Q1276.87 1481.99 1272.13 1476.93 Q1267.39 1471.87 1267.39 1463.28 Q1267.39 1454.55 1272.16 1449.56 Q1276.97 1444.56 1285.31 1444.56 Q1288.01 1444.56 1290.59 1445.13 Q1293.17 1445.67 1295.59 1446.79 Z" fill="#000000" fill-rule="nonzero" fill-opacity="1" /><path clip-path="url(#clip410)" d="M1301.54 1445.42 L1335.69 1445.42 L1335.69 1450.1 L1321.5 1450.1 L1321.5 1481.07 L1315.74 1481.07 L1315.74 1450.1 L1301.54 1450.1 L1301.54 1445.42 Z" fill="#000000" fill-rule="nonzero" fill-opacity="1" /><path clip-path="url(#clip410)" d="M1359.95 1463.15 Q1352.85 1463.15 1350.11 1464.77 Q1347.37 1466.39 1347.37 1470.31 Q1347.37 1473.43 1349.41 1475.28 Q1351.48 1477.09 1355.01 1477.09 Q1359.88 1477.09 1362.81 1473.65 Q1365.77 1470.18 1365.77 1464.45 L1365.77 1463.15 L1359.95 1463.15 M1371.63 1460.73 L1371.63 1481.07 L1365.77 1481.07 L1365.77 1475.66 Q1363.76 1478.9 1360.77 1480.46 Q1357.78 1481.99 1353.45 1481.99 Q1347.98 1481.99 1344.73 1478.94 Q1341.52 1475.85 1341.52 1470.69 Q1341.52 1464.68 1345.53 1461.62 Q1349.57 1458.57 1357.56 1458.57 L1365.77 1458.57 L1365.77 1457.99 Q1365.77 1453.95 1363.1 1451.75 Q1360.45 1449.53 1355.65 1449.53 Q1352.59 1449.53 1349.7 1450.26 Q1346.8 1450.99 1344.13 1452.45 L1344.13 1447.04 Q1347.34 1445.8 1350.37 1445.2 Q1353.39 1444.56 1356.25 1444.56 Q1363.99 1444.56 1367.81 1448.57 Q1371.63 1452.58 1371.63 1460.73 Z" fill="#000000" fill-rule="nonzero" fill-opacity="1" /><path clip-path="url(#clip410)" d="M1385.19 1472.98 L1391.9 1472.98 L1391.9 1478.46 L1386.68 1488.64 L1382.58 1488.64 L1385.19 1478.46 L1385.19 1472.98 Z" fill="#000000" fill-rule="nonzero" fill-opacity="1" /><path clip-path="url(#clip410)" d="M1445.91 1464.49 L1444.51 1457.13 Q1443.08 1449.59 1437.42 1449.59 Q1433.15 1449.59 1431.21 1453.09 Q1428.76 1457.48 1428.76 1463.28 Q1428.76 1470.28 1431.15 1473.62 Q1433.56 1477.03 1437.42 1477.03 Q1441.68 1477.03 1443.97 1470.25 L1445.91 1464.49 M1449.19 1454.75 L1452.34 1445.42 L1457.56 1445.42 L1451.04 1464.74 L1452.31 1471.71 Q1452.6 1473.27 1453.71 1474.57 Q1455.02 1476.1 1456.04 1476.1 L1458.84 1476.1 L1458.84 1481.07 L1455.34 1481.07 Q1452.34 1481.07 1449.67 1478.39 Q1448.37 1477.06 1447.82 1474.26 Q1446.36 1477.79 1443.37 1480.56 Q1441.97 1481.86 1437.42 1481.86 Q1429.94 1481.86 1426.31 1477.03 Q1422.58 1472.03 1422.58 1463.28 Q1422.58 1453.92 1426.63 1449.53 Q1431.11 1444.62 1437.42 1444.62 Q1447.31 1444.62 1449.19 1454.75 Z" fill="#000000" fill-rule="nonzero" fill-opacity="1" /><polyline clip-path="url(#clip410)" style="stroke:#000000; stroke-linecap:round; stroke-linejoin:round; stroke-width:4; stroke-opacity:1; fill:none" points="433.3,1343.4 433.3,135.568 "/>
<polyline clip-path="url(#clip410)" style="stroke:#000000; stroke-linecap:round; stroke-linejoin:round; stroke-width:4; stroke-opacity:1; fill:none" points="433.3,1180.33 452.198,1180.33 "/>
<polyline clip-path="url(#clip410)" style="stroke:#000000; stroke-linecap:round; stroke-linejoin:round; stroke-width:4; stroke-opacity:1; fill:none" points="433.3,966.589 452.198,966.589 "/>
<polyline clip-path="url(#clip410)" style="stroke:#000000; stroke-linecap:round; stroke-linejoin:round; stroke-width:4; stroke-opacity:1; fill:none" points="433.3,752.845 452.198,752.845 "/>
<polyline clip-path="url(#clip410)" style="stroke:#000000; stroke-linecap:round; stroke-linejoin:round; stroke-width:4; stroke-opacity:1; fill:none" points="433.3,539.101 452.198,539.101 "/>
<polyline clip-path="url(#clip410)" style="stroke:#000000; stroke-linecap:round; stroke-linejoin:round; stroke-width:4; stroke-opacity:1; fill:none" points="433.3,325.358 452.198,325.358 "/>
<path clip-path="url(#clip410)" d="M141.789 1185.43 Q145.146 1186.14 147.021 1188.41 Q148.919 1190.68 148.919 1194.01 Q148.919 1199.13 145.4 1201.93 Q141.882 1204.73 135.4 1204.73 Q133.224 1204.73 130.91 1204.29 Q128.618 1203.87 126.164 1203.02 L126.164 1198.5 Q128.109 1199.64 130.423 1200.22 Q132.738 1200.8 135.261 1200.8 Q139.659 1200.8 141.951 1199.06 Q144.266 1197.32 144.266 1194.01 Q144.266 1190.96 142.113 1189.25 Q139.984 1187.51 136.164 1187.51 L132.136 1187.51 L132.136 1183.67 L136.349 1183.67 Q139.798 1183.67 141.627 1182.3 Q143.456 1180.91 143.456 1178.32 Q143.456 1175.66 141.558 1174.25 Q139.683 1172.81 136.164 1172.81 Q134.243 1172.81 132.044 1173.23 Q129.845 1173.64 127.206 1174.52 L127.206 1170.36 Q129.868 1169.62 132.183 1169.25 Q134.521 1168.87 136.581 1168.87 Q141.905 1168.87 145.007 1171.31 Q148.108 1173.71 148.108 1177.83 Q148.108 1180.7 146.465 1182.69 Q144.821 1184.66 141.789 1185.43 Z" fill="#000000" fill-rule="nonzero" fill-opacity="1" /><path clip-path="url(#clip410)" d="M157.784 1198.18 L162.669 1198.18 L162.669 1204.06 L157.784 1204.06 L157.784 1198.18 Z" fill="#000000" fill-rule="nonzero" fill-opacity="1" /><path clip-path="url(#clip410)" d="M173.664 1200.12 L181.303 1200.12 L181.303 1173.76 L172.993 1175.43 L172.993 1171.17 L181.256 1169.5 L185.932 1169.5 L185.932 1200.12 L193.571 1200.12 L193.571 1204.06 L173.664 1204.06 L173.664 1200.12 Z" fill="#000000" fill-rule="nonzero" fill-opacity="1" /><path clip-path="url(#clip410)" d="M203.062 1169.5 L221.418 1169.5 L221.418 1173.44 L207.344 1173.44 L207.344 1181.91 Q208.363 1181.56 209.381 1181.4 Q210.4 1181.21 211.418 1181.21 Q217.205 1181.21 220.585 1184.38 Q223.965 1187.56 223.965 1192.97 Q223.965 1198.55 220.492 1201.65 Q217.02 1204.73 210.701 1204.73 Q208.525 1204.73 206.256 1204.36 Q204.011 1203.99 201.604 1203.25 L201.604 1198.55 Q203.687 1199.68 205.909 1200.24 Q208.131 1200.8 210.608 1200.8 Q214.613 1200.8 216.951 1198.69 Q219.289 1196.58 219.289 1192.97 Q219.289 1189.36 216.951 1187.25 Q214.613 1185.15 210.608 1185.15 Q208.733 1185.15 206.858 1185.56 Q205.006 1185.98 203.062 1186.86 L203.062 1169.5 Z" fill="#000000" fill-rule="nonzero" fill-opacity="1" /><path clip-path="url(#clip410)" d="M243.177 1172.58 Q239.566 1172.58 237.738 1176.14 Q235.932 1179.69 235.932 1186.81 Q235.932 1193.92 237.738 1197.49 Q239.566 1201.03 243.177 1201.03 Q246.812 1201.03 248.617 1197.49 Q250.446 1193.92 250.446 1186.81 Q250.446 1179.69 248.617 1176.14 Q246.812 1172.58 243.177 1172.58 M243.177 1168.87 Q248.988 1168.87 252.043 1173.48 Q255.122 1178.06 255.122 1186.81 Q255.122 1195.54 252.043 1200.15 Q248.988 1204.73 243.177 1204.73 Q237.367 1204.73 234.289 1200.15 Q231.233 1195.54 231.233 1186.81 Q231.233 1178.06 234.289 1173.48 Q237.367 1168.87 243.177 1168.87 Z" fill="#000000" fill-rule="nonzero" fill-opacity="1" /><path clip-path="url(#clip410)" d="M291.51 1178.6 L280.932 1189.22 L291.51 1199.8 L288.756 1202.6 L278.131 1191.98 L267.506 1202.6 L264.775 1199.8 L275.33 1189.22 L264.775 1178.6 L267.506 1175.8 L278.131 1186.42 L288.756 1175.8 L291.51 1178.6 Z" fill="#000000" fill-rule="nonzero" fill-opacity="1" /><path clip-path="url(#clip410)" d="M303.872 1200.12 L311.51 1200.12 L311.51 1173.76 L303.2 1175.43 L303.2 1171.17 L311.464 1169.5 L316.14 1169.5 L316.14 1200.12 L323.779 1200.12 L323.779 1204.06 L303.872 1204.06 L303.872 1200.12 Z" fill="#000000" fill-rule="nonzero" fill-opacity="1" /><path clip-path="url(#clip410)" d="M343.223 1172.58 Q339.612 1172.58 337.783 1176.14 Q335.978 1179.69 335.978 1186.81 Q335.978 1193.92 337.783 1197.49 Q339.612 1201.03 343.223 1201.03 Q346.857 1201.03 348.663 1197.49 Q350.492 1193.92 350.492 1186.81 Q350.492 1179.69 348.663 1176.14 Q346.857 1172.58 343.223 1172.58 M343.223 1168.87 Q349.033 1168.87 352.089 1173.48 Q355.168 1178.06 355.168 1186.81 Q355.168 1195.54 352.089 1200.15 Q349.033 1204.73 343.223 1204.73 Q337.413 1204.73 334.334 1200.15 Q331.279 1195.54 331.279 1186.81 Q331.279 1178.06 334.334 1173.48 Q337.413 1168.87 343.223 1168.87 Z" fill="#000000" fill-rule="nonzero" fill-opacity="1" /><path clip-path="url(#clip410)" d="M355.168 1162.98 L379.279 1162.98 L379.279 1166.17 L355.168 1166.17 L355.168 1162.98 Z" fill="#000000" fill-rule="nonzero" fill-opacity="1" /><path clip-path="url(#clip410)" d="M387.517 1148.57 L402.431 1148.57 L402.431 1151.77 L390.996 1151.77 L390.996 1158.65 Q391.824 1158.37 392.651 1158.24 Q393.479 1158.09 394.307 1158.09 Q399.008 1158.09 401.754 1160.66 Q404.5 1163.24 404.5 1167.64 Q404.5 1172.17 401.679 1174.69 Q398.858 1177.19 393.723 1177.19 Q391.956 1177.19 390.112 1176.89 Q388.288 1176.59 386.332 1175.99 L386.332 1172.17 Q388.025 1173.09 389.83 1173.55 Q391.636 1174 393.648 1174 Q396.902 1174 398.802 1172.29 Q400.701 1170.57 400.701 1167.64 Q400.701 1164.71 398.802 1163 Q396.902 1161.28 393.648 1161.28 Q392.125 1161.28 390.601 1161.62 Q389.097 1161.96 387.517 1162.68 L387.517 1148.57 Z" fill="#000000" fill-rule="nonzero" fill-opacity="1" /><path clip-path="url(#clip410)" d="M141.789 971.682 Q145.146 972.4 147.021 974.668 Q148.919 976.937 148.919 980.27 Q148.919 985.386 145.4 988.187 Q141.882 990.988 135.4 990.988 Q133.224 990.988 130.91 990.548 Q128.618 990.131 126.164 989.275 L126.164 984.761 Q128.109 985.895 130.423 986.474 Q132.738 987.052 135.261 987.052 Q139.659 987.052 141.951 985.316 Q144.266 983.58 144.266 980.27 Q144.266 977.214 142.113 975.502 Q139.984 973.765 136.164 973.765 L132.136 973.765 L132.136 969.923 L136.349 969.923 Q139.798 969.923 141.627 968.557 Q143.456 967.168 143.456 964.576 Q143.456 961.914 141.558 960.502 Q139.683 959.066 136.164 959.066 Q134.243 959.066 132.044 959.483 Q129.845 959.9 127.206 960.779 L127.206 956.613 Q129.868 955.872 132.183 955.502 Q134.521 955.131 136.581 955.131 Q141.905 955.131 145.007 957.562 Q148.108 959.969 148.108 964.09 Q148.108 966.96 146.465 968.951 Q144.821 970.918 141.789 971.682 Z" fill="#000000" fill-rule="nonzero" fill-opacity="1" /><path clip-path="url(#clip410)" d="M157.784 984.437 L162.669 984.437 L162.669 990.316 L157.784 990.316 L157.784 984.437 Z" fill="#000000" fill-rule="nonzero" fill-opacity="1" /><path clip-path="url(#clip410)" d="M176.881 986.381 L193.201 986.381 L193.201 990.316 L171.257 990.316 L171.257 986.381 Q173.919 983.626 178.502 978.997 Q183.108 974.344 184.289 973.002 Q186.534 970.478 187.414 968.742 Q188.317 966.983 188.317 965.293 Q188.317 962.539 186.372 960.803 Q184.451 959.066 181.349 959.066 Q179.15 959.066 176.696 959.83 Q174.266 960.594 171.488 962.145 L171.488 957.423 Q174.312 956.289 176.766 955.71 Q179.219 955.131 181.256 955.131 Q186.627 955.131 189.821 957.816 Q193.016 960.502 193.016 964.992 Q193.016 967.122 192.205 969.043 Q191.418 970.941 189.312 973.534 Q188.733 974.205 185.631 977.423 Q182.53 980.617 176.881 986.381 Z" fill="#000000" fill-rule="nonzero" fill-opacity="1" /><path clip-path="url(#clip410)" d="M213.016 958.835 Q209.404 958.835 207.576 962.4 Q205.77 965.941 205.77 973.071 Q205.77 980.177 207.576 983.742 Q209.404 987.284 213.016 987.284 Q216.65 987.284 218.455 983.742 Q220.284 980.177 220.284 973.071 Q220.284 965.941 218.455 962.4 Q216.65 958.835 213.016 958.835 M213.016 955.131 Q218.826 955.131 221.881 959.738 Q224.96 964.321 224.96 973.071 Q224.96 981.798 221.881 986.404 Q218.826 990.988 213.016 990.988 Q207.205 990.988 204.127 986.404 Q201.071 981.798 201.071 973.071 Q201.071 964.321 204.127 959.738 Q207.205 955.131 213.016 955.131 Z" fill="#000000" fill-rule="nonzero" fill-opacity="1" /><path clip-path="url(#clip410)" d="M243.177 958.835 Q239.566 958.835 237.738 962.4 Q235.932 965.941 235.932 973.071 Q235.932 980.177 237.738 983.742 Q239.566 987.284 243.177 987.284 Q246.812 987.284 248.617 983.742 Q250.446 980.177 250.446 973.071 Q250.446 965.941 248.617 962.4 Q246.812 958.835 243.177 958.835 M243.177 955.131 Q248.988 955.131 252.043 959.738 Q255.122 964.321 255.122 973.071 Q255.122 981.798 252.043 986.404 Q248.988 990.988 243.177 990.988 Q237.367 990.988 234.289 986.404 Q231.233 981.798 231.233 973.071 Q231.233 964.321 234.289 959.738 Q237.367 955.131 243.177 955.131 Z" fill="#000000" fill-rule="nonzero" fill-opacity="1" /><path clip-path="url(#clip410)" d="M291.51 964.853 L280.932 975.478 L291.51 986.057 L288.756 988.858 L278.131 978.233 L267.506 988.858 L264.775 986.057 L275.33 975.478 L264.775 964.853 L267.506 962.053 L278.131 972.677 L288.756 962.053 L291.51 964.853 Z" fill="#000000" fill-rule="nonzero" fill-opacity="1" /><path clip-path="url(#clip410)" d="M303.872 986.381 L311.51 986.381 L311.51 960.016 L303.2 961.682 L303.2 957.423 L311.464 955.756 L316.14 955.756 L316.14 986.381 L323.779 986.381 L323.779 990.316 L303.872 990.316 L303.872 986.381 Z" fill="#000000" fill-rule="nonzero" fill-opacity="1" /><path clip-path="url(#clip410)" d="M343.223 958.835 Q339.612 958.835 337.783 962.4 Q335.978 965.941 335.978 973.071 Q335.978 980.177 337.783 983.742 Q339.612 987.284 343.223 987.284 Q346.857 987.284 348.663 983.742 Q350.492 980.177 350.492 973.071 Q350.492 965.941 348.663 962.4 Q346.857 958.835 343.223 958.835 M343.223 955.131 Q349.033 955.131 352.089 959.738 Q355.168 964.321 355.168 973.071 Q355.168 981.798 352.089 986.404 Q349.033 990.988 343.223 990.988 Q337.413 990.988 334.334 986.404 Q331.279 981.798 331.279 973.071 Q331.279 964.321 334.334 959.738 Q337.413 955.131 343.223 955.131 Z" fill="#000000" fill-rule="nonzero" fill-opacity="1" /><path clip-path="url(#clip410)" d="M355.168 949.233 L379.279 949.233 L379.279 952.43 L355.168 952.43 L355.168 949.233 Z" fill="#000000" fill-rule="nonzero" fill-opacity="1" /><path clip-path="url(#clip410)" d="M387.517 934.826 L402.431 934.826 L402.431 938.023 L390.996 938.023 L390.996 944.907 Q391.824 944.625 392.651 944.493 Q393.479 944.343 394.307 944.343 Q399.008 944.343 401.754 946.919 Q404.5 949.496 404.5 953.897 Q404.5 958.43 401.679 960.95 Q398.858 963.451 393.723 963.451 Q391.956 963.451 390.112 963.15 Q388.288 962.849 386.332 962.248 L386.332 958.43 Q388.025 959.351 389.83 959.803 Q391.636 960.254 393.648 960.254 Q396.902 960.254 398.802 958.542 Q400.701 956.831 400.701 953.897 Q400.701 950.963 398.802 949.251 Q396.902 947.54 393.648 947.54 Q392.125 947.54 390.601 947.878 Q389.097 948.217 387.517 948.932 L387.517 934.826 Z" fill="#000000" fill-rule="nonzero" fill-opacity="1" /><path clip-path="url(#clip410)" d="M141.789 757.938 Q145.146 758.656 147.021 760.925 Q148.919 763.193 148.919 766.526 Q148.919 771.642 145.4 774.443 Q141.882 777.244 135.4 777.244 Q133.224 777.244 130.91 776.804 Q128.618 776.387 126.164 775.531 L126.164 771.017 Q128.109 772.151 130.423 772.73 Q132.738 773.309 135.261 773.309 Q139.659 773.309 141.951 771.573 Q144.266 769.836 144.266 766.526 Q144.266 763.471 142.113 761.758 Q139.984 760.022 136.164 760.022 L132.136 760.022 L132.136 756.179 L136.349 756.179 Q139.798 756.179 141.627 754.813 Q143.456 753.425 143.456 750.832 Q143.456 748.17 141.558 746.758 Q139.683 745.323 136.164 745.323 Q134.243 745.323 132.044 745.739 Q129.845 746.156 127.206 747.036 L127.206 742.869 Q129.868 742.128 132.183 741.758 Q134.521 741.388 136.581 741.388 Q141.905 741.388 145.007 743.818 Q148.108 746.226 148.108 750.346 Q148.108 753.216 146.465 755.207 Q144.821 757.175 141.789 757.938 Z" fill="#000000" fill-rule="nonzero" fill-opacity="1" /><path clip-path="url(#clip410)" d="M157.784 770.693 L162.669 770.693 L162.669 776.573 L157.784 776.573 L157.784 770.693 Z" fill="#000000" fill-rule="nonzero" fill-opacity="1" /><path clip-path="url(#clip410)" d="M176.881 772.637 L193.201 772.637 L193.201 776.573 L171.257 776.573 L171.257 772.637 Q173.919 769.883 178.502 765.253 Q183.108 760.6 184.289 759.258 Q186.534 756.735 187.414 754.999 Q188.317 753.239 188.317 751.55 Q188.317 748.795 186.372 747.059 Q184.451 745.323 181.349 745.323 Q179.15 745.323 176.696 746.087 Q174.266 746.851 171.488 748.401 L171.488 743.679 Q174.312 742.545 176.766 741.966 Q179.219 741.388 181.256 741.388 Q186.627 741.388 189.821 744.073 Q193.016 746.758 193.016 751.249 Q193.016 753.378 192.205 755.3 Q191.418 757.198 189.312 759.79 Q188.733 760.462 185.631 763.679 Q182.53 766.874 176.881 772.637 Z" fill="#000000" fill-rule="nonzero" fill-opacity="1" /><path clip-path="url(#clip410)" d="M203.062 742.013 L221.418 742.013 L221.418 745.948 L207.344 745.948 L207.344 754.42 Q208.363 754.073 209.381 753.911 Q210.4 753.725 211.418 753.725 Q217.205 753.725 220.585 756.897 Q223.965 760.068 223.965 765.485 Q223.965 771.063 220.492 774.165 Q217.02 777.244 210.701 777.244 Q208.525 777.244 206.256 776.873 Q204.011 776.503 201.604 775.762 L201.604 771.063 Q203.687 772.198 205.909 772.753 Q208.131 773.309 210.608 773.309 Q214.613 773.309 216.951 771.202 Q219.289 769.096 219.289 765.485 Q219.289 761.874 216.951 759.767 Q214.613 757.661 210.608 757.661 Q208.733 757.661 206.858 758.077 Q205.006 758.494 203.062 759.374 L203.062 742.013 Z" fill="#000000" fill-rule="nonzero" fill-opacity="1" /><path clip-path="url(#clip410)" d="M243.177 745.091 Q239.566 745.091 237.738 748.656 Q235.932 752.198 235.932 759.327 Q235.932 766.434 237.738 769.999 Q239.566 773.54 243.177 773.54 Q246.812 773.54 248.617 769.999 Q250.446 766.434 250.446 759.327 Q250.446 752.198 248.617 748.656 Q246.812 745.091 243.177 745.091 M243.177 741.388 Q248.988 741.388 252.043 745.994 Q255.122 750.577 255.122 759.327 Q255.122 768.054 252.043 772.661 Q248.988 777.244 243.177 777.244 Q237.367 777.244 234.289 772.661 Q231.233 768.054 231.233 759.327 Q231.233 750.577 234.289 745.994 Q237.367 741.388 243.177 741.388 Z" fill="#000000" fill-rule="nonzero" fill-opacity="1" /><path clip-path="url(#clip410)" d="M291.51 751.11 L280.932 761.735 L291.51 772.313 L288.756 775.114 L278.131 764.489 L267.506 775.114 L264.775 772.313 L275.33 761.735 L264.775 751.11 L267.506 748.309 L278.131 758.934 L288.756 748.309 L291.51 751.11 Z" fill="#000000" fill-rule="nonzero" fill-opacity="1" /><path clip-path="url(#clip410)" d="M303.872 772.637 L311.51 772.637 L311.51 746.272 L303.2 747.938 L303.2 743.679 L311.464 742.013 L316.14 742.013 L316.14 772.637 L323.779 772.637 L323.779 776.573 L303.872 776.573 L303.872 772.637 Z" fill="#000000" fill-rule="nonzero" fill-opacity="1" /><path clip-path="url(#clip410)" d="M343.223 745.091 Q339.612 745.091 337.783 748.656 Q335.978 752.198 335.978 759.327 Q335.978 766.434 337.783 769.999 Q339.612 773.54 343.223 773.54 Q346.857 773.54 348.663 769.999 Q350.492 766.434 350.492 759.327 Q350.492 752.198 348.663 748.656 Q346.857 745.091 343.223 745.091 M343.223 741.388 Q349.033 741.388 352.089 745.994 Q355.168 750.577 355.168 759.327 Q355.168 768.054 352.089 772.661 Q349.033 777.244 343.223 777.244 Q337.413 777.244 334.334 772.661 Q331.279 768.054 331.279 759.327 Q331.279 750.577 334.334 745.994 Q337.413 741.388 343.223 741.388 Z" fill="#000000" fill-rule="nonzero" fill-opacity="1" /><path clip-path="url(#clip410)" d="M355.168 735.489 L379.279 735.489 L379.279 738.686 L355.168 738.686 L355.168 735.489 Z" fill="#000000" fill-rule="nonzero" fill-opacity="1" /><path clip-path="url(#clip410)" d="M387.517 721.082 L402.431 721.082 L402.431 724.279 L390.996 724.279 L390.996 731.163 Q391.824 730.881 392.651 730.749 Q393.479 730.599 394.307 730.599 Q399.008 730.599 401.754 733.176 Q404.5 735.752 404.5 740.153 Q404.5 744.686 401.679 747.206 Q398.858 749.708 393.723 749.708 Q391.956 749.708 390.112 749.407 Q388.288 749.106 386.332 748.504 L386.332 744.686 Q388.025 745.607 389.83 746.059 Q391.636 746.51 393.648 746.51 Q396.902 746.51 398.802 744.799 Q400.701 743.087 400.701 740.153 Q400.701 737.219 398.802 735.508 Q396.902 733.796 393.648 733.796 Q392.125 733.796 390.601 734.135 Q389.097 734.473 387.517 735.188 L387.517 721.082 Z" fill="#000000" fill-rule="nonzero" fill-opacity="1" /><path clip-path="url(#clip410)" d="M141.789 544.195 Q145.146 544.912 147.021 547.181 Q148.919 549.449 148.919 552.783 Q148.919 557.898 145.4 560.699 Q141.882 563.5 135.4 563.5 Q133.224 563.5 130.91 563.06 Q128.618 562.644 126.164 561.787 L126.164 557.273 Q128.109 558.408 130.423 558.986 Q132.738 559.565 135.261 559.565 Q139.659 559.565 141.951 557.829 Q144.266 556.093 144.266 552.783 Q144.266 549.727 142.113 548.014 Q139.984 546.278 136.164 546.278 L132.136 546.278 L132.136 542.435 L136.349 542.435 Q139.798 542.435 141.627 541.07 Q143.456 539.681 143.456 537.088 Q143.456 534.426 141.558 533.014 Q139.683 531.579 136.164 531.579 Q134.243 531.579 132.044 531.996 Q129.845 532.412 127.206 533.292 L127.206 529.125 Q129.868 528.385 132.183 528.014 Q134.521 527.644 136.581 527.644 Q141.905 527.644 145.007 530.074 Q148.108 532.482 148.108 536.602 Q148.108 539.473 146.465 541.463 Q144.821 543.431 141.789 544.195 Z" fill="#000000" fill-rule="nonzero" fill-opacity="1" /><path clip-path="url(#clip410)" d="M157.784 556.949 L162.669 556.949 L162.669 562.829 L157.784 562.829 L157.784 556.949 Z" fill="#000000" fill-rule="nonzero" fill-opacity="1" /><path clip-path="url(#clip410)" d="M187.02 544.195 Q190.377 544.912 192.252 547.181 Q194.15 549.449 194.15 552.783 Q194.15 557.898 190.631 560.699 Q187.113 563.5 180.631 563.5 Q178.456 563.5 176.141 563.06 Q173.849 562.644 171.395 561.787 L171.395 557.273 Q173.34 558.408 175.655 558.986 Q177.969 559.565 180.493 559.565 Q184.891 559.565 187.182 557.829 Q189.497 556.093 189.497 552.783 Q189.497 549.727 187.344 548.014 Q185.215 546.278 181.395 546.278 L177.368 546.278 L177.368 542.435 L181.581 542.435 Q185.03 542.435 186.858 541.07 Q188.687 539.681 188.687 537.088 Q188.687 534.426 186.789 533.014 Q184.914 531.579 181.395 531.579 Q179.474 531.579 177.275 531.996 Q175.076 532.412 172.437 533.292 L172.437 529.125 Q175.099 528.385 177.414 528.014 Q179.752 527.644 181.812 527.644 Q187.136 527.644 190.238 530.074 Q193.34 532.482 193.34 536.602 Q193.34 539.473 191.696 541.463 Q190.053 543.431 187.02 544.195 Z" fill="#000000" fill-rule="nonzero" fill-opacity="1" /><path clip-path="url(#clip410)" d="M213.016 531.348 Q209.404 531.348 207.576 534.912 Q205.77 538.454 205.77 545.584 Q205.77 552.69 207.576 556.255 Q209.404 559.796 213.016 559.796 Q216.65 559.796 218.455 556.255 Q220.284 552.69 220.284 545.584 Q220.284 538.454 218.455 534.912 Q216.65 531.348 213.016 531.348 M213.016 527.644 Q218.826 527.644 221.881 532.25 Q224.96 536.834 224.96 545.584 Q224.96 554.31 221.881 558.917 Q218.826 563.5 213.016 563.5 Q207.205 563.5 204.127 558.917 Q201.071 554.31 201.071 545.584 Q201.071 536.834 204.127 532.25 Q207.205 527.644 213.016 527.644 Z" fill="#000000" fill-rule="nonzero" fill-opacity="1" /><path clip-path="url(#clip410)" d="M243.177 531.348 Q239.566 531.348 237.738 534.912 Q235.932 538.454 235.932 545.584 Q235.932 552.69 237.738 556.255 Q239.566 559.796 243.177 559.796 Q246.812 559.796 248.617 556.255 Q250.446 552.69 250.446 545.584 Q250.446 538.454 248.617 534.912 Q246.812 531.348 243.177 531.348 M243.177 527.644 Q248.988 527.644 252.043 532.25 Q255.122 536.834 255.122 545.584 Q255.122 554.31 252.043 558.917 Q248.988 563.5 243.177 563.5 Q237.367 563.5 234.289 558.917 Q231.233 554.31 231.233 545.584 Q231.233 536.834 234.289 532.25 Q237.367 527.644 243.177 527.644 Z" fill="#000000" fill-rule="nonzero" fill-opacity="1" /><path clip-path="url(#clip410)" d="M291.51 537.366 L280.932 547.991 L291.51 558.57 L288.756 561.371 L278.131 550.746 L267.506 561.371 L264.775 558.57 L275.33 547.991 L264.775 537.366 L267.506 534.565 L278.131 545.19 L288.756 534.565 L291.51 537.366 Z" fill="#000000" fill-rule="nonzero" fill-opacity="1" /><path clip-path="url(#clip410)" d="M303.872 558.894 L311.51 558.894 L311.51 532.528 L303.2 534.195 L303.2 529.936 L311.464 528.269 L316.14 528.269 L316.14 558.894 L323.779 558.894 L323.779 562.829 L303.872 562.829 L303.872 558.894 Z" fill="#000000" fill-rule="nonzero" fill-opacity="1" /><path clip-path="url(#clip410)" d="M343.223 531.348 Q339.612 531.348 337.783 534.912 Q335.978 538.454 335.978 545.584 Q335.978 552.69 337.783 556.255 Q339.612 559.796 343.223 559.796 Q346.857 559.796 348.663 556.255 Q350.492 552.69 350.492 545.584 Q350.492 538.454 348.663 534.912 Q346.857 531.348 343.223 531.348 M343.223 527.644 Q349.033 527.644 352.089 532.25 Q355.168 536.834 355.168 545.584 Q355.168 554.31 352.089 558.917 Q349.033 563.5 343.223 563.5 Q337.413 563.5 334.334 558.917 Q331.279 554.31 331.279 545.584 Q331.279 536.834 334.334 532.25 Q337.413 527.644 343.223 527.644 Z" fill="#000000" fill-rule="nonzero" fill-opacity="1" /><path clip-path="url(#clip410)" d="M355.168 521.745 L379.279 521.745 L379.279 524.943 L355.168 524.943 L355.168 521.745 Z" fill="#000000" fill-rule="nonzero" fill-opacity="1" /><path clip-path="url(#clip410)" d="M387.517 507.338 L402.431 507.338 L402.431 510.536 L390.996 510.536 L390.996 517.419 Q391.824 517.137 392.651 517.006 Q393.479 516.855 394.307 516.855 Q399.008 516.855 401.754 519.432 Q404.5 522.009 404.5 526.41 Q404.5 530.942 401.679 533.462 Q398.858 535.964 393.723 535.964 Q391.956 535.964 390.112 535.663 Q388.288 535.362 386.332 534.76 L386.332 530.942 Q388.025 531.864 389.83 532.315 Q391.636 532.767 393.648 532.767 Q396.902 532.767 398.802 531.055 Q400.701 529.344 400.701 526.41 Q400.701 523.476 398.802 521.764 Q396.902 520.053 393.648 520.053 Q392.125 520.053 390.601 520.391 Q389.097 520.73 387.517 521.444 L387.517 507.338 Z" fill="#000000" fill-rule="nonzero" fill-opacity="1" /><path clip-path="url(#clip410)" d="M141.789 330.451 Q145.146 331.169 147.021 333.437 Q148.919 335.706 148.919 339.039 Q148.919 344.155 145.4 346.956 Q141.882 349.756 135.4 349.756 Q133.224 349.756 130.91 349.317 Q128.618 348.9 126.164 348.044 L126.164 343.53 Q128.109 344.664 130.423 345.243 Q132.738 345.821 135.261 345.821 Q139.659 345.821 141.951 344.085 Q144.266 342.349 144.266 339.039 Q144.266 335.983 142.113 334.27 Q139.984 332.534 136.164 332.534 L132.136 332.534 L132.136 328.692 L136.349 328.692 Q139.798 328.692 141.627 327.326 Q143.456 325.937 143.456 323.345 Q143.456 320.683 141.558 319.271 Q139.683 317.835 136.164 317.835 Q134.243 317.835 132.044 318.252 Q129.845 318.669 127.206 319.548 L127.206 315.382 Q129.868 314.641 132.183 314.271 Q134.521 313.9 136.581 313.9 Q141.905 313.9 145.007 316.331 Q148.108 318.738 148.108 322.858 Q148.108 325.729 146.465 327.72 Q144.821 329.687 141.789 330.451 Z" fill="#000000" fill-rule="nonzero" fill-opacity="1" /><path clip-path="url(#clip410)" d="M157.784 343.206 L162.669 343.206 L162.669 349.085 L157.784 349.085 L157.784 343.206 Z" fill="#000000" fill-rule="nonzero" fill-opacity="1" /><path clip-path="url(#clip410)" d="M187.02 330.451 Q190.377 331.169 192.252 333.437 Q194.15 335.706 194.15 339.039 Q194.15 344.155 190.631 346.956 Q187.113 349.756 180.631 349.756 Q178.456 349.756 176.141 349.317 Q173.849 348.9 171.395 348.044 L171.395 343.53 Q173.34 344.664 175.655 345.243 Q177.969 345.821 180.493 345.821 Q184.891 345.821 187.182 344.085 Q189.497 342.349 189.497 339.039 Q189.497 335.983 187.344 334.27 Q185.215 332.534 181.395 332.534 L177.368 332.534 L177.368 328.692 L181.581 328.692 Q185.03 328.692 186.858 327.326 Q188.687 325.937 188.687 323.345 Q188.687 320.683 186.789 319.271 Q184.914 317.835 181.395 317.835 Q179.474 317.835 177.275 318.252 Q175.076 318.669 172.437 319.548 L172.437 315.382 Q175.099 314.641 177.414 314.271 Q179.752 313.9 181.812 313.9 Q187.136 313.9 190.238 316.331 Q193.34 318.738 193.34 322.858 Q193.34 325.729 191.696 327.72 Q190.053 329.687 187.02 330.451 Z" fill="#000000" fill-rule="nonzero" fill-opacity="1" /><path clip-path="url(#clip410)" d="M203.062 314.525 L221.418 314.525 L221.418 318.46 L207.344 318.46 L207.344 326.933 Q208.363 326.585 209.381 326.423 Q210.4 326.238 211.418 326.238 Q217.205 326.238 220.585 329.409 Q223.965 332.581 223.965 337.997 Q223.965 343.576 220.492 346.678 Q217.02 349.756 210.701 349.756 Q208.525 349.756 206.256 349.386 Q204.011 349.016 201.604 348.275 L201.604 343.576 Q203.687 344.71 205.909 345.266 Q208.131 345.821 210.608 345.821 Q214.613 345.821 216.951 343.715 Q219.289 341.608 219.289 337.997 Q219.289 334.386 216.951 332.28 Q214.613 330.173 210.608 330.173 Q208.733 330.173 206.858 330.59 Q205.006 331.007 203.062 331.886 L203.062 314.525 Z" fill="#000000" fill-rule="nonzero" fill-opacity="1" /><path clip-path="url(#clip410)" d="M243.177 317.604 Q239.566 317.604 237.738 321.169 Q235.932 324.71 235.932 331.84 Q235.932 338.946 237.738 342.511 Q239.566 346.053 243.177 346.053 Q246.812 346.053 248.617 342.511 Q250.446 338.946 250.446 331.84 Q250.446 324.71 248.617 321.169 Q246.812 317.604 243.177 317.604 M243.177 313.9 Q248.988 313.9 252.043 318.507 Q255.122 323.09 255.122 331.84 Q255.122 340.567 252.043 345.173 Q248.988 349.756 243.177 349.756 Q237.367 349.756 234.289 345.173 Q231.233 340.567 231.233 331.84 Q231.233 323.09 234.289 318.507 Q237.367 313.9 243.177 313.9 Z" fill="#000000" fill-rule="nonzero" fill-opacity="1" /><path clip-path="url(#clip410)" d="M291.51 323.622 L280.932 334.247 L291.51 344.826 L288.756 347.627 L278.131 337.002 L267.506 347.627 L264.775 344.826 L275.33 334.247 L264.775 323.622 L267.506 320.821 L278.131 331.446 L288.756 320.821 L291.51 323.622 Z" fill="#000000" fill-rule="nonzero" fill-opacity="1" /><path clip-path="url(#clip410)" d="M303.872 345.15 L311.51 345.15 L311.51 318.784 L303.2 320.451 L303.2 316.192 L311.464 314.525 L316.14 314.525 L316.14 345.15 L323.779 345.15 L323.779 349.085 L303.872 349.085 L303.872 345.15 Z" fill="#000000" fill-rule="nonzero" fill-opacity="1" /><path clip-path="url(#clip410)" d="M343.223 317.604 Q339.612 317.604 337.783 321.169 Q335.978 324.71 335.978 331.84 Q335.978 338.946 337.783 342.511 Q339.612 346.053 343.223 346.053 Q346.857 346.053 348.663 342.511 Q350.492 338.946 350.492 331.84 Q350.492 324.71 348.663 321.169 Q346.857 317.604 343.223 317.604 M343.223 313.9 Q349.033 313.9 352.089 318.507 Q355.168 323.09 355.168 331.84 Q355.168 340.567 352.089 345.173 Q349.033 349.756 343.223 349.756 Q337.413 349.756 334.334 345.173 Q331.279 340.567 331.279 331.84 Q331.279 323.09 334.334 318.507 Q337.413 313.9 343.223 313.9 Z" fill="#000000" fill-rule="nonzero" fill-opacity="1" /><path clip-path="url(#clip410)" d="M355.168 308.002 L379.279 308.002 L379.279 311.199 L355.168 311.199 L355.168 308.002 Z" fill="#000000" fill-rule="nonzero" fill-opacity="1" /><path clip-path="url(#clip410)" d="M387.517 293.595 L402.431 293.595 L402.431 296.792 L390.996 296.792 L390.996 303.676 Q391.824 303.394 392.651 303.262 Q393.479 303.111 394.307 303.111 Q399.008 303.111 401.754 305.688 Q404.5 308.265 404.5 312.666 Q404.5 317.199 401.679 319.719 Q398.858 322.22 393.723 322.22 Q391.956 322.22 390.112 321.919 Q388.288 321.618 386.332 321.016 L386.332 317.199 Q388.025 318.12 389.83 318.571 Q391.636 319.023 393.648 319.023 Q396.902 319.023 398.802 317.311 Q400.701 315.6 400.701 312.666 Q400.701 309.732 398.802 308.02 Q396.902 306.309 393.648 306.309 Q392.125 306.309 390.601 306.647 Q389.097 306.986 387.517 307.701 L387.517 293.595 Z" fill="#000000" fill-rule="nonzero" fill-opacity="1" /><path clip-path="url(#clip410)" d="M60.4144 1131.09 L77.8246 1131.09 L77.8246 1120.78 Q77.8246 1115.59 75.6921 1113.11 Q73.5278 1110.59 69.1036 1110.59 Q64.6476 1110.59 62.5469 1113.11 Q60.4144 1115.59 60.4144 1120.78 L60.4144 1131.09 M40.8717 1131.09 L55.1945 1131.09 L55.1945 1121.57 Q55.1945 1116.86 53.444 1114.57 Q51.6616 1112.25 48.0331 1112.25 Q44.4365 1112.25 42.6541 1114.57 Q40.8717 1116.86 40.8717 1121.57 L40.8717 1131.09 M35.5882 1137.52 L35.5882 1121.09 Q35.5882 1113.74 38.6437 1109.76 Q41.6992 1105.78 47.3329 1105.78 Q51.6934 1105.78 54.2715 1107.82 Q56.8496 1109.86 57.4862 1113.81 Q58.5047 1109.06 61.7512 1106.45 Q64.9659 1103.81 69.8038 1103.81 Q76.1695 1103.81 79.6388 1108.14 Q83.1082 1112.47 83.1082 1120.46 L83.1082 1137.52 L35.5882 1137.52 Z" fill="#000000" fill-rule="nonzero" fill-opacity="1" /><path clip-path="url(#clip410)" d="M77.761 1087.39 L96.6671 1087.39 L96.6671 1093.28 L47.4602 1093.28 L47.4602 1087.39 L52.8711 1087.39 Q49.6882 1085.54 48.1604 1082.74 Q46.6008 1079.91 46.6008 1075.99 Q46.6008 1069.5 51.7571 1065.46 Q56.9133 1061.38 65.316 1061.38 Q73.7187 1061.38 78.875 1065.46 Q84.0312 1069.5 84.0312 1075.99 Q84.0312 1079.91 82.5034 1082.74 Q80.9438 1085.54 77.761 1087.39 M65.316 1067.46 Q58.8548 1067.46 55.1945 1070.14 Q51.5024 1072.78 51.5024 1077.43 Q51.5024 1082.07 55.1945 1084.75 Q58.8548 1087.39 65.316 1087.39 Q71.7772 1087.39 75.4693 1084.75 Q79.1296 1082.07 79.1296 1077.43 Q79.1296 1072.78 75.4693 1070.14 Q71.7772 1067.46 65.316 1067.46 Z" fill="#000000" fill-rule="nonzero" fill-opacity="1" /><path clip-path="url(#clip410)" d="M63.8201 1021.18 L66.6846 1021.18 L66.6846 1048.11 Q72.7321 1047.73 75.9149 1044.48 Q79.0659 1041.2 79.0659 1035.38 Q79.0659 1032.01 78.2384 1028.86 Q77.4109 1025.67 75.7558 1022.55 L81.2939 1022.55 Q82.6307 1025.7 83.331 1029.01 Q84.0312 1032.32 84.0312 1035.73 Q84.0312 1044.26 79.0659 1049.26 Q74.1007 1054.22 65.6343 1054.22 Q56.8814 1054.22 51.7571 1049.51 Q46.6008 1044.77 46.6008 1036.75 Q46.6008 1029.56 51.2478 1025.39 Q55.8629 1021.18 63.8201 1021.18 M62.1013 1027.04 Q57.2952 1027.1 54.4306 1029.75 Q51.5661 1032.36 51.5661 1036.68 Q51.5661 1041.59 54.3352 1044.55 Q57.1042 1047.47 62.1332 1047.92 L62.1013 1027.04 Z" fill="#000000" fill-rule="nonzero" fill-opacity="1" /><path clip-path="url(#clip410)" d="M47.4602 1011.79 L47.4602 1003.23 L71.3316 993.112 L47.4602 982.958 L47.4602 974.46 L83.1082 974.46 L83.1082 980.348 L53.062 980.348 L76.265 990.183 L76.265 996.04 L53.062 1005.91 L83.1082 1005.91 L83.1082 1011.79 L47.4602 1011.79 Z" fill="#000000" fill-rule="nonzero" fill-opacity="1" /><path clip-path="url(#clip410)" d="M57.7408 956.509 Q60.3826 956.509 61.8785 954.472 Q63.3745 952.435 63.3745 948.647 L63.3745 940.754 L52.139 940.754 L52.139 948.647 Q52.139 952.435 53.6031 954.472 Q55.0672 956.509 57.7408 956.509 M83.1082 964.848 L67.4803 953.963 Q66.6528 957.655 64.4885 960.105 Q62.2923 962.556 57.7408 962.556 Q52.5846 962.556 50.0383 959.151 Q47.4602 955.713 47.4602 948.806 L47.4602 934.865 L83.1082 934.865 L83.1082 940.754 L68.0533 940.754 L68.0533 948.042 L83.1082 958.546 L83.1082 964.848 Z" fill="#000000" fill-rule="nonzero" fill-opacity="1" /><path clip-path="url(#clip410)" d="M66.6846 896.83 L78.4294 896.83 L78.4294 888.491 Q78.4294 884.481 76.9334 882.38 Q75.4057 880.28 72.5411 880.28 Q69.6765 880.28 68.1806 882.38 Q66.6846 884.481 66.6846 888.491 L66.6846 896.83 M52.139 896.83 L62.0058 896.83 L62.0058 889.128 Q62.0058 885.818 60.7009 883.717 Q59.3641 881.616 57.0088 881.616 Q54.6534 881.616 53.4121 883.717 Q52.139 885.818 52.139 889.128 L52.139 896.83 M47.4602 902.687 L47.4602 888.746 Q47.4602 882.476 49.7519 879.102 Q52.0435 875.728 56.2767 875.728 Q59.555 875.728 61.4966 877.447 Q63.4063 879.166 63.8837 882.539 Q64.6476 878.497 67.0666 876.269 Q69.4855 874.041 73.114 874.041 Q77.8883 874.041 80.4982 877.733 Q83.1082 881.393 83.1082 888.205 L83.1082 902.687 L47.4602 902.687 Z" fill="#000000" fill-rule="nonzero" fill-opacity="1" /><path clip-path="url(#clip410)" d="M47.4602 830.372 L47.4602 824.516 L83.1082 824.516 L83.1082 830.372 L47.4602 830.372 M46.6008 827.444 L46.6008 827.444 M72.5411 841.862 Q69.6765 841.862 68.1806 843.963 Q66.6846 846.032 66.6846 850.042 L66.6846 858.381 L78.4294 858.381 L78.4294 850.042 Q78.4294 846.032 76.9334 843.963 Q75.4057 841.862 72.5411 841.862 M47.4602 864.27 L47.4602 858.381 L62.0058 858.381 L62.0058 849.788 Q62.0058 842.976 64.6158 839.316 Q67.1939 835.624 72.5411 835.624 Q77.8883 835.624 80.4982 839.316 Q83.1082 842.976 83.1082 849.788 L83.1082 864.27 L47.4602 864.27 Z" fill="#000000" fill-rule="nonzero" fill-opacity="1" /><path clip-path="url(#clip410)" d="M83.1082 791.987 L68.1169 791.987 L68.1169 802.904 Q68.1169 807.774 65.0932 811.021 Q62.356 813.949 56.4995 813.949 L47.4602 813.949 L47.4602 808.092 L55.9584 808.092 Q59.6824 808.092 61.5602 806.437 Q63.4381 804.75 63.4381 801.44 L63.4381 791.987 L47.4602 791.987 L47.4602 786.131 L83.1082 786.131 L83.1082 791.987 Z" fill="#000000" fill-rule="nonzero" fill-opacity="1" /><path clip-path="url(#clip410)" d="M47.4602 743.767 L83.1082 743.767 L83.1082 749.592 L54.4943 749.592 L83.1082 766.779 L83.1082 774.29 L47.4602 774.29 L47.4602 768.466 L76.0104 768.466 L47.4602 751.31 L47.4602 743.767 Z" fill="#000000" fill-rule="nonzero" fill-opacity="1" /><path clip-path="url(#clip410)" d="M48.8288 706.05 L54.3033 706.05 Q52.9347 708.533 52.2663 711.047 Q51.5661 713.53 51.5661 716.076 Q51.5661 721.773 55.1945 724.924 Q58.7912 728.075 65.316 728.075 Q71.8409 728.075 75.4693 724.924 Q79.0659 721.773 79.0659 716.076 Q79.0659 713.53 78.3975 711.047 Q77.6973 708.533 76.3287 706.05 L81.7395 706.05 Q82.8854 708.501 83.4583 711.143 Q84.0312 713.753 84.0312 716.713 Q84.0312 724.765 78.9704 729.508 Q73.9097 734.25 65.316 734.25 Q56.595 734.25 51.5979 729.476 Q46.6008 724.67 46.6008 716.331 Q46.6008 713.625 47.1737 711.047 Q47.7148 708.469 48.8288 706.05 Z" fill="#000000" fill-rule="nonzero" fill-opacity="1" /><path clip-path="url(#clip410)" d="M83.1082 699.589 L78.2384 699.589 Q77.3472 693.796 73.3368 692.014 Q67.7031 689.849 53.2848 689.849 L47.4602 689.849 L47.4602 665.755 L83.1082 665.755 L83.1082 671.612 L52.139 671.612 L52.139 683.993 L55.672 683.993 Q69.4219 683.993 75.5966 686.794 Q82.1851 689.786 83.1082 699.589 Z" fill="#000000" fill-rule="nonzero" fill-opacity="1" /><path clip-path="url(#clip410)" d="M63.8201 623.71 L66.6846 623.71 L66.6846 650.637 Q72.7321 650.255 75.9149 647.008 Q79.0659 643.73 79.0659 637.905 Q79.0659 634.531 78.2384 631.38 Q77.4109 628.198 75.7558 625.078 L81.2939 625.078 Q82.6307 628.229 83.331 631.54 Q84.0312 634.85 84.0312 638.255 Q84.0312 646.785 79.0659 651.782 Q74.1007 656.748 65.6343 656.748 Q56.8814 656.748 51.7571 652.037 Q46.6008 647.295 46.6008 639.274 Q46.6008 632.081 51.2478 627.911 Q55.8629 623.71 63.8201 623.71 M62.1013 629.566 Q57.2952 629.63 54.4306 632.272 Q51.5661 634.882 51.5661 639.21 Q51.5661 644.112 54.3352 647.072 Q57.1042 650 62.1332 650.446 L62.1013 629.566 Z" fill="#000000" fill-rule="nonzero" fill-opacity="1" /><path clip-path="url(#clip410)" d="M47.4602 614.32 L47.4602 608.432 L62.0058 608.432 L62.0058 589.43 L47.4602 589.43 L47.4602 583.542 L83.1082 583.542 L83.1082 589.43 L66.6846 589.43 L66.6846 608.432 L83.1082 608.432 L83.1082 614.32 L47.4602 614.32 Z" fill="#000000" fill-rule="nonzero" fill-opacity="1" /><path clip-path="url(#clip410)" d="M47.4602 541.178 L83.1082 541.178 L83.1082 547.003 L54.4943 547.003 L83.1082 564.19 L83.1082 571.702 L47.4602 571.702 L47.4602 565.877 L76.0104 565.877 L47.4602 548.722 L47.4602 541.178 Z" fill="#000000" fill-rule="nonzero" fill-opacity="1" /><path clip-path="url(#clip410)" d="M57.7408 523.227 Q60.3826 523.227 61.8785 521.19 Q63.3745 519.153 63.3745 515.365 L63.3745 507.472 L52.139 507.472 L52.139 515.365 Q52.139 519.153 53.6031 521.19 Q55.0672 523.227 57.7408 523.227 M83.1082 531.566 L67.4803 520.681 Q66.6528 524.373 64.4885 526.824 Q62.2923 529.274 57.7408 529.274 Q52.5846 529.274 50.0383 525.869 Q47.4602 522.431 47.4602 515.525 L47.4602 501.584 L83.1082 501.584 L83.1082 507.472 L68.0533 507.472 L68.0533 514.761 L83.1082 525.264 L83.1082 531.566 Z" fill="#000000" fill-rule="nonzero" fill-opacity="1" /><path clip-path="url(#clip410)" d="M75.0237 488.407 L75.0237 481.691 L80.4982 481.691 L90.6833 486.911 L90.6833 491.017 L80.4982 488.407 L75.0237 488.407 Z" fill="#000000" fill-rule="nonzero" fill-opacity="1" /><path clip-path="url(#clip410)" d="M48.8288 422.808 L54.3033 422.808 Q52.9347 425.291 52.2663 427.805 Q51.5661 430.288 51.5661 432.834 Q51.5661 438.531 55.1945 441.682 Q58.7912 444.833 65.316 444.833 Q71.8409 444.833 75.4693 441.682 Q79.0659 438.531 79.0659 432.834 Q79.0659 430.288 78.3975 427.805 Q77.6973 425.291 76.3287 422.808 L81.7395 422.808 Q82.8854 425.259 83.4583 427.901 Q84.0312 430.51 84.0312 433.471 Q84.0312 441.523 78.9704 446.266 Q73.9097 451.008 65.316 451.008 Q56.595 451.008 51.5979 446.234 Q46.6008 441.428 46.6008 433.089 Q46.6008 430.383 47.1737 427.805 Q47.7148 425.227 48.8288 422.808 Z" fill="#000000" fill-rule="nonzero" fill-opacity="1" /><path clip-path="url(#clip410)" d="M63.8201 382.131 L66.6846 382.131 L66.6846 409.058 Q72.7321 408.676 75.9149 405.43 Q79.0659 402.151 79.0659 396.327 Q79.0659 392.953 78.2384 389.802 Q77.4109 386.619 75.7558 383.5 L81.2939 383.5 Q82.6307 386.651 83.331 389.961 Q84.0312 393.271 84.0312 396.677 Q84.0312 405.207 79.0659 410.204 Q74.1007 415.169 65.6343 415.169 Q56.8814 415.169 51.7571 410.459 Q46.6008 405.716 46.6008 397.695 Q46.6008 390.502 51.2478 386.332 Q55.8629 382.131 63.8201 382.131 M62.1013 387.988 Q57.2952 388.051 54.4306 390.693 Q51.5661 393.303 51.5661 397.632 Q51.5661 402.533 54.3352 405.493 Q57.1042 408.421 62.1332 408.867 L62.1013 387.988 Z" fill="#000000" fill-rule="nonzero" fill-opacity="1" /><path clip-path="url(#clip410)" d="M47.4602 372.742 L47.4602 366.917 L64.202 366.917 L47.4602 350.398 L47.4602 343.205 L61.242 356.827 L83.1082 341.454 L83.1082 348.011 L65.125 360.647 L71.4907 366.917 L83.1082 366.917 L83.1082 372.742 L47.4602 372.742 Z" fill="#000000" fill-rule="nonzero" fill-opacity="1" /><path clip-path="url(#clip410)" d="M315.342 11.0023 Q325.307 11.0023 331.626 15.2557 Q337.946 19.4686 337.946 26.6793 Q337.946 31.7024 335.07 35.1862 Q332.193 38.6294 326.887 39.9662 Q332.761 41.222 336.042 45.1919 Q339.364 49.1618 339.364 54.9951 Q339.364 64.3122 332.153 69.0517 Q324.983 73.7508 315.342 73.7508 Q310.4 73.7508 304.647 72.414 Q298.895 71.0772 297.113 69.9429 L297.113 61.517 Q303.31 65.1223 306.713 66.0135 Q310.156 66.8642 315.18 66.8642 Q322.795 66.8642 327.008 63.9476 Q331.221 61.0309 331.221 54.9951 Q331.221 49.6479 327.454 46.6502 Q323.727 43.612 315.828 43.612 L307.564 43.612 L307.564 36.8875 L316.152 36.8875 Q323.403 36.8875 326.603 34.4975 Q329.803 32.067 329.803 27.5299 Q329.803 22.8714 326.482 20.4004 Q323.2 17.8888 315.18 17.8888 Q309.751 17.8888 307.888 18.3749 Q306.025 18.861 297.72 21.9802 L297.72 13.9999 Q302.298 12.3796 307.078 11.6909 Q311.858 11.0023 315.342 11.0023 Z" fill="#000000" fill-rule="nonzero" fill-opacity="1" /><path clip-path="url(#clip410)" d="M373.27 49.7694 Q364.236 49.7694 360.752 51.8354 Q357.268 53.9013 357.268 58.8839 Q357.268 62.8538 359.861 65.2034 Q362.494 67.5124 366.991 67.5124 Q373.189 67.5124 376.915 63.1374 Q380.683 58.7219 380.683 51.4303 L380.683 49.7694 L373.27 49.7694 M388.136 46.6907 L388.136 72.576 L380.683 72.576 L380.683 65.6895 Q378.131 69.8214 374.323 71.8063 Q370.515 73.7508 365.006 73.7508 Q358.038 73.7508 353.906 69.8619 Q349.815 65.9325 349.815 59.3701 Q349.815 51.7138 354.919 47.825 Q360.064 43.9361 370.231 43.9361 L380.683 43.9361 L380.683 43.2069 Q380.683 38.0623 377.28 35.2672 Q373.918 32.4315 367.801 32.4315 Q363.912 32.4315 360.226 33.3632 Q356.539 34.295 353.137 36.1584 L353.137 29.2718 Q357.228 27.692 361.076 26.9223 Q364.925 26.1121 368.571 26.1121 Q378.414 26.1121 383.275 31.2163 Q388.136 36.3204 388.136 46.6907 Z" fill="#000000" fill-rule="nonzero" fill-opacity="1" /><path clip-path="url(#clip410)" d="M410.659 51.6733 L410.659 66.6212 L421.273 66.6212 Q426.377 66.6212 429.051 64.7172 Q431.724 62.7728 431.724 59.127 Q431.724 55.4812 429.051 53.5773 Q426.377 51.6733 421.273 51.6733 L410.659 51.6733 M410.659 33.1607 L410.659 45.7185 L420.463 45.7185 Q424.676 45.7185 427.349 44.0576 Q430.023 42.3563 430.023 39.3586 Q430.023 36.3609 427.349 34.7811 Q424.676 33.1607 420.463 33.1607 L410.659 33.1607 M403.206 27.2059 L420.949 27.2059 Q428.929 27.2059 433.223 30.1225 Q437.517 33.0392 437.517 38.4269 Q437.517 42.5993 435.329 45.0704 Q433.142 47.5009 428.848 48.1085 Q433.993 49.0808 436.828 52.1594 Q439.664 55.2381 439.664 59.8562 Q439.664 65.9325 434.965 69.2543 Q430.306 72.576 421.637 72.576 L403.206 72.576 L403.206 27.2059 Z" fill="#000000" fill-rule="nonzero" fill-opacity="1" /><path clip-path="url(#clip410)" d="M490.948 27.2059 L490.948 72.576 L483.535 72.576 L483.535 36.1584 L461.66 72.576 L452.1 72.576 L452.1 27.2059 L459.513 27.2059 L459.513 63.5425 L481.348 27.2059 L490.948 27.2059 Z" fill="#000000" fill-rule="nonzero" fill-opacity="1" /><path clip-path="url(#clip410)" d="M538.952 28.9478 L538.952 35.9153 Q535.792 34.1734 532.592 33.3227 Q529.432 32.4315 526.191 32.4315 Q518.94 32.4315 514.93 37.0496 Q510.919 41.6271 510.919 49.9314 Q510.919 58.2358 514.93 62.8538 Q518.94 67.4314 526.191 67.4314 Q529.432 67.4314 532.592 66.5807 Q535.792 65.6895 538.952 63.9476 L538.952 70.8341 Q535.832 72.2924 532.47 73.0216 Q529.148 73.7508 525.381 73.7508 Q515.132 73.7508 509.096 67.3098 Q503.061 60.8689 503.061 49.9314 Q503.061 38.832 509.137 32.472 Q515.254 26.1121 525.867 26.1121 Q529.31 26.1121 532.592 26.8413 Q535.873 27.5299 538.952 28.9478 Z" fill="#000000" fill-rule="nonzero" fill-opacity="1" /><path clip-path="url(#clip410)" d="M590.479 27.2059 L590.479 72.576 L583.066 72.576 L583.066 36.1584 L561.191 72.576 L551.631 72.576 L551.631 27.2059 L559.044 27.2059 L559.044 63.5425 L580.878 27.2059 L590.479 27.2059 Z" fill="#000000" fill-rule="nonzero" fill-opacity="1" /><path clip-path="url(#clip410)" d="M605.548 27.2059 L616.445 27.2059 L629.327 57.5877 L642.25 27.2059 L653.066 27.2059 L653.066 72.576 L645.571 72.576 L645.571 34.3355 L633.054 63.8666 L625.6 63.8666 L613.043 34.3355 L613.043 72.576 L605.548 72.576 L605.548 27.2059 Z" fill="#000000" fill-rule="nonzero" fill-opacity="1" /><path clip-path="url(#clip410)" d="M685.999 32.4315 Q680.004 32.4315 676.52 37.1306 Q673.036 41.7891 673.036 49.9314 Q673.036 58.0738 676.48 62.7728 Q679.964 67.4314 685.999 67.4314 Q691.954 67.4314 695.438 62.7323 Q698.922 58.0333 698.922 49.9314 Q698.922 41.8701 695.438 37.1711 Q691.954 32.4315 685.999 32.4315 M685.999 26.1121 Q695.722 26.1121 701.271 32.4315 Q706.821 38.7509 706.821 49.9314 Q706.821 61.0714 701.271 67.4314 Q695.722 73.7508 685.999 73.7508 Q676.237 73.7508 670.687 67.4314 Q665.178 61.0714 665.178 49.9314 Q665.178 38.7509 670.687 32.4315 Q676.237 26.1121 685.999 26.1121 Z" fill="#000000" fill-rule="nonzero" fill-opacity="1" /><path clip-path="url(#clip410)" d="M751.827 28.9478 L751.827 35.9153 Q748.667 34.1734 745.467 33.3227 Q742.307 32.4315 739.066 32.4315 Q731.815 32.4315 727.805 37.0496 Q723.794 41.6271 723.794 49.9314 Q723.794 58.2358 727.805 62.8538 Q731.815 67.4314 739.066 67.4314 Q742.307 67.4314 745.467 66.5807 Q748.667 65.6895 751.827 63.9476 L751.827 70.8341 Q748.707 72.2924 745.345 73.0216 Q742.023 73.7508 738.256 73.7508 Q728.007 73.7508 721.971 67.3098 Q715.936 60.8689 715.936 49.9314 Q715.936 38.832 722.012 32.472 Q728.129 26.1121 738.742 26.1121 Q742.185 26.1121 745.467 26.8413 Q748.748 27.5299 751.827 28.9478 Z" fill="#000000" fill-rule="nonzero" fill-opacity="1" /><path clip-path="url(#clip410)" d="M759.402 27.2059 L802.868 27.2059 L802.868 33.1607 L784.801 33.1607 L784.801 72.576 L777.469 72.576 L777.469 33.1607 L759.402 33.1607 L759.402 27.2059 Z" fill="#000000" fill-rule="nonzero" fill-opacity="1" /><path clip-path="url(#clip410)" d="M841.352 59.127 Q841.352 55.4812 838.678 53.5773 Q836.045 51.6733 830.941 51.6733 L820.327 51.6733 L820.327 66.6212 L830.941 66.6212 Q836.045 66.6212 838.678 64.7172 Q841.352 62.7728 841.352 59.127 M812.833 27.2059 L820.327 27.2059 L820.327 45.7185 L831.265 45.7185 Q839.934 45.7185 844.592 49.0402 Q849.291 52.3215 849.291 59.127 Q849.291 65.9325 844.592 69.2543 Q839.934 72.576 831.265 72.576 L812.833 72.576 L812.833 27.2059 Z" fill="#000000" fill-rule="nonzero" fill-opacity="1" /><path clip-path="url(#clip410)" d="M895.553 51.6733 L895.553 66.6212 L906.166 66.6212 Q911.27 66.6212 913.944 64.7172 Q916.617 62.7728 916.617 59.127 Q916.617 55.4812 913.944 53.5773 Q911.27 51.6733 906.166 51.6733 L895.553 51.6733 M895.553 33.1607 L895.553 45.7185 L905.356 45.7185 Q909.569 45.7185 912.242 44.0576 Q914.916 42.3563 914.916 39.3586 Q914.916 36.3609 912.242 34.7811 Q909.569 33.1607 905.356 33.1607 L895.553 33.1607 M888.099 27.2059 L905.842 27.2059 Q913.822 27.2059 918.116 30.1225 Q922.41 33.0392 922.41 38.4269 Q922.41 42.5993 920.223 45.0704 Q918.035 47.5009 913.741 48.1085 Q918.886 49.0808 921.721 52.1594 Q924.557 55.2381 924.557 59.8562 Q924.557 65.9325 919.858 69.2543 Q915.2 72.576 906.531 72.576 L888.099 72.576 L888.099 27.2059 Z" fill="#000000" fill-rule="nonzero" fill-opacity="1" /><path clip-path="url(#clip410)" d="M944.488 65.7705 L944.488 89.8329 L936.993 89.8329 L936.993 27.2059 L944.488 27.2059 L944.488 34.0924 Q946.837 30.0415 950.402 28.0971 Q954.007 26.1121 958.99 26.1121 Q967.254 26.1121 972.398 32.6746 Q977.583 39.2371 977.583 49.9314 Q977.583 60.6258 972.398 67.1883 Q967.254 73.7508 958.99 73.7508 Q954.007 73.7508 950.402 71.8063 Q946.837 69.8214 944.488 65.7705 M969.846 49.9314 Q969.846 41.7081 966.443 37.0496 Q963.081 32.3505 957.167 32.3505 Q951.253 32.3505 947.85 37.0496 Q944.488 41.7081 944.488 49.9314 Q944.488 58.1548 947.85 62.8538 Q951.253 67.5124 957.167 67.5124 Q963.081 67.5124 966.443 62.8538 Q969.846 58.1548 969.846 49.9314 Z" fill="#000000" fill-rule="nonzero" fill-opacity="1" /><path clip-path="url(#clip410)" d="M1028.75 48.0275 L1028.75 51.6733 L994.476 51.6733 Q994.962 59.3701 999.094 63.421 Q1003.27 67.4314 1010.68 67.4314 Q1014.97 67.4314 1018.98 66.3781 Q1023.03 65.3249 1027 63.2184 L1027 70.267 Q1022.99 71.9684 1018.78 72.8596 Q1014.57 73.7508 1010.23 73.7508 Q999.377 73.7508 993.017 67.4314 Q986.698 61.1119 986.698 50.3365 Q986.698 39.1965 992.693 32.6746 Q998.729 26.1121 1008.94 26.1121 Q1018.09 26.1121 1023.4 32.0264 Q1028.75 37.9003 1028.75 48.0275 M1021.29 45.84 Q1021.21 39.7232 1017.85 36.0774 Q1014.53 32.4315 1009.02 32.4315 Q1002.78 32.4315 999.013 35.9558 Q995.286 39.4801 994.719 45.8805 L1021.29 45.84 Z" fill="#000000" fill-rule="nonzero" fill-opacity="1" /><path clip-path="url(#clip410)" d="M1040.7 27.2059 L1051.59 27.2059 L1064.48 57.5877 L1077.4 27.2059 L1088.21 27.2059 L1088.21 72.576 L1080.72 72.576 L1080.72 34.3355 L1068.2 63.8666 L1060.75 63.8666 L1048.19 34.3355 L1048.19 72.576 L1040.7 72.576 L1040.7 27.2059 Z" fill="#000000" fill-rule="nonzero" fill-opacity="1" /><path clip-path="url(#clip410)" d="M1142.37 48.0275 L1142.37 51.6733 L1108.1 51.6733 Q1108.59 59.3701 1112.72 63.421 Q1116.89 67.4314 1124.31 67.4314 Q1128.6 67.4314 1132.61 66.3781 Q1136.66 65.3249 1140.63 63.2184 L1140.63 70.267 Q1136.62 71.9684 1132.41 72.8596 Q1128.2 73.7508 1123.86 73.7508 Q1113.01 73.7508 1106.65 67.4314 Q1100.33 61.1119 1100.33 50.3365 Q1100.33 39.1965 1106.32 32.6746 Q1112.36 26.1121 1122.57 26.1121 Q1131.72 26.1121 1137.03 32.0264 Q1142.37 37.9003 1142.37 48.0275 M1134.92 45.84 Q1134.84 39.7232 1131.48 36.0774 Q1128.16 32.4315 1122.65 32.4315 Q1116.41 32.4315 1112.64 35.9558 Q1108.91 39.4801 1108.35 45.8805 L1134.92 45.84 Z" fill="#000000" fill-rule="nonzero" fill-opacity="1" /><path clip-path="url(#clip410)" d="M1154.32 27.2059 L1161.82 27.2059 L1161.82 45.7185 L1186 45.7185 L1186 27.2059 L1193.5 27.2059 L1193.5 72.576 L1186 72.576 L1186 51.6733 L1161.82 51.6733 L1161.82 72.576 L1154.32 72.576 L1154.32 27.2059 Z" fill="#000000" fill-rule="nonzero" fill-opacity="1" /><path clip-path="url(#clip410)" d="M1247.41 27.2059 L1247.41 72.576 L1240 72.576 L1240 36.1584 L1218.13 72.576 L1208.57 72.576 L1208.57 27.2059 L1215.98 27.2059 L1215.98 63.5425 L1237.81 27.2059 L1247.41 27.2059 Z" fill="#000000" fill-rule="nonzero" fill-opacity="1" /><path clip-path="url(#clip410)" d="M1296.31 51.6733 L1296.31 66.6212 L1306.92 66.6212 Q1312.03 66.6212 1314.7 64.7172 Q1317.37 62.7728 1317.37 59.127 Q1317.37 55.4812 1314.7 53.5773 Q1312.03 51.6733 1306.92 51.6733 L1296.31 51.6733 M1296.31 33.1607 L1296.31 45.7185 L1306.11 45.7185 Q1310.32 45.7185 1313 44.0576 Q1315.67 42.3563 1315.67 39.3586 Q1315.67 36.3609 1313 34.7811 Q1310.32 33.1607 1306.11 33.1607 L1296.31 33.1607 M1288.85 27.2059 L1306.6 27.2059 Q1314.58 27.2059 1318.87 30.1225 Q1323.17 33.0392 1323.17 38.4269 Q1323.17 42.5993 1320.98 45.0704 Q1318.79 47.5009 1314.5 48.1085 Q1319.64 49.0808 1322.48 52.1594 Q1325.31 55.2381 1325.31 59.8562 Q1325.31 65.9325 1320.61 69.2543 Q1315.96 72.576 1307.29 72.576 L1288.85 72.576 L1288.85 27.2059 Z" fill="#000000" fill-rule="nonzero" fill-opacity="1" /><path clip-path="url(#clip410)" d="M1380.89 27.2059 L1388.35 27.2059 L1388.35 72.576 L1380.89 72.576 L1380.89 27.2059 M1384.62 26.1121 L1384.62 26.1121 M1366.27 59.127 Q1366.27 55.4812 1363.59 53.5773 Q1360.96 51.6733 1355.86 51.6733 L1345.24 51.6733 L1345.24 66.6212 L1355.86 66.6212 Q1360.96 66.6212 1363.59 64.7172 Q1366.27 62.7728 1366.27 59.127 M1337.75 27.2059 L1345.24 27.2059 L1345.24 45.7185 L1356.18 45.7185 Q1364.85 45.7185 1369.51 49.0402 Q1374.21 52.3215 1374.21 59.127 Q1374.21 65.9325 1369.51 69.2543 Q1364.85 72.576 1356.18 72.576 L1337.75 72.576 L1337.75 27.2059 Z" fill="#000000" fill-rule="nonzero" fill-opacity="1" /><path clip-path="url(#clip410)" d="M1429.75 72.576 L1429.75 53.4962 L1415.85 53.4962 Q1409.65 53.4962 1405.52 49.6479 Q1401.79 46.1641 1401.79 38.7104 L1401.79 27.2059 L1409.25 27.2059 L1409.25 38.0218 Q1409.25 42.7613 1411.35 45.1514 Q1413.5 47.5414 1417.71 47.5414 L1429.75 47.5414 L1429.75 27.2059 L1437.2 27.2059 L1437.2 72.576 L1429.75 72.576 Z" fill="#000000" fill-rule="nonzero" fill-opacity="1" /><path clip-path="url(#clip410)" d="M1491.12 27.2059 L1491.12 72.576 L1483.7 72.576 L1483.7 36.1584 L1461.83 72.576 L1452.27 72.576 L1452.27 27.2059 L1459.68 27.2059 L1459.68 63.5425 L1481.52 27.2059 L1491.12 27.2059 Z" fill="#000000" fill-rule="nonzero" fill-opacity="1" /><path clip-path="url(#clip410)" d="M1539.12 28.9478 L1539.12 35.9153 Q1535.96 34.1734 1532.76 33.3227 Q1529.6 32.4315 1526.36 32.4315 Q1519.11 32.4315 1515.1 37.0496 Q1511.09 41.6271 1511.09 49.9314 Q1511.09 58.2358 1515.1 62.8538 Q1519.11 67.4314 1526.36 67.4314 Q1529.6 67.4314 1532.76 66.5807 Q1535.96 65.6895 1539.12 63.9476 L1539.12 70.8341 Q1536 72.2924 1532.64 73.0216 Q1529.32 73.7508 1525.55 73.7508 Q1515.3 73.7508 1509.26 67.3098 Q1503.23 60.8689 1503.23 49.9314 Q1503.23 38.832 1509.31 32.472 Q1515.42 26.1121 1526.04 26.1121 Q1529.48 26.1121 1532.76 26.8413 Q1536.04 27.5299 1539.12 28.9478 Z" fill="#000000" fill-rule="nonzero" fill-opacity="1" /><path clip-path="url(#clip410)" d="M1547.34 72.576 L1547.34 66.3781 Q1554.72 65.2439 1556.98 60.1397 Q1559.74 52.9696 1559.74 34.619 L1559.74 27.2059 L1590.4 27.2059 L1590.4 72.576 L1582.95 72.576 L1582.95 33.1607 L1567.19 33.1607 L1567.19 37.6572 Q1567.19 55.1571 1563.63 63.0159 Q1559.82 71.4012 1547.34 72.576 Z" fill="#000000" fill-rule="nonzero" fill-opacity="1" /><path clip-path="url(#clip410)" d="M1643.92 48.0275 L1643.92 51.6733 L1609.65 51.6733 Q1610.13 59.3701 1614.26 63.421 Q1618.44 67.4314 1625.85 67.4314 Q1630.14 67.4314 1634.15 66.3781 Q1638.2 65.3249 1642.17 63.2184 L1642.17 70.267 Q1638.16 71.9684 1633.95 72.8596 Q1629.74 73.7508 1625.4 73.7508 Q1614.55 73.7508 1608.19 67.4314 Q1601.87 61.1119 1601.87 50.3365 Q1601.87 39.1965 1607.86 32.6746 Q1613.9 26.1121 1624.11 26.1121 Q1633.26 26.1121 1638.57 32.0264 Q1643.92 37.9003 1643.92 48.0275 M1636.46 45.84 Q1636.38 39.7232 1633.02 36.0774 Q1629.7 32.4315 1624.19 32.4315 Q1617.95 32.4315 1614.18 35.9558 Q1610.46 39.4801 1609.89 45.8805 L1636.46 45.84 Z" fill="#000000" fill-rule="nonzero" fill-opacity="1" /><path clip-path="url(#clip410)" d="M1655.87 27.2059 L1663.36 27.2059 L1663.36 45.7185 L1687.54 45.7185 L1687.54 27.2059 L1695.04 27.2059 L1695.04 72.576 L1687.54 72.576 L1687.54 51.6733 L1663.36 51.6733 L1663.36 72.576 L1655.87 72.576 L1655.87 27.2059 Z" fill="#000000" fill-rule="nonzero" fill-opacity="1" /><path clip-path="url(#clip410)" d="M1748.96 27.2059 L1748.96 72.576 L1741.54 72.576 L1741.54 36.1584 L1719.67 72.576 L1710.11 72.576 L1710.11 27.2059 L1717.52 27.2059 L1717.52 63.5425 L1739.36 27.2059 L1748.96 27.2059 Z" fill="#000000" fill-rule="nonzero" fill-opacity="1" /><path clip-path="url(#clip410)" d="M1771.8 40.2903 Q1771.8 43.6525 1774.4 45.5565 Q1776.99 47.4604 1781.81 47.4604 L1791.86 47.4604 L1791.86 33.1607 L1781.81 33.1607 Q1776.99 33.1607 1774.4 35.0241 Q1771.8 36.8875 1771.8 40.2903 M1761.19 72.576 L1775.04 52.6861 Q1770.35 51.6328 1767.23 48.8782 Q1764.11 46.0831 1764.11 40.2903 Q1764.11 33.7278 1768.44 30.4871 Q1772.82 27.2059 1781.61 27.2059 L1799.35 27.2059 L1799.35 72.576 L1791.86 72.576 L1791.86 53.4152 L1782.58 53.4152 L1769.21 72.576 L1761.19 72.576 Z" fill="#000000" fill-rule="nonzero" fill-opacity="1" /><path clip-path="url(#clip410)" d="M1858.17 32.4315 Q1852.17 32.4315 1848.69 37.1306 Q1845.21 41.7891 1845.21 49.9314 Q1845.21 58.0738 1848.65 62.7728 Q1852.13 67.4314 1858.17 67.4314 Q1864.12 67.4314 1867.61 62.7323 Q1871.09 58.0333 1871.09 49.9314 Q1871.09 41.8701 1867.61 37.1711 Q1864.12 32.4315 1858.17 32.4315 M1858.17 26.1121 Q1867.89 26.1121 1873.44 32.4315 Q1878.99 38.7509 1878.99 49.9314 Q1878.99 61.0714 1873.44 67.4314 Q1867.89 73.7508 1858.17 73.7508 Q1848.41 73.7508 1842.86 67.4314 Q1837.35 61.0714 1837.35 49.9314 Q1837.35 38.7509 1842.86 32.4315 Q1848.41 26.1121 1858.17 26.1121 Z" fill="#000000" fill-rule="nonzero" fill-opacity="1" /><path clip-path="url(#clip410)" d="M1885.96 27.2059 L1929.42 27.2059 L1929.42 33.1607 L1911.36 33.1607 L1911.36 72.576 L1904.03 72.576 L1904.03 33.1607 L1885.96 33.1607 L1885.96 27.2059 Z" fill="#000000" fill-rule="nonzero" fill-opacity="1" /><path clip-path="url(#clip410)" d="M1992.5 51.4708 L1990.71 42.1132 Q1988.89 32.5126 1981.68 32.5126 Q1976.25 32.5126 1973.78 36.9686 Q1970.66 42.5588 1970.66 49.9314 Q1970.66 58.8434 1973.7 63.0969 Q1976.78 67.4314 1981.68 67.4314 Q1987.11 67.4314 1990.03 58.8029 L1992.5 51.4708 M1996.67 39.075 L2000.68 27.2059 L2007.32 27.2059 L1999.02 51.7949 L2000.64 60.6663 Q2001 62.6513 2002.42 64.3122 Q2004.08 66.2566 2005.38 66.2566 L2008.94 66.2566 L2008.94 72.576 L2004.49 72.576 Q2000.68 72.576 1997.28 69.1732 Q1995.62 67.4719 1994.93 63.9071 Q1993.06 68.4036 1989.26 71.9279 Q1987.47 73.5887 1981.68 73.5887 Q1972.16 73.5887 1967.54 67.4314 Q1962.8 61.0714 1962.8 49.9314 Q1962.8 38.0218 1967.95 32.4315 Q1973.66 26.1931 1981.68 26.1931 Q1994.28 26.1931 1996.67 39.075 Z" fill="#000000" fill-rule="nonzero" fill-opacity="1" /><circle clip-path="url(#clip412)" cx="474.04" cy="1309.22" r="28.8" fill="#008000" fill-rule="evenodd" fill-opacity="1" stroke="#000000" stroke-opacity="1" stroke-width="3.072"/>
<circle clip-path="url(#clip412)" cx="775.812" cy="996.299" r="28.8" fill="#008000" fill-rule="evenodd" fill-opacity="1" stroke="#000000" stroke-opacity="1" stroke-width="3.072"/>
<circle clip-path="url(#clip412)" cx="1077.58" cy="728.692" r="28.8" fill="#008000" fill-rule="evenodd" fill-opacity="1" stroke="#000000" stroke-opacity="1" stroke-width="3.072"/>
<circle clip-path="url(#clip412)" cx="1530.24" cy="388.198" r="28.8" fill="#008000" fill-rule="evenodd" fill-opacity="1" stroke="#000000" stroke-opacity="1" stroke-width="3.072"/>
<circle clip-path="url(#clip412)" cx="1832.02" cy="169.752" r="28.8" fill="#008000" fill-rule="evenodd" fill-opacity="1" stroke="#000000" stroke-opacity="1" stroke-width="3.072"/>
<path clip-path="url(#clip410)" d="M481.282 279.509 L1087.73 279.509 L1087.73 175.829 L481.282 175.829  Z" fill="#ffffff" fill-rule="evenodd" fill-opacity="1"/>
<polyline clip-path="url(#clip410)" style="stroke:#000000; stroke-linecap:round; stroke-linejoin:round; stroke-width:4; stroke-opacity:1; fill:none" points="481.282,279.509 1087.73,279.509 1087.73,175.829 481.282,175.829 481.282,279.509 "/>
<circle clip-path="url(#clip410)" cx="545.258" cy="227.669" r="21.6847" fill="#008000" fill-rule="evenodd" fill-opacity="1" stroke="#000000" stroke-opacity="1" stroke-width="2.31304"/>
<path clip-path="url(#clip410)" d="M613.91 228.445 L613.91 241.107 L621.41 241.107 Q625.183 241.107 626.988 239.556 Q628.817 237.982 628.817 234.764 Q628.817 231.523 626.988 229.996 Q625.183 228.445 621.41 228.445 L613.91 228.445 M613.91 214.232 L613.91 224.648 L620.831 224.648 Q624.257 224.648 625.924 223.375 Q627.613 222.079 627.613 219.44 Q627.613 216.824 625.924 215.528 Q624.257 214.232 620.831 214.232 L613.91 214.232 M609.234 210.389 L621.178 210.389 Q626.525 210.389 629.419 212.612 Q632.312 214.834 632.312 218.931 Q632.312 222.102 630.831 223.977 Q629.349 225.852 626.479 226.315 Q629.928 227.056 631.826 229.417 Q633.748 231.755 633.748 235.273 Q633.748 239.903 630.599 242.426 Q627.451 244.949 621.641 244.949 L609.234 244.949 L609.234 210.389 Z" fill="#000000" fill-rule="nonzero" fill-opacity="1" /><path clip-path="url(#clip410)" d="M645.692 241.06 L645.692 254.81 L641.41 254.81 L641.41 219.024 L645.692 219.024 L645.692 222.959 Q647.035 220.644 649.072 219.533 Q651.132 218.399 653.979 218.399 Q658.701 218.399 661.641 222.149 Q664.604 225.898 664.604 232.01 Q664.604 238.121 661.641 241.871 Q658.701 245.621 653.979 245.621 Q651.132 245.621 649.072 244.51 Q647.035 243.375 645.692 241.06 M660.183 232.01 Q660.183 227.311 658.238 224.648 Q656.317 221.963 652.937 221.963 Q649.558 221.963 647.613 224.648 Q645.692 227.311 645.692 232.01 Q645.692 236.709 647.613 239.394 Q649.558 242.056 652.937 242.056 Q656.317 242.056 658.238 239.394 Q660.183 236.709 660.183 232.01 Z" fill="#000000" fill-rule="nonzero" fill-opacity="1" /><path clip-path="url(#clip410)" d="M693.84 230.922 L693.84 233.005 L674.257 233.005 Q674.534 237.403 676.895 239.718 Q679.28 242.01 683.516 242.01 Q685.969 242.01 688.261 241.408 Q690.576 240.806 692.844 239.602 L692.844 243.63 Q690.553 244.602 688.145 245.111 Q685.738 245.621 683.261 245.621 Q677.058 245.621 673.423 242.01 Q669.812 238.398 669.812 232.241 Q669.812 225.875 673.238 222.149 Q676.687 218.399 682.52 218.399 Q687.752 218.399 690.784 221.778 Q693.84 225.135 693.84 230.922 M689.581 229.672 Q689.534 226.176 687.613 224.093 Q685.715 222.01 682.567 222.01 Q679.002 222.01 676.849 224.024 Q674.72 226.037 674.395 229.695 L689.581 229.672 Z" fill="#000000" fill-rule="nonzero" fill-opacity="1" /><path clip-path="url(#clip410)" d="M700.668 219.024 L706.895 219.024 L714.256 236.385 L721.641 219.024 L727.821 219.024 L727.821 244.949 L723.539 244.949 L723.539 223.098 L716.386 239.972 L712.127 239.972 L704.951 223.098 L704.951 244.949 L700.668 244.949 L700.668 219.024 Z" fill="#000000" fill-rule="nonzero" fill-opacity="1" /><path clip-path="url(#clip410)" d="M740.877 226.5 Q740.877 228.422 742.358 229.51 Q743.84 230.598 746.594 230.598 L752.335 230.598 L752.335 222.426 L746.594 222.426 Q743.84 222.426 742.358 223.491 Q740.877 224.556 740.877 226.5 M734.812 244.949 L742.728 233.584 Q740.043 232.982 738.261 231.408 Q736.478 229.811 736.478 226.5 Q736.478 222.75 738.955 220.899 Q741.455 219.024 746.478 219.024 L756.617 219.024 L756.617 244.949 L752.335 244.949 L752.335 234 L747.034 234 L739.395 244.949 L734.812 244.949 Z" fill="#000000" fill-rule="nonzero" fill-opacity="1" /><path clip-path="url(#clip410)" d="M784.279 233.005 L784.279 241.547 L790.344 241.547 Q793.261 241.547 794.788 240.459 Q796.316 239.347 796.316 237.264 Q796.316 235.181 794.788 234.093 Q793.261 233.005 790.344 233.005 L784.279 233.005 M784.279 222.426 L784.279 229.602 L789.881 229.602 Q792.288 229.602 793.816 228.653 Q795.344 227.681 795.344 225.968 Q795.344 224.255 793.816 223.352 Q792.288 222.426 789.881 222.426 L784.279 222.426 M780.02 219.024 L790.159 219.024 Q794.719 219.024 797.173 220.69 Q799.626 222.357 799.626 225.436 Q799.626 227.82 798.376 229.232 Q797.126 230.621 794.673 230.968 Q797.612 231.523 799.233 233.283 Q800.853 235.042 800.853 237.681 Q800.853 241.153 798.168 243.051 Q795.506 244.949 790.552 244.949 L780.02 244.949 L780.02 219.024 Z" fill="#000000" fill-rule="nonzero" fill-opacity="1" /><path clip-path="url(#clip410)" d="M832.612 219.024 L836.871 219.024 L836.871 244.949 L832.612 244.949 L832.612 219.024 M834.742 218.399 L834.742 218.399 M824.256 237.264 Q824.256 235.181 822.728 234.093 Q821.223 233.005 818.307 233.005 L812.242 233.005 L812.242 241.547 L818.307 241.547 Q821.223 241.547 822.728 240.459 Q824.256 239.347 824.256 237.264 M807.96 219.024 L812.242 219.024 L812.242 229.602 L818.492 229.602 Q823.446 229.602 826.108 231.5 Q828.793 233.375 828.793 237.264 Q828.793 241.153 826.108 243.051 Q823.446 244.949 818.492 244.949 L807.96 244.949 L807.96 219.024 Z" fill="#000000" fill-rule="nonzero" fill-opacity="1" /><path clip-path="url(#clip410)" d="M860.529 244.949 L860.529 234.047 L852.589 234.047 Q849.047 234.047 846.686 231.848 Q844.557 229.857 844.557 225.598 L844.557 219.024 L848.816 219.024 L848.816 225.204 Q848.816 227.912 850.02 229.278 Q851.246 230.644 853.654 230.644 L860.529 230.644 L860.529 219.024 L864.788 219.024 L864.788 244.949 L860.529 244.949 Z" fill="#000000" fill-rule="nonzero" fill-opacity="1" /><path clip-path="url(#clip410)" d="M895.598 219.024 L895.598 244.949 L891.362 244.949 L891.362 224.139 L878.862 244.949 L873.399 244.949 L873.399 219.024 L877.635 219.024 L877.635 239.787 L890.112 219.024 L895.598 219.024 Z" fill="#000000" fill-rule="nonzero" fill-opacity="1" /><path clip-path="url(#clip410)" d="M923.028 220.019 L923.028 224 Q921.223 223.005 919.394 222.519 Q917.589 222.01 915.737 222.01 Q911.593 222.01 909.302 224.648 Q907.01 227.264 907.01 232.01 Q907.01 236.755 909.302 239.394 Q911.593 242.01 915.737 242.01 Q917.589 242.01 919.394 241.523 Q921.223 241.014 923.028 240.019 L923.028 243.954 Q921.246 244.787 919.325 245.204 Q917.427 245.621 915.274 245.621 Q909.417 245.621 905.968 241.94 Q902.519 238.26 902.519 232.01 Q902.519 225.667 905.991 222.033 Q909.487 218.399 915.552 218.399 Q917.519 218.399 919.394 218.815 Q921.269 219.209 923.028 220.019 Z" fill="#000000" fill-rule="nonzero" fill-opacity="1" /><path clip-path="url(#clip410)" d="M927.727 244.949 L927.727 241.408 Q931.94 240.76 933.237 237.843 Q934.811 233.746 934.811 223.26 L934.811 219.024 L952.334 219.024 L952.334 244.949 L948.075 244.949 L948.075 222.426 L939.07 222.426 L939.07 224.996 Q939.07 234.996 937.033 239.486 Q934.857 244.278 927.727 244.949 Z" fill="#000000" fill-rule="nonzero" fill-opacity="1" /><path clip-path="url(#clip410)" d="M982.912 230.922 L982.912 233.005 L963.329 233.005 Q963.607 237.403 965.968 239.718 Q968.352 242.01 972.588 242.01 Q975.042 242.01 977.334 241.408 Q979.648 240.806 981.917 239.602 L981.917 243.63 Q979.625 244.602 977.218 245.111 Q974.811 245.621 972.334 245.621 Q966.13 245.621 962.496 242.01 Q958.885 238.398 958.885 232.241 Q958.885 225.875 962.311 222.149 Q965.76 218.399 971.593 218.399 Q976.824 218.399 979.857 221.778 Q982.912 225.135 982.912 230.922 M978.653 229.672 Q978.607 226.176 976.686 224.093 Q974.787 222.01 971.639 222.01 Q968.074 222.01 965.922 224.024 Q963.792 226.037 963.468 229.695 L978.653 229.672 Z" fill="#000000" fill-rule="nonzero" fill-opacity="1" /><path clip-path="url(#clip410)" d="M989.741 219.024 L994.023 219.024 L994.023 229.602 L1007.84 229.602 L1007.84 219.024 L1012.13 219.024 L1012.13 244.949 L1007.84 244.949 L1007.84 233.005 L994.023 233.005 L994.023 244.949 L989.741 244.949 L989.741 219.024 Z" fill="#000000" fill-rule="nonzero" fill-opacity="1" /><path clip-path="url(#clip410)" d="M1042.94 219.024 L1042.94 244.949 L1038.7 244.949 L1038.7 224.139 L1026.2 244.949 L1020.74 244.949 L1020.74 219.024 L1024.97 219.024 L1024.97 239.787 L1037.45 219.024 L1042.94 219.024 Z" fill="#000000" fill-rule="nonzero" fill-opacity="1" /><path clip-path="url(#clip410)" d="M1055.99 226.5 Q1055.99 228.422 1057.47 229.51 Q1058.95 230.598 1061.71 230.598 L1067.45 230.598 L1067.45 222.426 L1061.71 222.426 Q1058.95 222.426 1057.47 223.491 Q1055.99 224.556 1055.99 226.5 M1049.93 244.949 L1057.84 233.584 Q1055.16 232.982 1053.37 231.408 Q1051.59 229.811 1051.59 226.5 Q1051.59 222.75 1054.07 220.899 Q1056.57 219.024 1061.59 219.024 L1071.73 219.024 L1071.73 244.949 L1067.45 244.949 L1067.45 234 L1062.15 234 L1054.51 244.949 L1049.93 244.949 Z" fill="#000000" fill-rule="nonzero" fill-opacity="1" /></svg>
