<?xml version="1.0" encoding="utf-8"?>
<svg xmlns="http://www.w3.org/2000/svg" xmlns:xlink="http://www.w3.org/1999/xlink" width="528" height="336" viewBox="0 0 2112 1344">
<defs>
  <clipPath id="clip560">
    <rect x="0" y="0" width="2112" height="1344"/>
  </clipPath>
</defs>
<path clip-path="url(#clip560)" d="M0 1344 L2112 1344 L2112 0 L0 0  Z" fill="#ffffff" fill-rule="evenodd" fill-opacity="1"/>
<defs>
  <clipPath id="clip561">
    <rect x="476" y="0" width="1584" height="1330"/>
  </clipPath>
</defs>
<path clip-path="url(#clip560)" d="M198.924 1173.47 L2064.76 1173.47 L2064.76 120.723 L198.924 120.723  Z" fill="#ffffff" fill-rule="evenodd" fill-opacity="1"/>
<defs>
  <clipPath id="clip562">
    <rect x="198" y="120" width="1867" height="1054"/>
  </clipPath>
</defs>
<polyline clip-path="url(#clip562)" style="stroke:#000000; stroke-linecap:round; stroke-linejoin:round; stroke-width:2; stroke-opacity:0.1; fill:none" points="198.924,1173.47 198.924,120.723 "/>
<polyline clip-path="url(#clip562)" style="stroke:#000000; stroke-linecap:round; stroke-linejoin:round; stroke-width:2; stroke-opacity:0.1; fill:none" points="572.09,1173.47 572.09,120.723 "/>
<polyline clip-path="url(#clip562)" style="stroke:#000000; stroke-linecap:round; stroke-linejoin:round; stroke-width:2; stroke-opacity:0.1; fill:none" points="945.257,1173.47 945.257,120.723 "/>
<polyline clip-path="url(#clip562)" style="stroke:#000000; stroke-linecap:round; stroke-linejoin:round; stroke-width:2; stroke-opacity:0.1; fill:none" points="1318.42,1173.47 1318.42,120.723 "/>
<polyline clip-path="url(#clip562)" style="stroke:#000000; stroke-linecap:round; stroke-linejoin:round; stroke-width:2; stroke-opacity:0.1; fill:none" points="1691.59,1173.47 1691.59,120.723 "/>
<polyline clip-path="url(#clip562)" style="stroke:#000000; stroke-linecap:round; stroke-linejoin:round; stroke-width:2; stroke-opacity:0.1; fill:none" points="2064.76,1173.47 2064.76,120.723 "/>
<polyline clip-path="url(#clip562)" style="stroke:#000000; stroke-linecap:round; stroke-linejoin:round; stroke-width:2; stroke-opacity:0.1; fill:none" points="198.924,935.526 2064.76,935.526 "/>
<polyline clip-path="url(#clip562)" style="stroke:#000000; stroke-linecap:round; stroke-linejoin:round; stroke-width:2; stroke-opacity:0.1; fill:none" points="198.924,675.339 2064.76,675.339 "/>
<polyline clip-path="url(#clip562)" style="stroke:#000000; stroke-linecap:round; stroke-linejoin:round; stroke-width:2; stroke-opacity:0.1; fill:none" points="198.924,415.152 2064.76,415.152 "/>
<polyline clip-path="url(#clip562)" style="stroke:#000000; stroke-linecap:round; stroke-linejoin:round; stroke-width:2; stroke-opacity:0.1; fill:none" points="198.924,154.964 2064.76,154.964 "/>
<polyline clip-path="url(#clip560)" style="stroke:#000000; stroke-linecap:round; stroke-linejoin:round; stroke-width:4; stroke-opacity:1; fill:none" points="198.924,1173.47 2064.76,1173.47 "/>
<polyline clip-path="url(#clip560)" style="stroke:#000000; stroke-linecap:round; stroke-linejoin:round; stroke-width:4; stroke-opacity:1; fill:none" points="198.924,1173.47 198.924,1154.57 "/>
<polyline clip-path="url(#clip560)" style="stroke:#000000; stroke-linecap:round; stroke-linejoin:round; stroke-width:4; stroke-opacity:1; fill:none" points="572.09,1173.47 572.09,1154.57 "/>
<polyline clip-path="url(#clip560)" style="stroke:#000000; stroke-linecap:round; stroke-linejoin:round; stroke-width:4; stroke-opacity:1; fill:none" points="945.257,1173.47 945.257,1154.57 "/>
<polyline clip-path="url(#clip560)" style="stroke:#000000; stroke-linecap:round; stroke-linejoin:round; stroke-width:4; stroke-opacity:1; fill:none" points="1318.42,1173.47 1318.42,1154.57 "/>
<polyline clip-path="url(#clip560)" style="stroke:#000000; stroke-linecap:round; stroke-linejoin:round; stroke-width:4; stroke-opacity:1; fill:none" points="1691.59,1173.47 1691.59,1154.57 "/>
<polyline clip-path="url(#clip560)" style="stroke:#000000; stroke-linecap:round; stroke-linejoin:round; stroke-width:4; stroke-opacity:1; fill:none" points="2064.76,1173.47 2064.76,1154.57 "/>
<path clip-path="url(#clip560)" d="M198.924 1202.09 Q195.312 1202.09 193.484 1205.65 Q191.678 1209.19 191.678 1216.32 Q191.678 1223.43 193.484 1226.99 Q195.312 1230.53 198.924 1230.53 Q202.558 1230.53 204.363 1226.99 Q206.192 1223.43 206.192 1216.32 Q206.192 1209.19 204.363 1205.65 Q202.558 1202.09 198.924 1202.09 M198.924 1198.38 Q204.734 1198.38 207.789 1202.99 Q210.868 1207.57 210.868 1216.32 Q210.868 1225.05 207.789 1229.65 Q204.734 1234.24 198.924 1234.24 Q193.113 1234.24 190.035 1229.65 Q186.979 1225.05 186.979 1216.32 Q186.979 1207.57 190.035 1202.99 Q193.113 1198.38 198.924 1198.38 Z" fill="#000000" fill-rule="nonzero" fill-opacity="1" /><path clip-path="url(#clip560)" d="M566.743 1229.63 L583.062 1229.63 L583.062 1233.57 L561.118 1233.57 L561.118 1229.63 Q563.78 1226.88 568.363 1222.25 Q572.97 1217.59 574.15 1216.25 Q576.396 1213.73 577.275 1211.99 Q578.178 1210.23 578.178 1208.54 Q578.178 1205.79 576.234 1204.05 Q574.312 1202.32 571.21 1202.32 Q569.011 1202.32 566.558 1203.08 Q564.127 1203.84 561.349 1205.4 L561.349 1200.67 Q564.173 1199.54 566.627 1198.96 Q569.081 1198.38 571.118 1198.38 Q576.488 1198.38 579.683 1201.07 Q582.877 1203.75 582.877 1208.24 Q582.877 1210.37 582.067 1212.29 Q581.28 1214.19 579.173 1216.78 Q578.595 1217.46 575.493 1220.67 Q572.391 1223.87 566.743 1229.63 Z" fill="#000000" fill-rule="nonzero" fill-opacity="1" /><path clip-path="url(#clip560)" d="M948.266 1203.08 L936.46 1221.53 L948.266 1221.53 L948.266 1203.08 M947.039 1199.01 L952.919 1199.01 L952.919 1221.53 L957.849 1221.53 L957.849 1225.42 L952.919 1225.42 L952.919 1233.57 L948.266 1233.57 L948.266 1225.42 L932.664 1225.42 L932.664 1220.9 L947.039 1199.01 Z" fill="#000000" fill-rule="nonzero" fill-opacity="1" /><path clip-path="url(#clip560)" d="M1318.83 1214.42 Q1315.68 1214.42 1313.83 1216.58 Q1312 1218.73 1312 1222.48 Q1312 1226.21 1313.83 1228.38 Q1315.68 1230.53 1318.83 1230.53 Q1321.98 1230.53 1323.8 1228.38 Q1325.66 1226.21 1325.66 1222.48 Q1325.66 1218.73 1323.8 1216.58 Q1321.98 1214.42 1318.83 1214.42 M1328.11 1199.77 L1328.11 1204.03 Q1326.35 1203.2 1324.55 1202.76 Q1322.76 1202.32 1321 1202.32 Q1316.37 1202.32 1313.92 1205.44 Q1311.49 1208.57 1311.14 1214.89 Q1312.51 1212.87 1314.57 1211.81 Q1316.63 1210.72 1319.11 1210.72 Q1324.31 1210.72 1327.32 1213.89 Q1330.36 1217.04 1330.36 1222.48 Q1330.36 1227.8 1327.21 1231.02 Q1324.06 1234.24 1318.83 1234.24 Q1312.83 1234.24 1309.66 1229.65 Q1306.49 1225.05 1306.49 1216.32 Q1306.49 1208.13 1310.38 1203.27 Q1314.27 1198.38 1320.82 1198.38 Q1322.58 1198.38 1324.36 1198.73 Q1326.17 1199.08 1328.11 1199.77 Z" fill="#000000" fill-rule="nonzero" fill-opacity="1" /><path clip-path="url(#clip560)" d="M1691.59 1217.15 Q1688.26 1217.15 1686.33 1218.94 Q1684.44 1220.72 1684.44 1223.84 Q1684.44 1226.97 1686.33 1228.75 Q1688.26 1230.53 1691.59 1230.53 Q1694.92 1230.53 1696.84 1228.75 Q1698.77 1226.95 1698.77 1223.84 Q1698.77 1220.72 1696.84 1218.94 Q1694.95 1217.15 1691.59 1217.15 M1686.91 1215.16 Q1683.9 1214.42 1682.21 1212.36 Q1680.55 1210.3 1680.55 1207.34 Q1680.55 1203.2 1683.49 1200.79 Q1686.45 1198.38 1691.59 1198.38 Q1696.75 1198.38 1699.69 1200.79 Q1702.63 1203.2 1702.63 1207.34 Q1702.63 1210.3 1700.94 1212.36 Q1699.27 1214.42 1696.29 1215.16 Q1699.67 1215.95 1701.54 1218.24 Q1703.44 1220.53 1703.44 1223.84 Q1703.44 1228.87 1700.36 1231.55 Q1697.31 1234.24 1691.59 1234.24 Q1685.87 1234.24 1682.79 1231.55 Q1679.74 1228.87 1679.74 1223.84 Q1679.74 1220.53 1681.64 1218.24 Q1683.53 1215.95 1686.91 1215.16 M1685.2 1207.78 Q1685.2 1210.47 1686.87 1211.97 Q1688.56 1213.47 1691.59 1213.47 Q1694.6 1213.47 1696.29 1211.97 Q1698 1210.47 1698 1207.78 Q1698 1205.09 1696.29 1203.59 Q1694.6 1202.09 1691.59 1202.09 Q1688.56 1202.09 1686.87 1203.59 Q1685.2 1205.09 1685.2 1207.78 Z" fill="#000000" fill-rule="nonzero" fill-opacity="1" /><path clip-path="url(#clip560)" d="M2039.44 1229.63 L2047.08 1229.63 L2047.08 1203.27 L2038.77 1204.93 L2038.77 1200.67 L2047.04 1199.01 L2051.71 1199.01 L2051.71 1229.63 L2059.35 1229.63 L2059.35 1233.57 L2039.44 1233.57 L2039.44 1229.63 Z" fill="#000000" fill-rule="nonzero" fill-opacity="1" /><path clip-path="url(#clip560)" d="M2078.8 1202.09 Q2075.18 1202.09 2073.36 1205.65 Q2071.55 1209.19 2071.55 1216.32 Q2071.55 1223.43 2073.36 1226.99 Q2075.18 1230.53 2078.8 1230.53 Q2082.43 1230.53 2084.23 1226.99 Q2086.06 1223.43 2086.06 1216.32 Q2086.06 1209.19 2084.23 1205.65 Q2082.43 1202.09 2078.8 1202.09 M2078.8 1198.38 Q2084.61 1198.38 2087.66 1202.99 Q2090.74 1207.57 2090.74 1216.32 Q2090.74 1225.05 2087.66 1229.65 Q2084.61 1234.24 2078.8 1234.24 Q2072.99 1234.24 2069.91 1229.65 Q2066.85 1225.05 2066.85 1216.32 Q2066.85 1207.57 2069.91 1202.99 Q2072.99 1198.38 2078.8 1198.38 Z" fill="#000000" fill-rule="nonzero" fill-opacity="1" /><path clip-path="url(#clip560)" d="M1011.81 1291.32 L1011.81 1308.73 L1022.13 1308.73 Q1027.31 1308.73 1029.8 1306.6 Q1032.31 1304.43 1032.31 1300.01 Q1032.31 1295.55 1029.8 1293.45 Q1027.31 1291.32 1022.13 1291.32 L1011.81 1291.32 M1011.81 1271.78 L1011.81 1286.1 L1021.33 1286.1 Q1026.04 1286.1 1028.33 1284.35 Q1030.66 1282.57 1030.66 1278.94 Q1030.66 1275.34 1028.33 1273.56 Q1026.04 1271.78 1021.33 1271.78 L1011.81 1271.78 M1005.38 1266.49 L1021.81 1266.49 Q1029.16 1266.49 1033.14 1269.55 Q1037.12 1272.61 1037.12 1278.24 Q1037.12 1282.6 1035.08 1285.18 Q1033.04 1287.76 1029.1 1288.39 Q1033.84 1289.41 1036.45 1292.66 Q1039.09 1295.87 1039.09 1300.71 Q1039.09 1307.08 1034.76 1310.55 Q1030.43 1314.01 1022.45 1314.01 L1005.38 1314.01 L1005.38 1266.49 Z" fill="#000000" fill-rule="nonzero" fill-opacity="1" /><path clip-path="url(#clip560)" d="M1055.51 1308.67 L1055.51 1327.57 L1049.63 1327.57 L1049.63 1278.37 L1055.51 1278.37 L1055.51 1283.78 Q1057.36 1280.59 1060.16 1279.07 Q1062.99 1277.51 1066.91 1277.51 Q1073.4 1277.51 1077.44 1282.66 Q1081.52 1287.82 1081.52 1296.22 Q1081.52 1304.63 1077.44 1309.78 Q1073.4 1314.94 1066.91 1314.94 Q1062.99 1314.94 1060.16 1313.41 Q1057.36 1311.85 1055.51 1308.67 M1075.44 1296.22 Q1075.44 1289.76 1072.77 1286.1 Q1070.12 1282.41 1065.48 1282.41 Q1060.83 1282.41 1058.16 1286.1 Q1055.51 1289.76 1055.51 1296.22 Q1055.51 1302.68 1058.16 1306.38 Q1060.83 1310.04 1065.48 1310.04 Q1070.12 1310.04 1072.77 1306.38 Q1075.44 1302.68 1075.44 1296.22 Z" fill="#000000" fill-rule="nonzero" fill-opacity="1" /><path clip-path="url(#clip560)" d="M1121.72 1294.73 L1121.72 1297.59 L1094.79 1297.59 Q1095.17 1303.64 1098.42 1306.82 Q1101.7 1309.97 1107.52 1309.97 Q1110.9 1309.97 1114.05 1309.14 Q1117.23 1308.32 1120.35 1306.66 L1120.35 1312.2 Q1117.2 1313.54 1113.89 1314.24 Q1110.58 1314.94 1107.17 1314.94 Q1098.64 1314.94 1093.65 1309.97 Q1088.68 1305.01 1088.68 1296.54 Q1088.68 1287.79 1093.39 1282.66 Q1098.13 1277.51 1106.15 1277.51 Q1113.35 1277.51 1117.52 1282.15 Q1121.72 1286.77 1121.72 1294.73 M1115.86 1293.01 Q1115.8 1288.2 1113.16 1285.34 Q1110.55 1282.47 1106.22 1282.47 Q1101.32 1282.47 1098.36 1285.24 Q1095.43 1288.01 1094.98 1293.04 L1115.86 1293.01 Z" fill="#000000" fill-rule="nonzero" fill-opacity="1" /><path clip-path="url(#clip560)" d="M1131.11 1278.37 L1139.67 1278.37 L1149.79 1302.24 L1159.94 1278.37 L1168.44 1278.37 L1168.44 1314.01 L1162.55 1314.01 L1162.55 1283.97 L1152.72 1307.17 L1146.86 1307.17 L1137 1283.97 L1137 1314.01 L1131.11 1314.01 L1131.11 1278.37 Z" fill="#000000" fill-rule="nonzero" fill-opacity="1" /><path clip-path="url(#clip560)" d="M1186.39 1288.65 Q1186.39 1291.29 1188.43 1292.79 Q1190.47 1294.28 1194.26 1294.28 L1202.15 1294.28 L1202.15 1283.05 L1194.26 1283.05 Q1190.47 1283.05 1188.43 1284.51 Q1186.39 1285.97 1186.39 1288.65 M1178.05 1314.01 L1188.94 1298.39 Q1185.25 1297.56 1182.8 1295.4 Q1180.35 1293.2 1180.35 1288.65 Q1180.35 1283.49 1183.75 1280.94 Q1187.19 1278.37 1194.1 1278.37 L1208.04 1278.37 L1208.04 1314.01 L1202.15 1314.01 L1202.15 1298.96 L1194.86 1298.96 L1184.36 1314.01 L1178.05 1314.01 Z" fill="#000000" fill-rule="nonzero" fill-opacity="1" /><path clip-path="url(#clip560)" d="M1246.23 1268.25 L1246.23 1278.37 L1258.29 1278.37 L1258.29 1282.92 L1246.23 1282.92 L1246.23 1302.27 Q1246.23 1306.63 1247.41 1307.87 Q1248.62 1309.11 1252.28 1309.11 L1258.29 1309.11 L1258.29 1314.01 L1252.28 1314.01 Q1245.5 1314.01 1242.92 1311.5 Q1240.34 1308.95 1240.34 1302.27 L1240.34 1282.92 L1236.05 1282.92 L1236.05 1278.37 L1240.34 1278.37 L1240.34 1268.25 L1246.23 1268.25 Z" fill="#000000" fill-rule="nonzero" fill-opacity="1" /><polyline clip-path="url(#clip560)" style="stroke:#000000; stroke-linecap:round; stroke-linejoin:round; stroke-width:4; stroke-opacity:1; fill:none" points="198.924,1173.47 198.924,120.723 "/>
<polyline clip-path="url(#clip560)" style="stroke:#000000; stroke-linecap:round; stroke-linejoin:round; stroke-width:4; stroke-opacity:1; fill:none" points="198.924,935.526 217.821,935.526 "/>
<polyline clip-path="url(#clip560)" style="stroke:#000000; stroke-linecap:round; stroke-linejoin:round; stroke-width:4; stroke-opacity:1; fill:none" points="198.924,675.339 217.821,675.339 "/>
<polyline clip-path="url(#clip560)" style="stroke:#000000; stroke-linecap:round; stroke-linejoin:round; stroke-width:4; stroke-opacity:1; fill:none" points="198.924,415.152 217.821,415.152 "/>
<polyline clip-path="url(#clip560)" style="stroke:#000000; stroke-linecap:round; stroke-linejoin:round; stroke-width:4; stroke-opacity:1; fill:none" points="198.924,154.964 217.821,154.964 "/>
<path clip-path="url(#clip560)" d="M146.341 918.246 L164.697 918.246 L164.697 922.181 L150.623 922.181 L150.623 930.654 Q151.642 930.306 152.66 930.144 Q153.679 929.959 154.697 929.959 Q160.484 929.959 163.864 933.13 Q167.244 936.302 167.244 941.718 Q167.244 947.297 163.771 950.399 Q160.299 953.477 153.98 953.477 Q151.804 953.477 149.535 953.107 Q147.29 952.737 144.883 951.996 L144.883 947.297 Q146.966 948.431 149.188 948.987 Q151.41 949.542 153.887 949.542 Q157.892 949.542 160.23 947.436 Q162.568 945.329 162.568 941.718 Q162.568 938.107 160.23 936.001 Q157.892 933.894 153.887 933.894 Q152.012 933.894 150.137 934.311 Q148.285 934.728 146.341 935.607 L146.341 918.246 Z" fill="#000000" fill-rule="nonzero" fill-opacity="1" /><path clip-path="url(#clip560)" d="M115.948 688.684 L123.586 688.684 L123.586 662.318 L115.276 663.985 L115.276 659.726 L123.54 658.059 L128.216 658.059 L128.216 688.684 L135.855 688.684 L135.855 692.619 L115.948 692.619 L115.948 688.684 Z" fill="#000000" fill-rule="nonzero" fill-opacity="1" /><path clip-path="url(#clip560)" d="M155.299 661.138 Q151.688 661.138 149.859 664.702 Q148.054 668.244 148.054 675.374 Q148.054 682.48 149.859 686.045 Q151.688 689.586 155.299 689.586 Q158.933 689.586 160.739 686.045 Q162.568 682.48 162.568 675.374 Q162.568 668.244 160.739 664.702 Q158.933 661.138 155.299 661.138 M155.299 657.434 Q161.109 657.434 164.165 662.04 Q167.244 666.624 167.244 675.374 Q167.244 684.1 164.165 688.707 Q161.109 693.29 155.299 693.29 Q149.489 693.29 146.41 688.707 Q143.355 684.1 143.355 675.374 Q143.355 666.624 146.41 662.04 Q149.489 657.434 155.299 657.434 Z" fill="#000000" fill-rule="nonzero" fill-opacity="1" /><path clip-path="url(#clip560)" d="M116.943 428.496 L124.582 428.496 L124.582 402.131 L116.272 403.797 L116.272 399.538 L124.535 397.872 L129.211 397.872 L129.211 428.496 L136.85 428.496 L136.85 432.432 L116.943 432.432 L116.943 428.496 Z" fill="#000000" fill-rule="nonzero" fill-opacity="1" /><path clip-path="url(#clip560)" d="M146.341 397.872 L164.697 397.872 L164.697 401.807 L150.623 401.807 L150.623 410.279 Q151.642 409.932 152.66 409.77 Q153.679 409.584 154.697 409.584 Q160.484 409.584 163.864 412.756 Q167.244 415.927 167.244 421.344 Q167.244 426.922 163.771 430.024 Q160.299 433.103 153.98 433.103 Q151.804 433.103 149.535 432.733 Q147.29 432.362 144.883 431.621 L144.883 426.922 Q146.966 428.057 149.188 428.612 Q151.41 429.168 153.887 429.168 Q157.892 429.168 160.23 427.061 Q162.568 424.955 162.568 421.344 Q162.568 417.733 160.23 415.626 Q157.892 413.52 153.887 413.52 Q152.012 413.52 150.137 413.936 Q148.285 414.353 146.341 415.233 L146.341 397.872 Z" fill="#000000" fill-rule="nonzero" fill-opacity="1" /><path clip-path="url(#clip560)" d="M119.165 168.309 L135.484 168.309 L135.484 172.244 L113.54 172.244 L113.54 168.309 Q116.202 165.555 120.785 160.925 Q125.392 156.272 126.572 154.93 Q128.818 152.406 129.697 150.67 Q130.6 148.911 130.6 147.221 Q130.6 144.467 128.656 142.731 Q126.735 140.994 123.633 140.994 Q121.434 140.994 118.98 141.758 Q116.549 142.522 113.772 144.073 L113.772 139.351 Q116.596 138.217 119.049 137.638 Q121.503 137.059 123.54 137.059 Q128.91 137.059 132.105 139.744 Q135.299 142.43 135.299 146.92 Q135.299 149.05 134.489 150.971 Q133.702 152.869 131.596 155.462 Q131.017 156.133 127.915 159.351 Q124.813 162.545 119.165 168.309 Z" fill="#000000" fill-rule="nonzero" fill-opacity="1" /><path clip-path="url(#clip560)" d="M155.299 140.763 Q151.688 140.763 149.859 144.328 Q148.054 147.869 148.054 154.999 Q148.054 162.105 149.859 165.67 Q151.688 169.212 155.299 169.212 Q158.933 169.212 160.739 165.67 Q162.568 162.105 162.568 154.999 Q162.568 147.869 160.739 144.328 Q158.933 140.763 155.299 140.763 M155.299 137.059 Q161.109 137.059 164.165 141.666 Q167.244 146.249 167.244 154.999 Q167.244 163.726 164.165 168.332 Q161.109 172.916 155.299 172.916 Q149.489 172.916 146.41 168.332 Q143.355 163.726 143.355 154.999 Q143.355 146.249 146.41 141.666 Q149.489 137.059 155.299 137.059 Z" fill="#000000" fill-rule="nonzero" fill-opacity="1" /><path clip-path="url(#clip560)" d="M20.0842 824.191 L67.6042 824.191 L67.6042 830.62 L25.495 830.62 L25.495 853.982 L67.6042 853.982 L67.6042 860.412 L20.0842 860.412 L20.0842 824.191 Z" fill="#000000" fill-rule="nonzero" fill-opacity="1" /><path clip-path="url(#clip560)" d="M36.0621 797.837 Q36.0621 802.547 39.7542 805.285 Q43.4145 808.022 49.812 808.022 Q56.2095 808.022 59.9017 805.317 Q63.5619 802.579 63.5619 797.837 Q63.5619 793.158 59.8698 790.421 Q56.1777 787.684 49.812 787.684 Q43.4781 787.684 39.786 790.421 Q36.0621 793.158 36.0621 797.837 M31.0968 797.837 Q31.0968 790.198 36.0621 785.837 Q41.0273 781.477 49.812 781.477 Q58.5649 781.477 63.5619 785.837 Q68.5272 790.198 68.5272 797.837 Q68.5272 805.508 63.5619 809.868 Q58.5649 814.197 49.812 814.197 Q41.0273 814.197 36.0621 809.868 Q31.0968 805.508 31.0968 797.837 Z" fill="#000000" fill-rule="nonzero" fill-opacity="1" /><path clip-path="url(#clip560)" d="M31.9562 741.214 L67.6042 741.214 L67.6042 747.102 L36.635 747.102 L36.635 766.104 L67.6042 766.104 L67.6042 771.992 L31.9562 771.992 L31.9562 741.214 Z" fill="#000000" fill-rule="nonzero" fill-opacity="1" /><path clip-path="url(#clip560)" d="M70.9143 714.319 Q77.28 716.801 79.2216 719.157 Q81.1631 721.512 81.1631 725.459 L81.1631 730.138 L76.2615 730.138 L76.2615 726.7 Q76.2615 724.281 75.1157 722.944 Q73.9699 721.607 69.7048 719.984 L67.0312 718.934 L31.9562 733.352 L31.9562 727.146 L59.838 716.006 L31.9562 704.866 L31.9562 698.659 L70.9143 714.319 Z" fill="#000000" fill-rule="nonzero" fill-opacity="1" /><path clip-path="url(#clip560)" d="M67.6042 694.299 L62.7344 694.299 Q61.8432 688.506 57.8328 686.723 Q52.1991 684.559 37.7808 684.559 L31.9562 684.559 L31.9562 660.465 L67.6042 660.465 L67.6042 666.321 L36.635 666.321 L36.635 678.703 L40.168 678.703 Q53.9179 678.703 60.0926 681.504 Q66.6811 684.495 67.6042 694.299 Z" fill="#000000" fill-rule="nonzero" fill-opacity="1" /><path clip-path="url(#clip560)" d="M42.2368 643.023 Q44.8786 643.023 46.3745 640.986 Q47.8705 638.949 47.8705 635.161 L47.8705 627.268 L36.635 627.268 L36.635 635.161 Q36.635 638.949 38.0991 640.986 Q39.5632 643.023 42.2368 643.023 M67.6042 651.362 L51.9763 640.477 Q51.1488 644.169 48.9845 646.619 Q46.7883 649.07 42.2368 649.07 Q37.0806 649.07 34.5343 645.665 Q31.9562 642.227 31.9562 635.32 L31.9562 621.379 L67.6042 621.379 L67.6042 627.268 L52.5493 627.268 L52.5493 634.556 L67.6042 645.06 L67.6042 651.362 Z" fill="#000000" fill-rule="nonzero" fill-opacity="1" /><path clip-path="url(#clip560)" d="M67.6042 579.143 L67.6042 609.921 L31.9562 609.921 L31.9562 604.033 L62.9254 604.033 L62.9254 585.031 L31.9562 585.031 L31.9562 579.143 L62.9254 579.143 L62.9254 574.464 L76.6116 574.464 L76.6116 579.143 L67.6042 579.143 Z" fill="#000000" fill-rule="nonzero" fill-opacity="1" /><path clip-path="url(#clip560)" d="M31.9562 535.029 L67.6042 535.029 L67.6042 540.853 L38.9903 540.853 L67.6042 558.041 L67.6042 565.552 L31.9562 565.552 L31.9562 559.728 L60.5064 559.728 L31.9562 542.572 L31.9562 535.029 Z" fill="#000000" fill-rule="nonzero" fill-opacity="1" /><path clip-path="url(#clip560)" d="M42.2368 517.077 Q44.8786 517.077 46.3745 515.04 Q47.8705 513.003 47.8705 509.216 L47.8705 501.322 L36.635 501.322 L36.635 509.216 Q36.635 513.003 38.0991 515.04 Q39.5632 517.077 42.2368 517.077 M67.6042 525.416 L51.9763 514.531 Q51.1488 518.223 48.9845 520.674 Q46.7883 523.125 42.2368 523.125 Q37.0806 523.125 34.5343 519.719 Q31.9562 516.282 31.9562 509.375 L31.9562 495.434 L67.6042 495.434 L67.6042 501.322 L52.5493 501.322 L52.5493 508.611 L67.6042 519.114 L67.6042 525.416 Z" fill="#000000" fill-rule="nonzero" fill-opacity="1" /><path clip-path="url(#clip560)" d="M53.5359 463.637 L31.9562 463.637 L31.9562 457.781 L53.3131 457.781 Q58.3739 457.781 60.9202 455.807 Q63.4346 453.834 63.4346 449.887 Q63.4346 445.145 60.4109 442.408 Q57.3872 439.639 52.1673 439.639 L31.9562 439.639 L31.9562 433.782 L67.6042 433.782 L67.6042 439.639 L62.1296 439.639 Q65.3762 441.771 66.9676 444.604 Q68.5272 447.405 68.5272 451.129 Q68.5272 457.272 64.7078 460.454 Q60.8883 463.637 53.5359 463.637 M31.0968 448.901 L31.0968 448.901 Z" fill="#000000" fill-rule="nonzero" fill-opacity="1" /><path clip-path="url(#clip560)" d="M398.302 59.3701 Q406.849 67.0263 417.22 67.0263 Q427.914 67.0263 432.735 61.274 Q437.555 55.5217 438.446 45.84 L406.12 45.84 L406.12 38.9535 L438.446 38.9535 Q437.555 29.2718 432.735 23.5195 Q427.914 17.7268 417.22 17.7268 Q406.849 17.7268 398.302 25.383 L398.302 16.7545 Q406.728 11.0023 417.706 11.0023 Q431.276 11.0023 439.176 19.4281 Q447.075 27.8135 447.075 42.3563 Q447.075 56.9395 439.176 65.3654 Q431.276 73.7508 417.706 73.7508 Q406.89 73.7508 398.302 67.9175 L398.302 59.3701 Z" fill="#000000" fill-rule="nonzero" fill-opacity="1" /><path clip-path="url(#clip560)" d="M459.268 27.2059 L466.681 27.2059 L466.681 48.5136 L487.705 27.2059 L496.861 27.2059 L479.523 44.7463 L499.089 72.576 L490.744 72.576 L474.662 49.6884 L466.681 57.7902 L466.681 72.576 L459.268 72.576 L459.268 27.2059 Z" fill="#000000" fill-rule="nonzero" fill-opacity="1" /><path clip-path="url(#clip560)" d="M542.312 28.9478 L542.312 35.9153 Q539.152 34.1734 535.952 33.3227 Q532.792 32.4315 529.551 32.4315 Q522.3 32.4315 518.29 37.0496 Q514.279 41.6271 514.279 49.9314 Q514.279 58.2358 518.29 62.8538 Q522.3 67.4314 529.551 67.4314 Q532.792 67.4314 535.952 66.5807 Q539.152 65.6895 542.312 63.9476 L542.312 70.8341 Q539.192 72.2924 535.83 73.0216 Q532.508 73.7508 528.741 73.7508 Q518.492 73.7508 512.456 67.3098 Q506.421 60.8689 506.421 49.9314 Q506.421 38.832 512.497 32.472 Q518.614 26.1121 529.227 26.1121 Q532.67 26.1121 535.952 26.8413 Q539.233 27.5299 542.312 28.9478 Z" fill="#000000" fill-rule="nonzero" fill-opacity="1" /><path clip-path="url(#clip560)" d="M594.163 27.2059 L594.163 72.576 L586.669 72.576 L586.669 33.1607 L562.485 33.1607 L562.485 72.576 L554.991 72.576 L554.991 27.2059 L594.163 27.2059 Z" fill="#000000" fill-rule="nonzero" fill-opacity="1" /><path clip-path="url(#clip560)" d="M627.097 32.4315 Q621.102 32.4315 617.618 37.1306 Q614.134 41.7891 614.134 49.9314 Q614.134 58.0738 617.577 62.7728 Q621.061 67.4314 627.097 67.4314 Q633.052 67.4314 636.536 62.7323 Q640.019 58.0333 640.019 49.9314 Q640.019 41.8701 636.536 37.1711 Q633.052 32.4315 627.097 32.4315 M627.097 26.1121 Q636.819 26.1121 642.369 32.4315 Q647.919 38.7509 647.919 49.9314 Q647.919 61.0714 642.369 67.4314 Q636.819 73.7508 627.097 73.7508 Q617.334 73.7508 611.785 67.4314 Q606.275 61.0714 606.275 49.9314 Q606.275 38.7509 611.785 32.4315 Q617.334 26.1121 627.097 26.1121 Z" fill="#000000" fill-rule="nonzero" fill-opacity="1" /><path clip-path="url(#clip560)" d="M659.99 27.2059 L667.485 27.2059 L667.485 45.7185 L691.668 45.7185 L691.668 27.2059 L699.163 27.2059 L699.163 72.576 L691.668 72.576 L691.668 51.6733 L667.485 51.6733 L667.485 72.576 L659.99 72.576 L659.99 27.2059 Z" fill="#000000" fill-rule="nonzero" fill-opacity="1" /><path clip-path="url(#clip560)" d="M753.323 48.0275 L753.323 51.6733 L719.053 51.6733 Q719.539 59.3701 723.671 63.421 Q727.843 67.4314 735.256 67.4314 Q739.55 67.4314 743.561 66.3781 Q747.611 65.3249 751.581 63.2184 L751.581 70.267 Q747.571 71.9684 743.358 72.8596 Q739.145 73.7508 734.811 73.7508 Q723.954 73.7508 717.594 67.4314 Q711.275 61.1119 711.275 50.3365 Q711.275 39.1965 717.27 32.6746 Q723.306 26.1121 733.514 26.1121 Q742.669 26.1121 747.976 32.0264 Q753.323 37.9003 753.323 48.0275 M745.87 45.84 Q745.789 39.7232 742.426 36.0774 Q739.105 32.4315 733.595 32.4315 Q727.357 32.4315 723.59 35.9558 Q719.863 39.4801 719.296 45.8805 L745.87 45.84 Z" fill="#000000" fill-rule="nonzero" fill-opacity="1" /><path clip-path="url(#clip560)" d="M765.273 27.2059 L772.768 27.2059 L772.768 45.7185 L796.951 45.7185 L796.951 27.2059 L804.446 27.2059 L804.446 72.576 L796.951 72.576 L796.951 51.6733 L772.768 51.6733 L772.768 72.576 L765.273 72.576 L765.273 27.2059 Z" fill="#000000" fill-rule="nonzero" fill-opacity="1" /><path clip-path="url(#clip560)" d="M858.687 72.576 L819.515 72.576 L819.515 27.2059 L827.009 27.2059 L827.009 66.6212 L851.193 66.6212 L851.193 27.2059 L858.687 27.2059 L858.687 66.6212 L864.642 66.6212 L864.642 84.0401 L858.687 84.0401 L858.687 72.576 Z" fill="#000000" fill-rule="nonzero" fill-opacity="1" /><path clip-path="url(#clip560)" d="M914.833 27.2059 L914.833 72.576 L907.42 72.576 L907.42 36.1584 L885.545 72.576 L875.985 72.576 L875.985 27.2059 L883.398 27.2059 L883.398 63.5425 L905.232 27.2059 L914.833 27.2059 Z" fill="#000000" fill-rule="nonzero" fill-opacity="1" /><path clip-path="url(#clip560)" d="M950.805 49.7694 Q941.771 49.7694 938.288 51.8354 Q934.804 53.9013 934.804 58.8839 Q934.804 62.8538 937.396 65.2034 Q940.029 67.5124 944.526 67.5124 Q950.724 67.5124 954.451 63.1374 Q958.218 58.7219 958.218 51.4303 L958.218 49.7694 L950.805 49.7694 M965.672 46.6907 L965.672 72.576 L958.218 72.576 L958.218 65.6895 Q955.666 69.8214 951.858 71.8063 Q948.05 73.7508 942.541 73.7508 Q935.573 73.7508 931.442 69.8619 Q927.35 65.9325 927.35 59.3701 Q927.35 51.7138 932.454 47.825 Q937.599 43.9361 947.767 43.9361 L958.218 43.9361 L958.218 43.2069 Q958.218 38.0623 954.815 35.2672 Q951.453 32.4315 945.336 32.4315 Q941.447 32.4315 937.761 33.3632 Q934.075 34.295 930.672 36.1584 L930.672 29.2718 Q934.763 27.692 938.612 26.9223 Q942.46 26.1121 946.106 26.1121 Q955.949 26.1121 960.811 31.2163 Q965.672 36.3204 965.672 46.6907 Z" fill="#000000" fill-rule="nonzero" fill-opacity="1" /><path clip-path="url(#clip560)" d="M976.285 72.576 L976.285 66.3781 Q983.658 65.2439 985.926 60.1397 Q988.681 52.9696 988.681 34.619 L988.681 27.2059 L1019.35 27.2059 L1019.35 72.576 L1011.89 72.576 L1011.89 33.1607 L996.134 33.1607 L996.134 37.6572 Q996.134 55.1571 992.57 63.0159 Q988.762 71.4012 976.285 72.576 Z" fill="#000000" fill-rule="nonzero" fill-opacity="1" /><path clip-path="url(#clip560)" d="M1062.29 59.127 Q1062.29 55.4812 1059.61 53.5773 Q1056.98 51.6733 1051.87 51.6733 L1041.26 51.6733 L1041.26 66.6212 L1051.87 66.6212 Q1056.98 66.6212 1059.61 64.7172 Q1062.29 62.7728 1062.29 59.127 M1033.77 27.2059 L1041.26 27.2059 L1041.26 45.7185 L1052.2 45.7185 Q1060.87 45.7185 1065.53 49.0402 Q1070.23 52.3215 1070.23 59.127 Q1070.23 65.9325 1065.53 69.2543 Q1060.87 72.576 1052.2 72.576 L1033.77 72.576 L1033.77 27.2059 Z" fill="#000000" fill-rule="nonzero" fill-opacity="1" /><path clip-path="url(#clip560)" d="M1082.66 27.2059 L1090.16 27.2059 L1090.16 45.7185 L1114.34 45.7185 L1114.34 27.2059 L1121.83 27.2059 L1121.83 72.576 L1114.34 72.576 L1114.34 51.6733 L1090.16 51.6733 L1090.16 72.576 L1082.66 72.576 L1082.66 27.2059 Z" fill="#000000" fill-rule="nonzero" fill-opacity="1" /><path clip-path="url(#clip560)" d="M1180.05 27.2059 L1187.5 27.2059 L1187.5 72.576 L1180.05 72.576 L1180.05 27.2059 M1183.77 26.1121 L1183.77 26.1121 M1165.42 59.127 Q1165.42 55.4812 1162.75 53.5773 Q1160.12 51.6733 1155.01 51.6733 L1144.4 51.6733 L1144.4 66.6212 L1155.01 66.6212 Q1160.12 66.6212 1162.75 64.7172 Q1165.42 62.7728 1165.42 59.127 M1136.9 27.2059 L1144.4 27.2059 L1144.4 45.7185 L1155.33 45.7185 Q1164 45.7185 1168.66 49.0402 Q1173.36 52.3215 1173.36 59.127 Q1173.36 65.9325 1168.66 69.2543 Q1164 72.576 1155.33 72.576 L1136.9 72.576 L1136.9 27.2059 Z" fill="#000000" fill-rule="nonzero" fill-opacity="1" /><path clip-path="url(#clip560)" d="M1241.25 27.2059 L1241.25 72.576 L1233.84 72.576 L1233.84 36.1584 L1211.97 72.576 L1202.41 72.576 L1202.41 27.2059 L1209.82 27.2059 L1209.82 63.5425 L1231.65 27.2059 L1241.25 27.2059 M1209.17 9.54393 L1213.95 9.54393 Q1214.4 12.5821 1216.34 14.1215 Q1218.33 15.6203 1221.85 15.6203 Q1225.33 15.6203 1227.28 14.1215 Q1229.22 12.6226 1229.75 9.54393 L1234.53 9.54393 Q1234.13 15.3367 1230.92 18.2534 Q1227.72 21.17 1221.85 21.17 Q1215.98 21.17 1212.78 18.2534 Q1209.58 15.3367 1209.17 9.54393 Z" fill="#000000" fill-rule="nonzero" fill-opacity="1" /><path clip-path="url(#clip560)" d="M1290.19 65.7705 L1290.19 89.8329 L1282.7 89.8329 L1282.7 27.2059 L1290.19 27.2059 L1290.19 34.0924 Q1292.54 30.0415 1296.1 28.0971 Q1299.71 26.1121 1304.69 26.1121 Q1312.96 26.1121 1318.1 32.6746 Q1323.29 39.2371 1323.29 49.9314 Q1323.29 60.6258 1318.1 67.1883 Q1312.96 73.7508 1304.69 73.7508 Q1299.71 73.7508 1296.1 71.8063 Q1292.54 69.8214 1290.19 65.7705 M1315.55 49.9314 Q1315.55 41.7081 1312.15 37.0496 Q1308.78 32.3505 1302.87 32.3505 Q1296.95 32.3505 1293.55 37.0496 Q1290.19 41.7081 1290.19 49.9314 Q1290.19 58.1548 1293.55 62.8538 Q1296.95 67.5124 1302.87 67.5124 Q1308.78 67.5124 1312.15 62.8538 Q1315.55 58.1548 1315.55 49.9314 Z" fill="#000000" fill-rule="nonzero" fill-opacity="1" /><path clip-path="url(#clip560)" d="M1353.22 32.4315 Q1347.23 32.4315 1343.74 37.1306 Q1340.26 41.7891 1340.26 49.9314 Q1340.26 58.0738 1343.7 62.7728 Q1347.19 67.4314 1353.22 67.4314 Q1359.18 67.4314 1362.66 62.7323 Q1366.14 58.0333 1366.14 49.9314 Q1366.14 41.8701 1362.66 37.1711 Q1359.18 32.4315 1353.22 32.4315 M1353.22 26.1121 Q1362.94 26.1121 1368.49 32.4315 Q1374.04 38.7509 1374.04 49.9314 Q1374.04 61.0714 1368.49 67.4314 Q1362.94 73.7508 1353.22 73.7508 Q1343.46 73.7508 1337.91 67.4314 Q1332.4 61.0714 1332.4 49.9314 Q1332.4 38.7509 1337.91 32.4315 Q1343.46 26.1121 1353.22 26.1121 Z" fill="#000000" fill-rule="nonzero" fill-opacity="1" /><path clip-path="url(#clip560)" d="M1419.05 28.9478 L1419.05 35.9153 Q1415.89 34.1734 1412.69 33.3227 Q1409.53 32.4315 1406.29 32.4315 Q1399.04 32.4315 1395.03 37.0496 Q1391.02 41.6271 1391.02 49.9314 Q1391.02 58.2358 1395.03 62.8538 Q1399.04 67.4314 1406.29 67.4314 Q1409.53 67.4314 1412.69 66.5807 Q1415.89 65.6895 1419.05 63.9476 L1419.05 70.8341 Q1415.93 72.2924 1412.57 73.0216 Q1409.25 73.7508 1405.48 73.7508 Q1395.23 73.7508 1389.19 67.3098 Q1383.16 60.8689 1383.16 49.9314 Q1383.16 38.832 1389.23 32.472 Q1395.35 26.1121 1405.96 26.1121 Q1409.41 26.1121 1412.69 26.8413 Q1415.97 27.5299 1419.05 28.9478 Z" fill="#000000" fill-rule="nonzero" fill-opacity="1" /><path clip-path="url(#clip560)" d="M1426.62 27.2059 L1470.09 27.2059 L1470.09 33.1607 L1452.02 33.1607 L1452.02 72.576 L1444.69 72.576 L1444.69 33.1607 L1426.62 33.1607 L1426.62 27.2059 Z" fill="#000000" fill-rule="nonzero" fill-opacity="1" /><path clip-path="url(#clip560)" d="M1524.62 9.62495 Q1519.19 18.942 1516.55 28.0566 Q1513.92 37.1711 1513.92 46.5287 Q1513.92 55.8863 1516.55 65.0818 Q1519.23 74.2369 1524.62 83.5134 L1518.13 83.5134 Q1512.06 73.9938 1509.02 64.7983 Q1506.02 55.6027 1506.02 46.5287 Q1506.02 37.4952 1509.02 28.3401 Q1512.02 19.1851 1518.13 9.62495 L1524.62 9.62495 Z" fill="#000000" fill-rule="nonzero" fill-opacity="1" /><path clip-path="url(#clip560)" d="M1565.53 51.4708 L1563.75 42.1132 Q1561.92 32.5126 1554.71 32.5126 Q1549.29 32.5126 1546.81 36.9686 Q1543.7 42.5588 1543.7 49.9314 Q1543.7 58.8434 1546.73 63.0969 Q1549.81 67.4314 1554.71 67.4314 Q1560.14 67.4314 1563.06 58.8029 L1565.53 51.4708 M1569.7 39.075 L1573.71 27.2059 L1580.36 27.2059 L1572.05 51.7949 L1573.67 60.6663 Q1574.04 62.6513 1575.45 64.3122 Q1577.12 66.2566 1578.41 66.2566 L1581.98 66.2566 L1581.98 72.576 L1577.52 72.576 Q1573.71 72.576 1570.31 69.1732 Q1568.65 67.4719 1567.96 63.9071 Q1566.1 68.4036 1562.29 71.9279 Q1560.51 73.5887 1554.71 73.5887 Q1545.19 73.5887 1540.58 67.4314 Q1535.84 61.0714 1535.84 49.9314 Q1535.84 38.0218 1540.98 32.4315 Q1546.69 26.1931 1554.71 26.1931 Q1567.31 26.1931 1569.7 39.075 Z" fill="#000000" fill-rule="nonzero" fill-opacity="1" /><path clip-path="url(#clip560)" d="M1621.11 34.9026 L1673.04 34.9026 L1673.04 41.7081 L1621.11 41.7081 L1621.11 34.9026 M1621.11 51.4303 L1673.04 51.4303 L1673.04 58.3168 L1621.11 58.3168 L1621.11 51.4303 Z" fill="#000000" fill-rule="nonzero" fill-opacity="1" /><path clip-path="url(#clip560)" d="M1734.57 17.4837 Q1728.25 17.4837 1725.05 23.7221 Q1721.89 29.92 1721.89 42.3968 Q1721.89 54.833 1725.05 61.0714 Q1728.25 67.2693 1734.57 67.2693 Q1740.93 67.2693 1744.09 61.0714 Q1747.29 54.833 1747.29 42.3968 Q1747.29 29.92 1744.09 23.7221 Q1740.93 17.4837 1734.57 17.4837 M1734.57 11.0023 Q1744.74 11.0023 1750.09 19.0636 Q1755.48 27.0843 1755.48 42.3968 Q1755.48 57.6687 1750.09 65.73 Q1744.74 73.7508 1734.57 73.7508 Q1724.41 73.7508 1719.02 65.73 Q1713.67 57.6687 1713.67 42.3968 Q1713.67 27.0843 1719.02 19.0636 Q1724.41 11.0023 1734.57 11.0023 Z" fill="#000000" fill-rule="nonzero" fill-opacity="1" /><path clip-path="url(#clip560)" d="M1769.86 62.2867 L1778.4 62.2867 L1778.4 72.576 L1769.86 72.576 L1769.86 62.2867 Z" fill="#000000" fill-rule="nonzero" fill-opacity="1" /><path clip-path="url(#clip560)" d="M1821.02 39.9662 Q1826.89 41.222 1830.18 45.1919 Q1833.5 49.1618 1833.5 54.9951 Q1833.5 63.9476 1827.34 68.8492 Q1821.18 73.7508 1809.84 73.7508 Q1806.03 73.7508 1801.98 72.9811 Q1797.97 72.2519 1793.68 70.7531 L1793.68 62.8538 Q1797.08 64.8388 1801.13 65.8515 Q1805.18 66.8642 1809.6 66.8642 Q1817.29 66.8642 1821.3 63.826 Q1825.35 60.7879 1825.35 54.9951 Q1825.35 49.6479 1821.59 46.6502 Q1817.86 43.612 1811.18 43.612 L1804.13 43.612 L1804.13 36.8875 L1811.5 36.8875 Q1817.54 36.8875 1820.74 34.4975 Q1823.94 32.067 1823.94 27.5299 Q1823.94 22.8714 1820.61 20.4004 Q1817.33 17.8888 1811.18 17.8888 Q1807.81 17.8888 1803.97 18.618 Q1800.12 19.3471 1795.5 20.8865 L1795.5 13.5948 Q1800.16 12.2985 1804.21 11.6504 Q1808.3 11.0023 1811.91 11.0023 Q1821.22 11.0023 1826.65 15.2557 Q1832.08 19.4686 1832.08 26.6793 Q1832.08 31.7024 1829.2 35.1862 Q1826.33 38.6294 1821.02 39.9662 Z" fill="#000000" fill-rule="nonzero" fill-opacity="1" /><path clip-path="url(#clip560)" d="M1846.78 9.62495 L1853.27 9.62495 Q1859.34 19.1851 1862.34 28.3401 Q1865.38 37.4952 1865.38 46.5287 Q1865.38 55.6027 1862.34 64.7983 Q1859.34 73.9938 1853.27 83.5134 L1846.78 83.5134 Q1852.17 74.2369 1854.8 65.0818 Q1857.48 55.8863 1857.48 46.5287 Q1857.48 37.1711 1854.8 28.0566 Q1852.17 18.942 1846.78 9.62495 Z" fill="#000000" fill-rule="nonzero" fill-opacity="1" /><polyline clip-path="url(#clip562)" style="stroke:#009af9; stroke-linecap:round; stroke-linejoin:round; stroke-width:8; stroke-opacity:1; fill:none" points="198.924,1143.68 217.582,1142.09 236.24,1140.46 254.899,1138.78 273.557,1137.04 292.215,1135.25 310.874,1133.41 329.532,1131.52 348.19,1129.56 366.848,1127.55 385.507,1125.47 404.165,1123.33 422.823,1121.13 441.482,1118.86 460.14,1116.51 478.798,1114.1 497.457,1111.62 516.115,1109.06 534.773,1106.42 553.432,1103.7 572.09,1100.9 590.748,1098.01 609.407,1095.03 628.065,1091.97 646.723,1088.81 665.382,1085.55 684.04,1082.2 702.698,1078.74 721.357,1075.18 740.015,1071.5 758.673,1067.72 777.332,1063.82 795.99,1059.81 814.648,1055.67 833.307,1051.4 851.965,1047.01 870.623,1042.48 889.282,1037.81 907.94,1033 926.598,1028.05 945.257,1022.94 963.915,1017.68 982.573,1012.26 1001.23,1006.67 1019.89,1000.92 1038.55,994.983 1057.21,988.87 1075.86,982.57 1094.52,976.079 1113.18,969.39 1131.84,962.498 1150.5,955.396 1169.16,948.077 1187.81,940.536 1206.47,932.765 1225.13,924.757 1243.79,916.505 1262.45,908.002 1281.11,899.239 1299.76,890.21 1318.42,880.906 1337.08,871.318 1355.74,861.439 1374.4,851.258 1393.06,840.768 1411.71,829.958 1430.37,818.819 1449.03,807.341 1467.69,795.514 1486.35,783.327 1505.01,770.769 1523.66,757.828 1542.32,744.494 1560.98,730.753 1579.64,716.593 1598.3,702.002 1616.96,686.965 1635.61,671.471 1654.27,655.505 1672.93,639.052 1691.59,622.098 1710.25,604.628 1728.91,586.627 1747.56,568.077 1766.22,548.962 1784.88,529.265 1803.54,508.969 1822.2,488.055 1840.86,466.505 1859.51,444.298 1878.17,421.415 1896.83,397.836 1915.49,373.538 1934.15,348.499 1952.81,322.698 1971.46,296.11 1990.12,268.712 2008.78,240.48 2027.44,211.387 2046.1,181.409 2064.76,150.518 "/>
<path clip-path="url(#clip560)" d="M261.118 259.495 L525.224 259.495 L525.224 155.815 L261.118 155.815  Z" fill="#ffffff" fill-rule="evenodd" fill-opacity="1"/>
<polyline clip-path="url(#clip560)" style="stroke:#000000; stroke-linecap:round; stroke-linejoin:round; stroke-width:4; stroke-opacity:1; fill:none" points="261.118,259.495 525.224,259.495 525.224,155.815 261.118,155.815 261.118,259.495 "/>
<polyline clip-path="url(#clip560)" style="stroke:#009af9; stroke-linecap:round; stroke-linejoin:round; stroke-width:8; stroke-opacity:1; fill:none" points="281.849,207.655 406.238,207.655 "/>
<path clip-path="url(#clip560)" d="M426.97 214.703 L426.97 199.009 L431.229 199.009 L431.229 214.541 Q431.229 218.222 432.664 220.074 Q434.099 221.902 436.97 221.902 Q440.419 221.902 442.409 219.703 Q444.423 217.504 444.423 213.708 L444.423 199.009 L448.683 199.009 L448.683 224.935 L444.423 224.935 L444.423 220.953 Q442.872 223.314 440.812 224.472 Q438.775 225.606 436.067 225.606 Q431.599 225.606 429.285 222.828 Q426.97 220.05 426.97 214.703 M437.687 198.384 L437.687 198.384 Z" fill="#000000" fill-rule="nonzero" fill-opacity="1" /><path clip-path="url(#clip560)" d="M467.687 188.963 Q464.585 194.287 463.081 199.495 Q461.576 204.703 461.576 210.05 Q461.576 215.398 463.081 220.652 Q464.608 225.884 467.687 231.185 L463.983 231.185 Q460.511 225.745 458.775 220.49 Q457.062 215.236 457.062 210.05 Q457.062 204.888 458.775 199.657 Q460.488 194.426 463.983 188.963 L467.687 188.963 Z" fill="#000000" fill-rule="nonzero" fill-opacity="1" /><path clip-path="url(#clip560)" d="M480.164 191.648 L480.164 199.009 L488.937 199.009 L488.937 202.319 L480.164 202.319 L480.164 216.393 Q480.164 219.564 481.02 220.467 Q481.9 221.37 484.562 221.37 L488.937 221.37 L488.937 224.935 L484.562 224.935 Q479.632 224.935 477.757 223.106 Q475.882 221.254 475.882 216.393 L475.882 202.319 L472.757 202.319 L472.757 199.009 L475.882 199.009 L475.882 191.648 L480.164 191.648 Z" fill="#000000" fill-rule="nonzero" fill-opacity="1" /><path clip-path="url(#clip560)" d="M493.868 188.963 L497.571 188.963 Q501.043 194.426 502.756 199.657 Q504.492 204.888 504.492 210.05 Q504.492 215.236 502.756 220.49 Q501.043 225.745 497.571 231.185 L493.868 231.185 Q496.946 225.884 498.451 220.652 Q499.979 215.398 499.979 210.05 Q499.979 204.703 498.451 199.495 Q496.946 194.287 493.868 188.963 Z" fill="#000000" fill-rule="nonzero" fill-opacity="1" /></svg>
