<?xml version="1.0" encoding="utf-8"?>
<svg xmlns="http://www.w3.org/2000/svg" xmlns:xlink="http://www.w3.org/1999/xlink" width="528" height="336" viewBox="0 0 2112 1344">
<defs>
  <clipPath id="clip390">
    <rect x="0" y="0" width="2112" height="1344"/>
  </clipPath>
</defs>
<path clip-path="url(#clip390)" d="M0 1344 L2112 1344 L2112 0 L0 0  Z" fill="#ffffff" fill-rule="evenodd" fill-opacity="1"/>
<defs>
  <clipPath id="clip391">
    <rect x="170" y="120" width="1895" height="1054"/>
  </clipPath>
</defs>
<path clip-path="url(#clip390)" d="M423.556 1173.47 L2064.76 1173.47 L2064.76 120.723 L423.556 120.723  Z" fill="#ffffff" fill-rule="evenodd" fill-opacity="1"/>
<defs>
  <clipPath id="clip392">
    <rect x="423" y="120" width="1642" height="1054"/>
  </clipPath>
</defs>
<polyline clip-path="url(#clip392)" style="stroke:#000000; stroke-linecap:round; stroke-linejoin:round; stroke-width:2; stroke-opacity:0.1; fill:none" points="642.039,1173.47 642.039,120.723 "/>
<polyline clip-path="url(#clip392)" style="stroke:#000000; stroke-linecap:round; stroke-linejoin:round; stroke-width:2; stroke-opacity:0.1; fill:none" points="986.106,1173.47 986.106,120.723 "/>
<polyline clip-path="url(#clip392)" style="stroke:#000000; stroke-linecap:round; stroke-linejoin:round; stroke-width:2; stroke-opacity:0.1; fill:none" points="1330.17,1173.47 1330.17,120.723 "/>
<polyline clip-path="url(#clip392)" style="stroke:#000000; stroke-linecap:round; stroke-linejoin:round; stroke-width:2; stroke-opacity:0.1; fill:none" points="1674.24,1173.47 1674.24,120.723 "/>
<polyline clip-path="url(#clip392)" style="stroke:#000000; stroke-linecap:round; stroke-linejoin:round; stroke-width:2; stroke-opacity:0.1; fill:none" points="2018.31,1173.47 2018.31,120.723 "/>
<polyline clip-path="url(#clip392)" style="stroke:#000000; stroke-linecap:round; stroke-linejoin:round; stroke-width:2; stroke-opacity:0.1; fill:none" points="423.556,1040.95 2064.76,1040.95 "/>
<polyline clip-path="url(#clip392)" style="stroke:#000000; stroke-linecap:round; stroke-linejoin:round; stroke-width:2; stroke-opacity:0.1; fill:none" points="423.556,850.36 2064.76,850.36 "/>
<polyline clip-path="url(#clip392)" style="stroke:#000000; stroke-linecap:round; stroke-linejoin:round; stroke-width:2; stroke-opacity:0.1; fill:none" points="423.556,659.771 2064.76,659.771 "/>
<polyline clip-path="url(#clip392)" style="stroke:#000000; stroke-linecap:round; stroke-linejoin:round; stroke-width:2; stroke-opacity:0.1; fill:none" points="423.556,469.182 2064.76,469.182 "/>
<polyline clip-path="url(#clip392)" style="stroke:#000000; stroke-linecap:round; stroke-linejoin:round; stroke-width:2; stroke-opacity:0.1; fill:none" points="423.556,278.593 2064.76,278.593 "/>
<polyline clip-path="url(#clip390)" style="stroke:#000000; stroke-linecap:round; stroke-linejoin:round; stroke-width:4; stroke-opacity:1; fill:none" points="423.556,1173.47 2064.76,1173.47 "/>
<polyline clip-path="url(#clip390)" style="stroke:#000000; stroke-linecap:round; stroke-linejoin:round; stroke-width:4; stroke-opacity:1; fill:none" points="642.039,1173.47 642.039,1154.57 "/>
<polyline clip-path="url(#clip390)" style="stroke:#000000; stroke-linecap:round; stroke-linejoin:round; stroke-width:4; stroke-opacity:1; fill:none" points="986.106,1173.47 986.106,1154.57 "/>
<polyline clip-path="url(#clip390)" style="stroke:#000000; stroke-linecap:round; stroke-linejoin:round; stroke-width:4; stroke-opacity:1; fill:none" points="1330.17,1173.47 1330.17,1154.57 "/>
<polyline clip-path="url(#clip390)" style="stroke:#000000; stroke-linecap:round; stroke-linejoin:round; stroke-width:4; stroke-opacity:1; fill:none" points="1674.24,1173.47 1674.24,1154.57 "/>
<polyline clip-path="url(#clip390)" style="stroke:#000000; stroke-linecap:round; stroke-linejoin:round; stroke-width:4; stroke-opacity:1; fill:none" points="2018.31,1173.47 2018.31,1154.57 "/>
<path clip-path="url(#clip390)" d="M620.222 1202.09 Q616.611 1202.09 614.782 1205.65 Q612.977 1209.19 612.977 1216.32 Q612.977 1223.43 614.782 1226.99 Q616.611 1230.53 620.222 1230.53 Q623.856 1230.53 625.662 1226.99 Q627.49 1223.43 627.49 1216.32 Q627.49 1209.19 625.662 1205.65 Q623.856 1202.09 620.222 1202.09 M620.222 1198.38 Q626.032 1198.38 629.088 1202.99 Q632.166 1207.57 632.166 1216.32 Q632.166 1225.05 629.088 1229.65 Q626.032 1234.24 620.222 1234.24 Q614.412 1234.24 611.333 1229.65 Q608.277 1225.05 608.277 1216.32 Q608.277 1207.57 611.333 1202.99 Q614.412 1198.38 620.222 1198.38 Z" fill="#000000" fill-rule="nonzero" fill-opacity="1" /><path clip-path="url(#clip390)" d="M640.384 1227.69 L645.268 1227.69 L645.268 1233.57 L640.384 1233.57 L640.384 1227.69 Z" fill="#000000" fill-rule="nonzero" fill-opacity="1" /><path clip-path="url(#clip390)" d="M659.481 1229.63 L675.8 1229.63 L675.8 1233.57 L653.856 1233.57 L653.856 1229.63 Q656.518 1226.88 661.101 1222.25 Q665.708 1217.59 666.888 1216.25 Q669.134 1213.73 670.013 1211.99 Q670.916 1210.23 670.916 1208.54 Q670.916 1205.79 668.972 1204.05 Q667.05 1202.32 663.948 1202.32 Q661.749 1202.32 659.296 1203.08 Q656.865 1203.84 654.087 1205.4 L654.087 1200.67 Q656.911 1199.54 659.365 1198.96 Q661.819 1198.38 663.856 1198.38 Q669.226 1198.38 672.421 1201.07 Q675.615 1203.75 675.615 1208.24 Q675.615 1210.37 674.805 1212.29 Q674.018 1214.19 671.911 1216.78 Q671.333 1217.46 668.231 1220.67 Q665.129 1223.87 659.481 1229.63 Z" fill="#000000" fill-rule="nonzero" fill-opacity="1" /><path clip-path="url(#clip390)" d="M963.247 1202.09 Q959.636 1202.09 957.807 1205.65 Q956.002 1209.19 956.002 1216.32 Q956.002 1223.43 957.807 1226.99 Q959.636 1230.53 963.247 1230.53 Q966.881 1230.53 968.687 1226.99 Q970.516 1223.43 970.516 1216.32 Q970.516 1209.19 968.687 1205.65 Q966.881 1202.09 963.247 1202.09 M963.247 1198.38 Q969.057 1198.38 972.113 1202.99 Q975.192 1207.57 975.192 1216.32 Q975.192 1225.05 972.113 1229.65 Q969.057 1234.24 963.247 1234.24 Q957.437 1234.24 954.358 1229.65 Q951.303 1225.05 951.303 1216.32 Q951.303 1207.57 954.358 1202.99 Q957.437 1198.38 963.247 1198.38 Z" fill="#000000" fill-rule="nonzero" fill-opacity="1" /><path clip-path="url(#clip390)" d="M983.409 1227.69 L988.293 1227.69 L988.293 1233.57 L983.409 1233.57 L983.409 1227.69 Z" fill="#000000" fill-rule="nonzero" fill-opacity="1" /><path clip-path="url(#clip390)" d="M1011.33 1203.08 L999.52 1221.53 L1011.33 1221.53 L1011.33 1203.08 M1010.1 1199.01 L1015.98 1199.01 L1015.98 1221.53 L1020.91 1221.53 L1020.91 1225.42 L1015.98 1225.42 L1015.98 1233.57 L1011.33 1233.57 L1011.33 1225.42 L995.724 1225.42 L995.724 1220.9 L1010.1 1199.01 Z" fill="#000000" fill-rule="nonzero" fill-opacity="1" /><path clip-path="url(#clip390)" d="M1307.48 1202.09 Q1303.87 1202.09 1302.04 1205.65 Q1300.23 1209.19 1300.23 1216.32 Q1300.23 1223.43 1302.04 1226.99 Q1303.87 1230.53 1307.48 1230.53 Q1311.11 1230.53 1312.92 1226.99 Q1314.74 1223.43 1314.74 1216.32 Q1314.74 1209.19 1312.92 1205.65 Q1311.11 1202.09 1307.48 1202.09 M1307.48 1198.38 Q1313.29 1198.38 1316.34 1202.99 Q1319.42 1207.57 1319.42 1216.32 Q1319.42 1225.05 1316.34 1229.65 Q1313.29 1234.24 1307.48 1234.24 Q1301.67 1234.24 1298.59 1229.65 Q1295.53 1225.05 1295.53 1216.32 Q1295.53 1207.57 1298.59 1202.99 Q1301.67 1198.38 1307.48 1198.38 Z" fill="#000000" fill-rule="nonzero" fill-opacity="1" /><path clip-path="url(#clip390)" d="M1327.64 1227.69 L1332.52 1227.69 L1332.52 1233.57 L1327.64 1233.57 L1327.64 1227.69 Z" fill="#000000" fill-rule="nonzero" fill-opacity="1" /><path clip-path="url(#clip390)" d="M1353.29 1214.42 Q1350.14 1214.42 1348.29 1216.58 Q1346.46 1218.73 1346.46 1222.48 Q1346.46 1226.21 1348.29 1228.38 Q1350.14 1230.53 1353.29 1230.53 Q1356.43 1230.53 1358.26 1228.38 Q1360.11 1226.21 1360.11 1222.48 Q1360.11 1218.73 1358.26 1216.58 Q1356.43 1214.42 1353.29 1214.42 M1362.57 1199.77 L1362.57 1204.03 Q1360.81 1203.2 1359 1202.76 Q1357.22 1202.32 1355.46 1202.32 Q1350.83 1202.32 1348.38 1205.44 Q1345.95 1208.57 1345.6 1214.89 Q1346.97 1212.87 1349.03 1211.81 Q1351.09 1210.72 1353.56 1210.72 Q1358.77 1210.72 1361.78 1213.89 Q1364.81 1217.04 1364.81 1222.48 Q1364.81 1227.8 1361.67 1231.02 Q1358.52 1234.24 1353.29 1234.24 Q1347.29 1234.24 1344.12 1229.65 Q1340.95 1225.05 1340.95 1216.32 Q1340.95 1208.13 1344.84 1203.27 Q1348.73 1198.38 1355.28 1198.38 Q1357.04 1198.38 1358.82 1198.73 Q1360.62 1199.08 1362.57 1199.77 Z" fill="#000000" fill-rule="nonzero" fill-opacity="1" /><path clip-path="url(#clip390)" d="M1651.67 1202.09 Q1648.06 1202.09 1646.23 1205.65 Q1644.43 1209.19 1644.43 1216.32 Q1644.43 1223.43 1646.23 1226.99 Q1648.06 1230.53 1651.67 1230.53 Q1655.3 1230.53 1657.11 1226.99 Q1658.94 1223.43 1658.94 1216.32 Q1658.94 1209.19 1657.11 1205.65 Q1655.3 1202.09 1651.67 1202.09 M1651.67 1198.38 Q1657.48 1198.38 1660.54 1202.99 Q1663.61 1207.57 1663.61 1216.32 Q1663.61 1225.05 1660.54 1229.65 Q1657.48 1234.24 1651.67 1234.24 Q1645.86 1234.24 1642.78 1229.65 Q1639.73 1225.05 1639.73 1216.32 Q1639.73 1207.57 1642.78 1202.99 Q1645.86 1198.38 1651.67 1198.38 Z" fill="#000000" fill-rule="nonzero" fill-opacity="1" /><path clip-path="url(#clip390)" d="M1671.83 1227.69 L1676.72 1227.69 L1676.72 1233.57 L1671.83 1233.57 L1671.83 1227.69 Z" fill="#000000" fill-rule="nonzero" fill-opacity="1" /><path clip-path="url(#clip390)" d="M1696.9 1217.15 Q1693.57 1217.15 1691.65 1218.94 Q1689.75 1220.72 1689.75 1223.84 Q1689.75 1226.97 1691.65 1228.75 Q1693.57 1230.53 1696.9 1230.53 Q1700.24 1230.53 1702.16 1228.75 Q1704.08 1226.95 1704.08 1223.84 Q1704.08 1220.72 1702.16 1218.94 Q1700.26 1217.15 1696.9 1217.15 M1692.23 1215.16 Q1689.22 1214.42 1687.53 1212.36 Q1685.86 1210.3 1685.86 1207.34 Q1685.86 1203.2 1688.8 1200.79 Q1691.76 1198.38 1696.9 1198.38 Q1702.06 1198.38 1705 1200.79 Q1707.94 1203.2 1707.94 1207.34 Q1707.94 1210.3 1706.25 1212.36 Q1704.59 1214.42 1701.6 1215.16 Q1704.98 1215.95 1706.86 1218.24 Q1708.75 1220.53 1708.75 1223.84 Q1708.75 1228.87 1705.67 1231.55 Q1702.62 1234.24 1696.9 1234.24 Q1691.18 1234.24 1688.11 1231.55 Q1685.05 1228.87 1685.05 1223.84 Q1685.05 1220.53 1686.95 1218.24 Q1688.85 1215.95 1692.23 1215.16 M1690.51 1207.78 Q1690.51 1210.47 1692.18 1211.97 Q1693.87 1213.47 1696.9 1213.47 Q1699.91 1213.47 1701.6 1211.97 Q1703.31 1210.47 1703.31 1207.78 Q1703.31 1205.09 1701.6 1203.59 Q1699.91 1202.09 1696.9 1202.09 Q1693.87 1202.09 1692.18 1203.59 Q1690.51 1205.09 1690.51 1207.78 Z" fill="#000000" fill-rule="nonzero" fill-opacity="1" /><path clip-path="url(#clip390)" d="M1985.46 1229.63 L1993.1 1229.63 L1993.1 1203.27 L1984.79 1204.93 L1984.79 1200.67 L1993.05 1199.01 L1997.73 1199.01 L1997.73 1229.63 L2005.37 1229.63 L2005.37 1233.57 L1985.46 1233.57 L1985.46 1229.63 Z" fill="#000000" fill-rule="nonzero" fill-opacity="1" /><path clip-path="url(#clip390)" d="M2014.81 1227.69 L2019.7 1227.69 L2019.7 1233.57 L2014.81 1233.57 L2014.81 1227.69 Z" fill="#000000" fill-rule="nonzero" fill-opacity="1" /><path clip-path="url(#clip390)" d="M2039.88 1202.09 Q2036.27 1202.09 2034.44 1205.65 Q2032.64 1209.19 2032.64 1216.32 Q2032.64 1223.43 2034.44 1226.99 Q2036.27 1230.53 2039.88 1230.53 Q2043.52 1230.53 2045.32 1226.99 Q2047.15 1223.43 2047.15 1216.32 Q2047.15 1209.19 2045.32 1205.65 Q2043.52 1202.09 2039.88 1202.09 M2039.88 1198.38 Q2045.69 1198.38 2048.75 1202.99 Q2051.83 1207.57 2051.83 1216.32 Q2051.83 1225.05 2048.75 1229.65 Q2045.69 1234.24 2039.88 1234.24 Q2034.07 1234.24 2030.99 1229.65 Q2027.94 1225.05 2027.94 1216.32 Q2027.94 1207.57 2030.99 1202.99 Q2034.07 1198.38 2039.88 1198.38 Z" fill="#000000" fill-rule="nonzero" fill-opacity="1" /><path clip-path="url(#clip390)" d="M976.669 1270.16 L976.669 1276.93 Q973.423 1273.91 969.731 1272.41 Q966.07 1270.92 961.933 1270.92 Q953.784 1270.92 949.456 1275.92 Q945.127 1280.88 945.127 1290.3 Q945.127 1299.69 949.456 1304.69 Q953.784 1309.65 961.933 1309.65 Q966.07 1309.65 969.731 1308.16 Q973.423 1306.66 976.669 1303.64 L976.669 1310.35 Q973.295 1312.65 969.508 1313.79 Q965.752 1314.94 961.551 1314.94 Q950.761 1314.94 944.554 1308.35 Q938.348 1301.73 938.348 1290.3 Q938.348 1278.84 944.554 1272.26 Q950.761 1265.64 961.551 1265.64 Q965.816 1265.64 969.571 1266.78 Q973.359 1267.9 976.669 1270.16 Z" fill="#000000" fill-rule="nonzero" fill-opacity="1" /><path clip-path="url(#clip390)" d="M986.122 1278.37 L991.947 1278.37 L991.947 1295.11 L1008.47 1278.37 L1015.66 1278.37 L1002.04 1292.15 L1017.41 1314.01 L1010.85 1314.01 L998.217 1296.03 L991.947 1302.4 L991.947 1314.01 L986.122 1314.01 L986.122 1278.37 Z" fill="#000000" fill-rule="nonzero" fill-opacity="1" /><path clip-path="url(#clip390)" d="M1039.53 1282.47 Q1034.82 1282.47 1032.08 1286.16 Q1029.35 1289.83 1029.35 1296.22 Q1029.35 1302.62 1032.05 1306.31 Q1034.79 1309.97 1039.53 1309.97 Q1044.21 1309.97 1046.95 1306.28 Q1049.68 1302.59 1049.68 1296.22 Q1049.68 1289.89 1046.95 1286.2 Q1044.21 1282.47 1039.53 1282.47 M1039.53 1277.51 Q1047.17 1277.51 1051.53 1282.47 Q1055.89 1287.44 1055.89 1296.22 Q1055.89 1304.98 1051.53 1309.97 Q1047.17 1314.94 1039.53 1314.94 Q1031.86 1314.94 1027.5 1309.97 Q1023.17 1304.98 1023.17 1296.22 Q1023.17 1287.44 1027.5 1282.47 Q1031.86 1277.51 1039.53 1277.51 Z" fill="#000000" fill-rule="nonzero" fill-opacity="1" /><path clip-path="url(#clip390)" d="M1071.26 1308.67 L1071.26 1327.57 L1065.38 1327.57 L1065.38 1278.37 L1071.26 1278.37 L1071.26 1283.78 Q1073.11 1280.59 1075.91 1279.07 Q1078.74 1277.51 1082.66 1277.51 Q1089.15 1277.51 1093.19 1282.66 Q1097.27 1287.82 1097.27 1296.22 Q1097.27 1304.63 1093.19 1309.78 Q1089.15 1314.94 1082.66 1314.94 Q1078.74 1314.94 1075.91 1313.41 Q1073.11 1311.85 1071.26 1308.67 M1091.19 1296.22 Q1091.19 1289.76 1088.51 1286.1 Q1085.87 1282.41 1081.23 1282.41 Q1076.58 1282.41 1073.91 1286.1 Q1071.26 1289.76 1071.26 1296.22 Q1071.26 1302.68 1073.91 1306.38 Q1076.58 1310.04 1081.23 1310.04 Q1085.87 1310.04 1088.51 1306.38 Q1091.19 1302.68 1091.19 1296.22 Z" fill="#000000" fill-rule="nonzero" fill-opacity="1" /><path clip-path="url(#clip390)" d="M1120.79 1282.47 Q1116.08 1282.47 1113.34 1286.16 Q1110.6 1289.83 1110.6 1296.22 Q1110.6 1302.62 1113.31 1306.31 Q1116.05 1309.97 1120.79 1309.97 Q1125.47 1309.97 1128.2 1306.28 Q1130.94 1302.59 1130.94 1296.22 Q1130.94 1289.89 1128.2 1286.2 Q1125.47 1282.47 1120.79 1282.47 M1120.79 1277.51 Q1128.43 1277.51 1132.79 1282.47 Q1137.15 1287.44 1137.15 1296.22 Q1137.15 1304.98 1132.79 1309.97 Q1128.43 1314.94 1120.79 1314.94 Q1113.12 1314.94 1108.76 1309.97 Q1104.43 1304.98 1104.43 1296.22 Q1104.43 1287.44 1108.76 1282.47 Q1113.12 1277.51 1120.79 1277.51 Z" fill="#000000" fill-rule="nonzero" fill-opacity="1" /><path clip-path="url(#clip390)" d="M1172.51 1279.74 L1172.51 1285.21 Q1170.03 1283.84 1167.51 1283.17 Q1165.03 1282.47 1162.48 1282.47 Q1156.79 1282.47 1153.64 1286.1 Q1150.48 1289.7 1150.48 1296.22 Q1150.48 1302.75 1153.64 1306.38 Q1156.79 1309.97 1162.48 1309.97 Q1165.03 1309.97 1167.51 1309.3 Q1170.03 1308.6 1172.51 1307.24 L1172.51 1312.65 Q1170.06 1313.79 1167.42 1314.36 Q1164.81 1314.94 1161.85 1314.94 Q1153.79 1314.94 1149.05 1309.88 Q1144.31 1304.82 1144.31 1296.22 Q1144.31 1287.5 1149.08 1282.5 Q1153.89 1277.51 1162.23 1277.51 Q1164.93 1277.51 1167.51 1278.08 Q1170.09 1278.62 1172.51 1279.74 Z" fill="#000000" fill-rule="nonzero" fill-opacity="1" /><path clip-path="url(#clip390)" d="M1178.46 1278.37 L1212.61 1278.37 L1212.61 1283.05 L1198.42 1283.05 L1198.42 1314.01 L1192.66 1314.01 L1192.66 1283.05 L1178.46 1283.05 L1178.46 1278.37 Z" fill="#000000" fill-rule="nonzero" fill-opacity="1" /><path clip-path="url(#clip390)" d="M1242.85 1303.45 Q1242.85 1300.58 1240.75 1299.09 Q1238.68 1297.59 1234.67 1297.59 L1226.33 1297.59 L1226.33 1309.34 L1234.67 1309.34 Q1238.68 1309.34 1240.75 1307.84 Q1242.85 1306.31 1242.85 1303.45 M1220.44 1278.37 L1226.33 1278.37 L1226.33 1292.91 L1234.93 1292.91 Q1241.74 1292.91 1245.4 1295.52 Q1249.09 1298.1 1249.09 1303.45 Q1249.09 1308.79 1245.4 1311.4 Q1241.74 1314.01 1234.93 1314.01 L1220.44 1314.01 L1220.44 1278.37 Z" fill="#000000" fill-rule="nonzero" fill-opacity="1" /><path clip-path="url(#clip390)" d="M1285.47 1308.67 L1285.47 1327.57 L1279.58 1327.57 L1279.58 1278.37 L1285.47 1278.37 L1285.47 1283.78 Q1287.32 1280.59 1290.12 1279.07 Q1292.95 1277.51 1296.86 1277.51 Q1303.36 1277.51 1307.4 1282.66 Q1311.47 1287.82 1311.47 1296.22 Q1311.47 1304.63 1307.4 1309.78 Q1303.36 1314.94 1296.86 1314.94 Q1292.95 1314.94 1290.12 1313.41 Q1287.32 1311.85 1285.47 1308.67 M1305.39 1296.22 Q1305.39 1289.76 1302.72 1286.1 Q1300.08 1282.41 1295.43 1282.41 Q1290.78 1282.41 1288.11 1286.1 Q1285.47 1289.76 1285.47 1296.22 Q1285.47 1302.68 1288.11 1306.38 Q1290.78 1310.04 1295.43 1310.04 Q1300.08 1310.04 1302.72 1306.38 Q1305.39 1302.68 1305.39 1296.22 Z" fill="#000000" fill-rule="nonzero" fill-opacity="1" /><path clip-path="url(#clip390)" d="M1334.99 1282.47 Q1330.28 1282.47 1327.55 1286.16 Q1324.81 1289.83 1324.81 1296.22 Q1324.81 1302.62 1327.52 1306.31 Q1330.25 1309.97 1334.99 1309.97 Q1339.67 1309.97 1342.41 1306.28 Q1345.15 1302.59 1345.15 1296.22 Q1345.15 1289.89 1342.41 1286.2 Q1339.67 1282.47 1334.99 1282.47 M1334.99 1277.51 Q1342.63 1277.51 1346.99 1282.47 Q1351.35 1287.44 1351.35 1296.22 Q1351.35 1304.98 1346.99 1309.97 Q1342.63 1314.94 1334.99 1314.94 Q1327.32 1314.94 1322.96 1309.97 Q1318.63 1304.98 1318.63 1296.22 Q1318.63 1287.44 1322.96 1282.47 Q1327.32 1277.51 1334.99 1277.51 Z" fill="#000000" fill-rule="nonzero" fill-opacity="1" /><path clip-path="url(#clip390)" d="M1386.72 1279.74 L1386.72 1285.21 Q1384.23 1283.84 1381.72 1283.17 Q1379.24 1282.47 1376.69 1282.47 Q1370.99 1282.47 1367.84 1286.1 Q1364.69 1289.7 1364.69 1296.22 Q1364.69 1302.75 1367.84 1306.38 Q1370.99 1309.97 1376.69 1309.97 Q1379.24 1309.97 1381.72 1309.3 Q1384.23 1308.6 1386.72 1307.24 L1386.72 1312.65 Q1384.27 1313.79 1381.62 1314.36 Q1379.01 1314.94 1376.05 1314.94 Q1368 1314.94 1363.26 1309.88 Q1358.52 1304.82 1358.52 1296.22 Q1358.52 1287.5 1363.29 1282.5 Q1368.1 1277.51 1376.44 1277.51 Q1379.14 1277.51 1381.72 1278.08 Q1384.3 1278.62 1386.72 1279.74 Z" fill="#000000" fill-rule="nonzero" fill-opacity="1" /><path clip-path="url(#clip390)" d="M1392.67 1278.37 L1426.82 1278.37 L1426.82 1283.05 L1412.62 1283.05 L1412.62 1314.01 L1406.86 1314.01 L1406.86 1283.05 L1392.67 1283.05 L1392.67 1278.37 Z" fill="#000000" fill-rule="nonzero" fill-opacity="1" /><path clip-path="url(#clip390)" d="M1451.07 1296.1 Q1443.98 1296.1 1441.24 1297.72 Q1438.5 1299.34 1438.5 1303.26 Q1438.5 1306.38 1440.54 1308.22 Q1442.61 1310.04 1446.14 1310.04 Q1451.01 1310.04 1453.94 1306.6 Q1456.9 1303.13 1456.9 1297.4 L1456.9 1296.1 L1451.07 1296.1 M1462.75 1293.68 L1462.75 1314.01 L1456.9 1314.01 L1456.9 1308.6 Q1454.89 1311.85 1451.9 1313.41 Q1448.91 1314.94 1444.58 1314.94 Q1439.11 1314.94 1435.86 1311.88 Q1432.64 1308.79 1432.64 1303.64 Q1432.64 1297.62 1436.66 1294.57 Q1440.7 1291.51 1448.69 1291.51 L1456.9 1291.51 L1456.9 1290.94 Q1456.9 1286.9 1454.22 1284.7 Q1451.58 1282.47 1446.78 1282.47 Q1443.72 1282.47 1440.82 1283.2 Q1437.93 1283.94 1435.25 1285.4 L1435.25 1279.99 Q1438.47 1278.75 1441.49 1278.14 Q1444.52 1277.51 1447.38 1277.51 Q1455.12 1277.51 1458.94 1281.52 Q1462.75 1285.53 1462.75 1293.68 Z" fill="#000000" fill-rule="nonzero" fill-opacity="1" /><path clip-path="url(#clip390)" d="M1476.31 1305.93 L1483.03 1305.93 L1483.03 1311.4 L1477.81 1321.59 L1473.7 1321.59 L1476.31 1311.4 L1476.31 1305.93 Z" fill="#000000" fill-rule="nonzero" fill-opacity="1" /><path clip-path="url(#clip390)" d="M1537.04 1297.43 L1535.64 1290.08 Q1534.21 1282.54 1528.54 1282.54 Q1524.28 1282.54 1522.34 1286.04 Q1519.89 1290.43 1519.89 1296.22 Q1519.89 1303.22 1522.27 1306.57 Q1524.69 1309.97 1528.54 1309.97 Q1532.81 1309.97 1535.1 1303.19 L1537.04 1297.43 M1540.32 1287.69 L1543.47 1278.37 L1548.69 1278.37 L1542.17 1297.69 L1543.44 1304.66 Q1543.73 1306.22 1544.84 1307.52 Q1546.15 1309.05 1547.16 1309.05 L1549.96 1309.05 L1549.96 1314.01 L1546.46 1314.01 Q1543.47 1314.01 1540.8 1311.34 Q1539.49 1310 1538.95 1307.2 Q1537.49 1310.74 1534.5 1313.51 Q1533.1 1314.81 1528.54 1314.81 Q1521.06 1314.81 1517.44 1309.97 Q1513.71 1304.98 1513.71 1296.22 Q1513.71 1286.87 1517.75 1282.47 Q1522.24 1277.57 1528.54 1277.57 Q1538.44 1277.57 1540.32 1287.69 Z" fill="#000000" fill-rule="nonzero" fill-opacity="1" /><polyline clip-path="url(#clip390)" style="stroke:#000000; stroke-linecap:round; stroke-linejoin:round; stroke-width:4; stroke-opacity:1; fill:none" points="423.556,1173.47 423.556,120.723 "/>
<polyline clip-path="url(#clip390)" style="stroke:#000000; stroke-linecap:round; stroke-linejoin:round; stroke-width:4; stroke-opacity:1; fill:none" points="423.556,1040.95 442.454,1040.95 "/>
<polyline clip-path="url(#clip390)" style="stroke:#000000; stroke-linecap:round; stroke-linejoin:round; stroke-width:4; stroke-opacity:1; fill:none" points="423.556,850.36 442.454,850.36 "/>
<polyline clip-path="url(#clip390)" style="stroke:#000000; stroke-linecap:round; stroke-linejoin:round; stroke-width:4; stroke-opacity:1; fill:none" points="423.556,659.771 442.454,659.771 "/>
<polyline clip-path="url(#clip390)" style="stroke:#000000; stroke-linecap:round; stroke-linejoin:round; stroke-width:4; stroke-opacity:1; fill:none" points="423.556,469.182 442.454,469.182 "/>
<polyline clip-path="url(#clip390)" style="stroke:#000000; stroke-linecap:round; stroke-linejoin:round; stroke-width:4; stroke-opacity:1; fill:none" points="423.556,278.593 442.454,278.593 "/>
<path clip-path="url(#clip390)" d="M129.165 1046.04 Q132.522 1046.76 134.397 1049.03 Q136.295 1051.3 136.295 1054.63 Q136.295 1059.75 132.776 1062.55 Q129.258 1065.35 122.776 1065.35 Q120.6 1065.35 118.286 1064.91 Q115.994 1064.49 113.54 1063.63 L113.54 1059.12 Q115.485 1060.25 117.799 1060.83 Q120.114 1061.41 122.637 1061.41 Q127.035 1061.41 129.327 1059.68 Q131.642 1057.94 131.642 1054.63 Q131.642 1051.57 129.489 1049.86 Q127.36 1048.13 123.54 1048.13 L119.512 1048.13 L119.512 1044.28 L123.725 1044.28 Q127.174 1044.28 129.003 1042.92 Q130.832 1041.53 130.832 1038.94 Q130.832 1036.27 128.934 1034.86 Q127.059 1033.43 123.54 1033.43 Q121.619 1033.43 119.42 1033.84 Q117.221 1034.26 114.582 1035.14 L114.582 1030.97 Q117.244 1030.23 119.559 1029.86 Q121.897 1029.49 123.957 1029.49 Q129.281 1029.49 132.383 1031.92 Q135.484 1034.33 135.484 1038.45 Q135.484 1041.32 133.841 1043.31 Q132.197 1045.28 129.165 1046.04 Z" fill="#000000" fill-rule="nonzero" fill-opacity="1" /><path clip-path="url(#clip390)" d="M145.16 1058.8 L150.045 1058.8 L150.045 1064.68 L145.16 1064.68 L145.16 1058.8 Z" fill="#000000" fill-rule="nonzero" fill-opacity="1" /><path clip-path="url(#clip390)" d="M164.257 1060.74 L180.577 1060.74 L180.577 1064.68 L158.633 1064.68 L158.633 1060.74 Q161.295 1057.99 165.878 1053.36 Q170.484 1048.7 171.665 1047.36 Q173.91 1044.84 174.79 1043.1 Q175.693 1041.34 175.693 1039.65 Q175.693 1036.9 173.748 1035.16 Q171.827 1033.43 168.725 1033.43 Q166.526 1033.43 164.072 1034.19 Q161.642 1034.95 158.864 1036.51 L158.864 1031.78 Q161.688 1030.65 164.142 1030.07 Q166.595 1029.49 168.632 1029.49 Q174.003 1029.49 177.197 1032.18 Q180.392 1034.86 180.392 1039.35 Q180.392 1041.48 179.581 1043.4 Q178.794 1045.3 176.688 1047.89 Q176.109 1048.57 173.007 1051.78 Q169.906 1054.98 164.257 1060.74 Z" fill="#000000" fill-rule="nonzero" fill-opacity="1" /><path clip-path="url(#clip390)" d="M190.438 1030.12 L208.794 1030.12 L208.794 1034.05 L194.72 1034.05 L194.72 1042.52 Q195.739 1042.18 196.757 1042.01 Q197.776 1041.83 198.794 1041.83 Q204.581 1041.83 207.961 1045 Q211.341 1048.17 211.341 1053.59 Q211.341 1059.17 207.868 1062.27 Q204.396 1065.35 198.077 1065.35 Q195.901 1065.35 193.632 1064.98 Q191.387 1064.61 188.98 1063.87 L188.98 1059.17 Q191.063 1060.3 193.285 1060.86 Q195.507 1061.41 197.984 1061.41 Q201.989 1061.41 204.327 1059.31 Q206.665 1057.2 206.665 1053.59 Q206.665 1049.98 204.327 1047.87 Q201.989 1045.76 197.984 1045.76 Q196.109 1045.76 194.234 1046.18 Q192.382 1046.6 190.438 1047.48 L190.438 1030.12 Z" fill="#000000" fill-rule="nonzero" fill-opacity="1" /><path clip-path="url(#clip390)" d="M230.553 1033.19 Q226.942 1033.19 225.114 1036.76 Q223.308 1040.3 223.308 1047.43 Q223.308 1054.54 225.114 1058.1 Q226.942 1061.64 230.553 1061.64 Q234.188 1061.64 235.993 1058.1 Q237.822 1054.54 237.822 1047.43 Q237.822 1040.3 235.993 1036.76 Q234.188 1033.19 230.553 1033.19 M230.553 1029.49 Q236.364 1029.49 239.419 1034.1 Q242.498 1038.68 242.498 1047.43 Q242.498 1056.16 239.419 1060.76 Q236.364 1065.35 230.553 1065.35 Q224.743 1065.35 221.665 1060.76 Q218.609 1056.16 218.609 1047.43 Q218.609 1038.68 221.665 1034.1 Q224.743 1029.49 230.553 1029.49 Z" fill="#000000" fill-rule="nonzero" fill-opacity="1" /><path clip-path="url(#clip390)" d="M278.886 1039.21 L268.308 1049.84 L278.886 1060.42 L276.132 1063.22 L265.507 1052.59 L254.882 1063.22 L252.151 1060.42 L262.706 1049.84 L252.151 1039.21 L254.882 1036.41 L265.507 1047.04 L276.132 1036.41 L278.886 1039.21 Z" fill="#000000" fill-rule="nonzero" fill-opacity="1" /><path clip-path="url(#clip390)" d="M291.248 1060.74 L298.886 1060.74 L298.886 1034.38 L290.576 1036.04 L290.576 1031.78 L298.84 1030.12 L303.516 1030.12 L303.516 1060.74 L311.155 1060.74 L311.155 1064.68 L291.248 1064.68 L291.248 1060.74 Z" fill="#000000" fill-rule="nonzero" fill-opacity="1" /><path clip-path="url(#clip390)" d="M330.599 1033.19 Q326.988 1033.19 325.159 1036.76 Q323.354 1040.3 323.354 1047.43 Q323.354 1054.54 325.159 1058.1 Q326.988 1061.64 330.599 1061.64 Q334.233 1061.64 336.039 1058.1 Q337.868 1054.54 337.868 1047.43 Q337.868 1040.3 336.039 1036.76 Q334.233 1033.19 330.599 1033.19 M330.599 1029.49 Q336.409 1029.49 339.465 1034.1 Q342.544 1038.68 342.544 1047.43 Q342.544 1056.16 339.465 1060.76 Q336.409 1065.35 330.599 1065.35 Q324.789 1065.35 321.71 1060.76 Q318.655 1056.16 318.655 1047.43 Q318.655 1038.68 321.71 1034.1 Q324.789 1029.49 330.599 1029.49 Z" fill="#000000" fill-rule="nonzero" fill-opacity="1" /><path clip-path="url(#clip390)" d="M342.544 1023.59 L366.655 1023.59 L366.655 1026.79 L342.544 1026.79 L342.544 1023.59 Z" fill="#000000" fill-rule="nonzero" fill-opacity="1" /><path clip-path="url(#clip390)" d="M374.893 1009.19 L389.807 1009.19 L389.807 1012.38 L378.372 1012.38 L378.372 1019.27 Q379.2 1018.98 380.027 1018.85 Q380.855 1018.7 381.683 1018.7 Q386.384 1018.7 389.13 1021.28 Q391.876 1023.86 391.876 1028.26 Q391.876 1032.79 389.055 1035.31 Q386.234 1037.81 381.099 1037.81 Q379.332 1037.81 377.488 1037.51 Q375.664 1037.21 373.708 1036.61 L373.708 1032.79 Q375.401 1033.71 377.206 1034.16 Q379.012 1034.61 381.024 1034.61 Q384.278 1034.61 386.178 1032.9 Q388.077 1031.19 388.077 1028.26 Q388.077 1025.32 386.178 1023.61 Q384.278 1021.9 381.024 1021.9 Q379.501 1021.9 377.977 1022.24 Q376.473 1022.58 374.893 1023.29 L374.893 1009.19 Z" fill="#000000" fill-rule="nonzero" fill-opacity="1" /><path clip-path="url(#clip390)" d="M129.165 855.453 Q132.522 856.171 134.397 858.439 Q136.295 860.708 136.295 864.041 Q136.295 869.157 132.776 871.958 Q129.258 874.759 122.776 874.759 Q120.6 874.759 118.286 874.319 Q115.994 873.902 113.54 873.046 L113.54 868.532 Q115.485 869.666 117.799 870.245 Q120.114 870.824 122.637 870.824 Q127.035 870.824 129.327 869.087 Q131.642 867.351 131.642 864.041 Q131.642 860.986 129.489 859.273 Q127.36 857.537 123.54 857.537 L119.512 857.537 L119.512 853.694 L123.725 853.694 Q127.174 853.694 129.003 852.328 Q130.832 850.939 130.832 848.347 Q130.832 845.685 128.934 844.273 Q127.059 842.838 123.54 842.838 Q121.619 842.838 119.42 843.254 Q117.221 843.671 114.582 844.551 L114.582 840.384 Q117.244 839.643 119.559 839.273 Q121.897 838.902 123.957 838.902 Q129.281 838.902 132.383 841.333 Q135.484 843.74 135.484 847.861 Q135.484 850.731 133.841 852.722 Q132.197 854.689 129.165 855.453 Z" fill="#000000" fill-rule="nonzero" fill-opacity="1" /><path clip-path="url(#clip390)" d="M145.16 868.208 L150.045 868.208 L150.045 874.087 L145.16 874.087 L145.16 868.208 Z" fill="#000000" fill-rule="nonzero" fill-opacity="1" /><path clip-path="url(#clip390)" d="M174.396 855.453 Q177.753 856.171 179.628 858.439 Q181.526 860.708 181.526 864.041 Q181.526 869.157 178.007 871.958 Q174.489 874.759 168.007 874.759 Q165.832 874.759 163.517 874.319 Q161.225 873.902 158.771 873.046 L158.771 868.532 Q160.716 869.666 163.031 870.245 Q165.345 870.824 167.869 870.824 Q172.267 870.824 174.558 869.087 Q176.873 867.351 176.873 864.041 Q176.873 860.986 174.72 859.273 Q172.591 857.537 168.771 857.537 L164.744 857.537 L164.744 853.694 L168.957 853.694 Q172.406 853.694 174.234 852.328 Q176.063 850.939 176.063 848.347 Q176.063 845.685 174.165 844.273 Q172.29 842.838 168.771 842.838 Q166.85 842.838 164.651 843.254 Q162.452 843.671 159.813 844.551 L159.813 840.384 Q162.475 839.643 164.79 839.273 Q167.128 838.902 169.188 838.902 Q174.512 838.902 177.614 841.333 Q180.716 843.74 180.716 847.861 Q180.716 850.731 179.072 852.722 Q177.429 854.689 174.396 855.453 Z" fill="#000000" fill-rule="nonzero" fill-opacity="1" /><path clip-path="url(#clip390)" d="M200.392 842.606 Q196.78 842.606 194.952 846.171 Q193.146 849.713 193.146 856.842 Q193.146 863.949 194.952 867.513 Q196.78 871.055 200.392 871.055 Q204.026 871.055 205.831 867.513 Q207.66 863.949 207.66 856.842 Q207.66 849.713 205.831 846.171 Q204.026 842.606 200.392 842.606 M200.392 838.902 Q206.202 838.902 209.257 843.509 Q212.336 848.092 212.336 856.842 Q212.336 865.569 209.257 870.175 Q206.202 874.759 200.392 874.759 Q194.581 874.759 191.503 870.175 Q188.447 865.569 188.447 856.842 Q188.447 848.092 191.503 843.509 Q194.581 838.902 200.392 838.902 Z" fill="#000000" fill-rule="nonzero" fill-opacity="1" /><path clip-path="url(#clip390)" d="M230.553 842.606 Q226.942 842.606 225.114 846.171 Q223.308 849.713 223.308 856.842 Q223.308 863.949 225.114 867.513 Q226.942 871.055 230.553 871.055 Q234.188 871.055 235.993 867.513 Q237.822 863.949 237.822 856.842 Q237.822 849.713 235.993 846.171 Q234.188 842.606 230.553 842.606 M230.553 838.902 Q236.364 838.902 239.419 843.509 Q242.498 848.092 242.498 856.842 Q242.498 865.569 239.419 870.175 Q236.364 874.759 230.553 874.759 Q224.743 874.759 221.665 870.175 Q218.609 865.569 218.609 856.842 Q218.609 848.092 221.665 843.509 Q224.743 838.902 230.553 838.902 Z" fill="#000000" fill-rule="nonzero" fill-opacity="1" /><path clip-path="url(#clip390)" d="M278.886 848.625 L268.308 859.25 L278.886 869.828 L276.132 872.629 L265.507 862.004 L254.882 872.629 L252.151 869.828 L262.706 859.25 L252.151 848.625 L254.882 845.824 L265.507 856.449 L276.132 845.824 L278.886 848.625 Z" fill="#000000" fill-rule="nonzero" fill-opacity="1" /><path clip-path="url(#clip390)" d="M291.248 870.152 L298.886 870.152 L298.886 843.787 L290.576 845.453 L290.576 841.194 L298.84 839.527 L303.516 839.527 L303.516 870.152 L311.155 870.152 L311.155 874.087 L291.248 874.087 L291.248 870.152 Z" fill="#000000" fill-rule="nonzero" fill-opacity="1" /><path clip-path="url(#clip390)" d="M330.599 842.606 Q326.988 842.606 325.159 846.171 Q323.354 849.713 323.354 856.842 Q323.354 863.949 325.159 867.513 Q326.988 871.055 330.599 871.055 Q334.233 871.055 336.039 867.513 Q337.868 863.949 337.868 856.842 Q337.868 849.713 336.039 846.171 Q334.233 842.606 330.599 842.606 M330.599 838.902 Q336.409 838.902 339.465 843.509 Q342.544 848.092 342.544 856.842 Q342.544 865.569 339.465 870.175 Q336.409 874.759 330.599 874.759 Q324.789 874.759 321.71 870.175 Q318.655 865.569 318.655 856.842 Q318.655 848.092 321.71 843.509 Q324.789 838.902 330.599 838.902 Z" fill="#000000" fill-rule="nonzero" fill-opacity="1" /><path clip-path="url(#clip390)" d="M342.544 833.004 L366.655 833.004 L366.655 836.201 L342.544 836.201 L342.544 833.004 Z" fill="#000000" fill-rule="nonzero" fill-opacity="1" /><path clip-path="url(#clip390)" d="M374.893 818.597 L389.807 818.597 L389.807 821.794 L378.372 821.794 L378.372 828.678 Q379.2 828.396 380.027 828.264 Q380.855 828.114 381.683 828.114 Q386.384 828.114 389.13 830.69 Q391.876 833.267 391.876 837.668 Q391.876 842.201 389.055 844.721 Q386.234 847.222 381.099 847.222 Q379.332 847.222 377.488 846.922 Q375.664 846.621 373.708 846.019 L373.708 842.201 Q375.401 843.122 377.206 843.574 Q379.012 844.025 381.024 844.025 Q384.278 844.025 386.178 842.314 Q388.077 840.602 388.077 837.668 Q388.077 834.734 386.178 833.023 Q384.278 831.311 381.024 831.311 Q379.501 831.311 377.977 831.65 Q376.473 831.988 374.893 832.703 L374.893 818.597 Z" fill="#000000" fill-rule="nonzero" fill-opacity="1" /><path clip-path="url(#clip390)" d="M129.165 664.864 Q132.522 665.582 134.397 667.851 Q136.295 670.119 136.295 673.452 Q136.295 678.568 132.776 681.369 Q129.258 684.17 122.776 684.17 Q120.6 684.17 118.286 683.73 Q115.994 683.313 113.54 682.457 L113.54 677.943 Q115.485 679.077 117.799 679.656 Q120.114 680.235 122.637 680.235 Q127.035 680.235 129.327 678.499 Q131.642 676.763 131.642 673.452 Q131.642 670.397 129.489 668.684 Q127.36 666.948 123.54 666.948 L119.512 666.948 L119.512 663.105 L123.725 663.105 Q127.174 663.105 129.003 661.74 Q130.832 660.351 130.832 657.758 Q130.832 655.096 128.934 653.684 Q127.059 652.249 123.54 652.249 Q121.619 652.249 119.42 652.665 Q117.221 653.082 114.582 653.962 L114.582 649.795 Q117.244 649.054 119.559 648.684 Q121.897 648.314 123.957 648.314 Q129.281 648.314 132.383 650.744 Q135.484 653.152 135.484 657.272 Q135.484 660.142 133.841 662.133 Q132.197 664.101 129.165 664.864 Z" fill="#000000" fill-rule="nonzero" fill-opacity="1" /><path clip-path="url(#clip390)" d="M145.16 677.619 L150.045 677.619 L150.045 683.499 L145.16 683.499 L145.16 677.619 Z" fill="#000000" fill-rule="nonzero" fill-opacity="1" /><path clip-path="url(#clip390)" d="M174.396 664.864 Q177.753 665.582 179.628 667.851 Q181.526 670.119 181.526 673.452 Q181.526 678.568 178.007 681.369 Q174.489 684.17 168.007 684.17 Q165.832 684.17 163.517 683.73 Q161.225 683.313 158.771 682.457 L158.771 677.943 Q160.716 679.077 163.031 679.656 Q165.345 680.235 167.869 680.235 Q172.267 680.235 174.558 678.499 Q176.873 676.763 176.873 673.452 Q176.873 670.397 174.72 668.684 Q172.591 666.948 168.771 666.948 L164.744 666.948 L164.744 663.105 L168.957 663.105 Q172.406 663.105 174.234 661.74 Q176.063 660.351 176.063 657.758 Q176.063 655.096 174.165 653.684 Q172.29 652.249 168.771 652.249 Q166.85 652.249 164.651 652.665 Q162.452 653.082 159.813 653.962 L159.813 649.795 Q162.475 649.054 164.79 648.684 Q167.128 648.314 169.188 648.314 Q174.512 648.314 177.614 650.744 Q180.716 653.152 180.716 657.272 Q180.716 660.142 179.072 662.133 Q177.429 664.101 174.396 664.864 Z" fill="#000000" fill-rule="nonzero" fill-opacity="1" /><path clip-path="url(#clip390)" d="M190.438 648.939 L208.794 648.939 L208.794 652.874 L194.72 652.874 L194.72 661.346 Q195.739 660.999 196.757 660.837 Q197.776 660.652 198.794 660.652 Q204.581 660.652 207.961 663.823 Q211.341 666.994 211.341 672.411 Q211.341 677.989 207.868 681.091 Q204.396 684.17 198.077 684.17 Q195.901 684.17 193.632 683.8 Q191.387 683.429 188.98 682.688 L188.98 677.989 Q191.063 679.124 193.285 679.679 Q195.507 680.235 197.984 680.235 Q201.989 680.235 204.327 678.128 Q206.665 676.022 206.665 672.411 Q206.665 668.8 204.327 666.693 Q201.989 664.587 197.984 664.587 Q196.109 664.587 194.234 665.003 Q192.382 665.42 190.438 666.3 L190.438 648.939 Z" fill="#000000" fill-rule="nonzero" fill-opacity="1" /><path clip-path="url(#clip390)" d="M230.553 652.017 Q226.942 652.017 225.114 655.582 Q223.308 659.124 223.308 666.253 Q223.308 673.36 225.114 676.925 Q226.942 680.466 230.553 680.466 Q234.188 680.466 235.993 676.925 Q237.822 673.36 237.822 666.253 Q237.822 659.124 235.993 655.582 Q234.188 652.017 230.553 652.017 M230.553 648.314 Q236.364 648.314 239.419 652.92 Q242.498 657.503 242.498 666.253 Q242.498 674.98 239.419 679.587 Q236.364 684.17 230.553 684.17 Q224.743 684.17 221.665 679.587 Q218.609 674.98 218.609 666.253 Q218.609 657.503 221.665 652.92 Q224.743 648.314 230.553 648.314 Z" fill="#000000" fill-rule="nonzero" fill-opacity="1" /><path clip-path="url(#clip390)" d="M278.886 658.036 L268.308 668.661 L278.886 679.239 L276.132 682.04 L265.507 671.415 L254.882 682.04 L252.151 679.239 L262.706 668.661 L252.151 658.036 L254.882 655.235 L265.507 665.86 L276.132 655.235 L278.886 658.036 Z" fill="#000000" fill-rule="nonzero" fill-opacity="1" /><path clip-path="url(#clip390)" d="M291.248 679.563 L298.886 679.563 L298.886 653.198 L290.576 654.865 L290.576 650.605 L298.84 648.939 L303.516 648.939 L303.516 679.563 L311.155 679.563 L311.155 683.499 L291.248 683.499 L291.248 679.563 Z" fill="#000000" fill-rule="nonzero" fill-opacity="1" /><path clip-path="url(#clip390)" d="M330.599 652.017 Q326.988 652.017 325.159 655.582 Q323.354 659.124 323.354 666.253 Q323.354 673.36 325.159 676.925 Q326.988 680.466 330.599 680.466 Q334.233 680.466 336.039 676.925 Q337.868 673.36 337.868 666.253 Q337.868 659.124 336.039 655.582 Q334.233 652.017 330.599 652.017 M330.599 648.314 Q336.409 648.314 339.465 652.92 Q342.544 657.503 342.544 666.253 Q342.544 674.98 339.465 679.587 Q336.409 684.17 330.599 684.17 Q324.789 684.17 321.71 679.587 Q318.655 674.98 318.655 666.253 Q318.655 657.503 321.71 652.92 Q324.789 648.314 330.599 648.314 Z" fill="#000000" fill-rule="nonzero" fill-opacity="1" /><path clip-path="url(#clip390)" d="M342.544 642.415 L366.655 642.415 L366.655 645.612 L342.544 645.612 L342.544 642.415 Z" fill="#000000" fill-rule="nonzero" fill-opacity="1" /><path clip-path="url(#clip390)" d="M374.893 628.008 L389.807 628.008 L389.807 631.206 L378.372 631.206 L378.372 638.089 Q379.2 637.807 380.027 637.675 Q380.855 637.525 381.683 637.525 Q386.384 637.525 389.13 640.102 Q391.876 642.678 391.876 647.079 Q391.876 651.612 389.055 654.132 Q386.234 656.634 381.099 656.634 Q379.332 656.634 377.488 656.333 Q375.664 656.032 373.708 655.43 L373.708 651.612 Q375.401 652.534 377.206 652.985 Q379.012 653.436 381.024 653.436 Q384.278 653.436 386.178 651.725 Q388.077 650.013 388.077 647.079 Q388.077 644.145 386.178 642.434 Q384.278 640.722 381.024 640.722 Q379.501 640.722 377.977 641.061 Q376.473 641.399 374.893 642.114 L374.893 628.008 Z" fill="#000000" fill-rule="nonzero" fill-opacity="1" /><path clip-path="url(#clip390)" d="M129.165 474.276 Q132.522 474.993 134.397 477.262 Q136.295 479.53 136.295 482.864 Q136.295 487.979 132.776 490.78 Q129.258 493.581 122.776 493.581 Q120.6 493.581 118.286 493.141 Q115.994 492.725 113.54 491.868 L113.54 487.354 Q115.485 488.489 117.799 489.067 Q120.114 489.646 122.637 489.646 Q127.035 489.646 129.327 487.91 Q131.642 486.174 131.642 482.864 Q131.642 479.808 129.489 478.095 Q127.36 476.359 123.54 476.359 L119.512 476.359 L119.512 472.516 L123.725 472.516 Q127.174 472.516 129.003 471.151 Q130.832 469.762 130.832 467.169 Q130.832 464.507 128.934 463.095 Q127.059 461.66 123.54 461.66 Q121.619 461.66 119.42 462.077 Q117.221 462.493 114.582 463.373 L114.582 459.206 Q117.244 458.466 119.559 458.095 Q121.897 457.725 123.957 457.725 Q129.281 457.725 132.383 460.155 Q135.484 462.563 135.484 466.683 Q135.484 469.553 133.841 471.544 Q132.197 473.512 129.165 474.276 Z" fill="#000000" fill-rule="nonzero" fill-opacity="1" /><path clip-path="url(#clip390)" d="M145.16 487.03 L150.045 487.03 L150.045 492.91 L145.16 492.91 L145.16 487.03 Z" fill="#000000" fill-rule="nonzero" fill-opacity="1" /><path clip-path="url(#clip390)" d="M173.077 462.424 L161.271 480.873 L173.077 480.873 L173.077 462.424 M171.85 458.35 L177.73 458.35 L177.73 480.873 L182.66 480.873 L182.66 484.762 L177.73 484.762 L177.73 492.91 L173.077 492.91 L173.077 484.762 L157.475 484.762 L157.475 480.248 L171.85 458.35 Z" fill="#000000" fill-rule="nonzero" fill-opacity="1" /><path clip-path="url(#clip390)" d="M200.392 461.429 Q196.78 461.429 194.952 464.993 Q193.146 468.535 193.146 475.665 Q193.146 482.771 194.952 486.336 Q196.78 489.877 200.392 489.877 Q204.026 489.877 205.831 486.336 Q207.66 482.771 207.66 475.665 Q207.66 468.535 205.831 464.993 Q204.026 461.429 200.392 461.429 M200.392 457.725 Q206.202 457.725 209.257 462.331 Q212.336 466.915 212.336 475.665 Q212.336 484.391 209.257 488.998 Q206.202 493.581 200.392 493.581 Q194.581 493.581 191.503 488.998 Q188.447 484.391 188.447 475.665 Q188.447 466.915 191.503 462.331 Q194.581 457.725 200.392 457.725 Z" fill="#000000" fill-rule="nonzero" fill-opacity="1" /><path clip-path="url(#clip390)" d="M230.553 461.429 Q226.942 461.429 225.114 464.993 Q223.308 468.535 223.308 475.665 Q223.308 482.771 225.114 486.336 Q226.942 489.877 230.553 489.877 Q234.188 489.877 235.993 486.336 Q237.822 482.771 237.822 475.665 Q237.822 468.535 235.993 464.993 Q234.188 461.429 230.553 461.429 M230.553 457.725 Q236.364 457.725 239.419 462.331 Q242.498 466.915 242.498 475.665 Q242.498 484.391 239.419 488.998 Q236.364 493.581 230.553 493.581 Q224.743 493.581 221.665 488.998 Q218.609 484.391 218.609 475.665 Q218.609 466.915 221.665 462.331 Q224.743 457.725 230.553 457.725 Z" fill="#000000" fill-rule="nonzero" fill-opacity="1" /><path clip-path="url(#clip390)" d="M278.886 467.447 L268.308 478.072 L278.886 488.651 L276.132 491.452 L265.507 480.827 L254.882 491.452 L252.151 488.651 L262.706 478.072 L252.151 467.447 L254.882 464.646 L265.507 475.271 L276.132 464.646 L278.886 467.447 Z" fill="#000000" fill-rule="nonzero" fill-opacity="1" /><path clip-path="url(#clip390)" d="M291.248 488.975 L298.886 488.975 L298.886 462.609 L290.576 464.276 L290.576 460.017 L298.84 458.35 L303.516 458.35 L303.516 488.975 L311.155 488.975 L311.155 492.91 L291.248 492.91 L291.248 488.975 Z" fill="#000000" fill-rule="nonzero" fill-opacity="1" /><path clip-path="url(#clip390)" d="M330.599 461.429 Q326.988 461.429 325.159 464.993 Q323.354 468.535 323.354 475.665 Q323.354 482.771 325.159 486.336 Q326.988 489.877 330.599 489.877 Q334.233 489.877 336.039 486.336 Q337.868 482.771 337.868 475.665 Q337.868 468.535 336.039 464.993 Q334.233 461.429 330.599 461.429 M330.599 457.725 Q336.409 457.725 339.465 462.331 Q342.544 466.915 342.544 475.665 Q342.544 484.391 339.465 488.998 Q336.409 493.581 330.599 493.581 Q324.789 493.581 321.71 488.998 Q318.655 484.391 318.655 475.665 Q318.655 466.915 321.71 462.331 Q324.789 457.725 330.599 457.725 Z" fill="#000000" fill-rule="nonzero" fill-opacity="1" /><path clip-path="url(#clip390)" d="M342.544 451.826 L366.655 451.826 L366.655 455.024 L342.544 455.024 L342.544 451.826 Z" fill="#000000" fill-rule="nonzero" fill-opacity="1" /><path clip-path="url(#clip390)" d="M374.893 437.419 L389.807 437.419 L389.807 440.617 L378.372 440.617 L378.372 447.5 Q379.2 447.218 380.027 447.087 Q380.855 446.936 381.683 446.936 Q386.384 446.936 389.13 449.513 Q391.876 452.09 391.876 456.491 Q391.876 461.023 389.055 463.543 Q386.234 466.045 381.099 466.045 Q379.332 466.045 377.488 465.744 Q375.664 465.443 373.708 464.841 L373.708 461.023 Q375.401 461.945 377.206 462.396 Q379.012 462.848 381.024 462.848 Q384.278 462.848 386.178 461.136 Q388.077 459.425 388.077 456.491 Q388.077 453.557 386.178 451.845 Q384.278 450.134 381.024 450.134 Q379.501 450.134 377.977 450.472 Q376.473 450.811 374.893 451.525 L374.893 437.419 Z" fill="#000000" fill-rule="nonzero" fill-opacity="1" /><path clip-path="url(#clip390)" d="M129.165 283.687 Q132.522 284.404 134.397 286.673 Q136.295 288.941 136.295 292.275 Q136.295 297.391 132.776 300.191 Q129.258 302.992 122.776 302.992 Q120.6 302.992 118.286 302.553 Q115.994 302.136 113.54 301.279 L113.54 296.766 Q115.485 297.9 117.799 298.478 Q120.114 299.057 122.637 299.057 Q127.035 299.057 129.327 297.321 Q131.642 295.585 131.642 292.275 Q131.642 289.219 129.489 287.506 Q127.36 285.77 123.54 285.77 L119.512 285.77 L119.512 281.928 L123.725 281.928 Q127.174 281.928 129.003 280.562 Q130.832 279.173 130.832 276.58 Q130.832 273.918 128.934 272.506 Q127.059 271.071 123.54 271.071 Q121.619 271.071 119.42 271.488 Q117.221 271.905 114.582 272.784 L114.582 268.618 Q117.244 267.877 119.559 267.506 Q121.897 267.136 123.957 267.136 Q129.281 267.136 132.383 269.567 Q135.484 271.974 135.484 276.094 Q135.484 278.965 133.841 280.955 Q132.197 282.923 129.165 283.687 Z" fill="#000000" fill-rule="nonzero" fill-opacity="1" /><path clip-path="url(#clip390)" d="M145.16 296.441 L150.045 296.441 L150.045 302.321 L145.16 302.321 L145.16 296.441 Z" fill="#000000" fill-rule="nonzero" fill-opacity="1" /><path clip-path="url(#clip390)" d="M173.077 271.835 L161.271 290.284 L173.077 290.284 L173.077 271.835 M171.85 267.761 L177.73 267.761 L177.73 290.284 L182.66 290.284 L182.66 294.173 L177.73 294.173 L177.73 302.321 L173.077 302.321 L173.077 294.173 L157.475 294.173 L157.475 289.659 L171.85 267.761 Z" fill="#000000" fill-rule="nonzero" fill-opacity="1" /><path clip-path="url(#clip390)" d="M190.438 267.761 L208.794 267.761 L208.794 271.696 L194.72 271.696 L194.72 280.168 Q195.739 279.821 196.757 279.659 Q197.776 279.474 198.794 279.474 Q204.581 279.474 207.961 282.645 Q211.341 285.817 211.341 291.233 Q211.341 296.812 207.868 299.914 Q204.396 302.992 198.077 302.992 Q195.901 302.992 193.632 302.622 Q191.387 302.252 188.98 301.511 L188.98 296.812 Q191.063 297.946 193.285 298.502 Q195.507 299.057 197.984 299.057 Q201.989 299.057 204.327 296.951 Q206.665 294.844 206.665 291.233 Q206.665 287.622 204.327 285.516 Q201.989 283.409 197.984 283.409 Q196.109 283.409 194.234 283.826 Q192.382 284.242 190.438 285.122 L190.438 267.761 Z" fill="#000000" fill-rule="nonzero" fill-opacity="1" /><path clip-path="url(#clip390)" d="M230.553 270.84 Q226.942 270.84 225.114 274.405 Q223.308 277.946 223.308 285.076 Q223.308 292.182 225.114 295.747 Q226.942 299.289 230.553 299.289 Q234.188 299.289 235.993 295.747 Q237.822 292.182 237.822 285.076 Q237.822 277.946 235.993 274.405 Q234.188 270.84 230.553 270.84 M230.553 267.136 Q236.364 267.136 239.419 271.743 Q242.498 276.326 242.498 285.076 Q242.498 293.803 239.419 298.409 Q236.364 302.992 230.553 302.992 Q224.743 302.992 221.665 298.409 Q218.609 293.803 218.609 285.076 Q218.609 276.326 221.665 271.743 Q224.743 267.136 230.553 267.136 Z" fill="#000000" fill-rule="nonzero" fill-opacity="1" /><path clip-path="url(#clip390)" d="M278.886 276.858 L268.308 287.483 L278.886 298.062 L276.132 300.863 L265.507 290.238 L254.882 300.863 L252.151 298.062 L262.706 287.483 L252.151 276.858 L254.882 274.057 L265.507 284.682 L276.132 274.057 L278.886 276.858 Z" fill="#000000" fill-rule="nonzero" fill-opacity="1" /><path clip-path="url(#clip390)" d="M291.248 298.386 L298.886 298.386 L298.886 272.02 L290.576 273.687 L290.576 269.428 L298.84 267.761 L303.516 267.761 L303.516 298.386 L311.155 298.386 L311.155 302.321 L291.248 302.321 L291.248 298.386 Z" fill="#000000" fill-rule="nonzero" fill-opacity="1" /><path clip-path="url(#clip390)" d="M330.599 270.84 Q326.988 270.84 325.159 274.405 Q323.354 277.946 323.354 285.076 Q323.354 292.182 325.159 295.747 Q326.988 299.289 330.599 299.289 Q334.233 299.289 336.039 295.747 Q337.868 292.182 337.868 285.076 Q337.868 277.946 336.039 274.405 Q334.233 270.84 330.599 270.84 M330.599 267.136 Q336.409 267.136 339.465 271.743 Q342.544 276.326 342.544 285.076 Q342.544 293.803 339.465 298.409 Q336.409 302.992 330.599 302.992 Q324.789 302.992 321.71 298.409 Q318.655 293.803 318.655 285.076 Q318.655 276.326 321.71 271.743 Q324.789 267.136 330.599 267.136 Z" fill="#000000" fill-rule="nonzero" fill-opacity="1" /><path clip-path="url(#clip390)" d="M342.544 261.237 L366.655 261.237 L366.655 264.435 L342.544 264.435 L342.544 261.237 Z" fill="#000000" fill-rule="nonzero" fill-opacity="1" /><path clip-path="url(#clip390)" d="M374.893 246.831 L389.807 246.831 L389.807 250.028 L378.372 250.028 L378.372 256.912 Q379.2 256.63 380.027 256.498 Q380.855 256.347 381.683 256.347 Q386.384 256.347 389.13 258.924 Q391.876 261.501 391.876 265.902 Q391.876 270.434 389.055 272.955 Q386.234 275.456 381.099 275.456 Q379.332 275.456 377.488 275.155 Q375.664 274.854 373.708 274.252 L373.708 270.434 Q375.401 271.356 377.206 271.807 Q379.012 272.259 381.024 272.259 Q384.278 272.259 386.178 270.547 Q388.077 268.836 388.077 265.902 Q388.077 262.968 386.178 261.256 Q384.278 259.545 381.024 259.545 Q379.501 259.545 377.977 259.883 Q376.473 260.222 374.893 260.936 L374.893 246.831 Z" fill="#000000" fill-rule="nonzero" fill-opacity="1" /><path clip-path="url(#clip390)" d="M44.9104 1038.7 L62.3206 1038.7 L62.3206 1028.39 Q62.3206 1023.2 60.1881 1020.72 Q58.0238 1018.2 53.5996 1018.2 Q49.1436 1018.2 47.0429 1020.72 Q44.9104 1023.2 44.9104 1028.39 L44.9104 1038.7 M25.3677 1038.7 L39.6905 1038.7 L39.6905 1029.18 Q39.6905 1024.47 37.94 1022.18 Q36.1576 1019.86 32.5291 1019.86 Q28.9325 1019.86 27.1501 1022.18 Q25.3677 1024.47 25.3677 1029.18 L25.3677 1038.7 M20.0842 1045.13 L20.0842 1028.71 Q20.0842 1021.35 23.1397 1017.37 Q26.1952 1013.4 31.8289 1013.4 Q36.1894 1013.4 38.7675 1015.43 Q41.3456 1017.47 41.9822 1021.42 Q43.0007 1016.67 46.2472 1014.06 Q49.4619 1011.42 54.2998 1011.42 Q60.6655 1011.42 64.1348 1015.75 Q67.6042 1020.08 67.6042 1028.07 L67.6042 1045.13 L20.0842 1045.13 Z" fill="#000000" fill-rule="nonzero" fill-opacity="1" /><path clip-path="url(#clip390)" d="M62.257 994.999 L81.1631 994.999 L81.1631 1000.89 L31.9562 1000.89 L31.9562 994.999 L37.3671 994.999 Q34.1842 993.153 32.6564 990.352 Q31.0968 987.519 31.0968 983.604 Q31.0968 977.111 36.2531 973.069 Q41.4093 968.995 49.812 968.995 Q58.2147 968.995 63.371 973.069 Q68.5272 977.111 68.5272 983.604 Q68.5272 987.519 66.9994 990.352 Q65.4398 993.153 62.257 994.999 M49.812 975.074 Q43.3508 975.074 39.6905 977.748 Q35.9984 980.389 35.9984 985.036 Q35.9984 989.683 39.6905 992.357 Q43.3508 994.999 49.812 994.999 Q56.2732 994.999 59.9653 992.357 Q63.6256 989.683 63.6256 985.036 Q63.6256 980.389 59.9653 977.748 Q56.2732 975.074 49.812 975.074 Z" fill="#000000" fill-rule="nonzero" fill-opacity="1" /><path clip-path="url(#clip390)" d="M48.3161 928.795 L51.1806 928.795 L51.1806 955.722 Q57.2281 955.34 60.4109 952.094 Q63.5619 948.815 63.5619 942.991 Q63.5619 939.617 62.7344 936.466 Q61.9069 933.283 60.2518 930.164 L65.7899 930.164 Q67.1267 933.315 67.827 936.625 Q68.5272 939.935 68.5272 943.341 Q68.5272 951.871 63.5619 956.868 Q58.5967 961.833 50.1303 961.833 Q41.3774 961.833 36.2531 957.123 Q31.0968 952.38 31.0968 944.359 Q31.0968 937.166 35.7438 932.997 Q40.3589 928.795 48.3161 928.795 M46.5973 934.652 Q41.7912 934.715 38.9266 937.357 Q36.0621 939.967 36.0621 944.296 Q36.0621 949.197 38.8312 952.157 Q41.6002 955.086 46.6292 955.531 L46.5973 934.652 Z" fill="#000000" fill-rule="nonzero" fill-opacity="1" /><path clip-path="url(#clip390)" d="M31.9562 919.406 L31.9562 910.844 L55.8276 900.723 L31.9562 890.569 L31.9562 882.071 L67.6042 882.071 L67.6042 887.959 L37.558 887.959 L60.761 897.794 L60.761 903.651 L37.558 913.518 L67.6042 913.518 L67.6042 919.406 L31.9562 919.406 Z" fill="#000000" fill-rule="nonzero" fill-opacity="1" /><path clip-path="url(#clip390)" d="M42.2368 864.12 Q44.8786 864.12 46.3745 862.083 Q47.8705 860.046 47.8705 856.258 L47.8705 848.365 L36.635 848.365 L36.635 856.258 Q36.635 860.046 38.0991 862.083 Q39.5632 864.12 42.2368 864.12 M67.6042 872.459 L51.9763 861.573 Q51.1488 865.266 48.9845 867.716 Q46.7883 870.167 42.2368 870.167 Q37.0806 870.167 34.5343 866.762 Q31.9562 863.324 31.9562 856.417 L31.9562 842.476 L67.6042 842.476 L67.6042 848.365 L52.5493 848.365 L52.5493 855.653 L67.6042 866.157 L67.6042 872.459 Z" fill="#000000" fill-rule="nonzero" fill-opacity="1" /><path clip-path="url(#clip390)" d="M51.1806 804.441 L62.9254 804.441 L62.9254 796.102 Q62.9254 792.092 61.4294 789.991 Q59.9017 787.89 57.0371 787.89 Q54.1725 787.89 52.6766 789.991 Q51.1806 792.092 51.1806 796.102 L51.1806 804.441 M36.635 804.441 L46.5018 804.441 L46.5018 796.739 Q46.5018 793.429 45.1969 791.328 Q43.8601 789.227 41.5048 789.227 Q39.1494 789.227 37.9081 791.328 Q36.635 793.429 36.635 796.739 L36.635 804.441 M31.9562 810.298 L31.9562 796.357 Q31.9562 790.087 34.2479 786.713 Q36.5395 783.339 40.7727 783.339 Q44.051 783.339 45.9926 785.058 Q47.9023 786.776 48.3797 790.15 Q49.1436 786.108 51.5626 783.88 Q53.9815 781.652 57.61 781.652 Q62.3843 781.652 64.9942 785.344 Q67.6042 789.004 67.6042 795.816 L67.6042 810.298 L31.9562 810.298 Z" fill="#000000" fill-rule="nonzero" fill-opacity="1" /><path clip-path="url(#clip390)" d="M31.9562 737.983 L31.9562 732.127 L67.6042 732.127 L67.6042 737.983 L31.9562 737.983 M31.0968 735.055 L31.0968 735.055 M57.0371 749.473 Q54.1725 749.473 52.6766 751.574 Q51.1806 753.643 51.1806 757.653 L51.1806 765.992 L62.9254 765.992 L62.9254 757.653 Q62.9254 753.643 61.4294 751.574 Q59.9017 749.473 57.0371 749.473 M31.9562 771.881 L31.9562 765.992 L46.5018 765.992 L46.5018 757.399 Q46.5018 750.587 49.1118 746.927 Q51.6899 743.235 57.0371 743.235 Q62.3843 743.235 64.9942 746.927 Q67.6042 750.587 67.6042 757.399 L67.6042 771.881 L31.9562 771.881 Z" fill="#000000" fill-rule="nonzero" fill-opacity="1" /><path clip-path="url(#clip390)" d="M67.6042 699.598 L52.6129 699.598 L52.6129 710.515 Q52.6129 715.385 49.5892 718.632 Q46.852 721.56 40.9955 721.56 L31.9562 721.56 L31.9562 715.703 L40.4544 715.703 Q44.1784 715.703 46.0562 714.048 Q47.9341 712.361 47.9341 709.051 L47.9341 699.598 L31.9562 699.598 L31.9562 693.742 L67.6042 693.742 L67.6042 699.598 Z" fill="#000000" fill-rule="nonzero" fill-opacity="1" /><path clip-path="url(#clip390)" d="M31.9562 651.378 L67.6042 651.378 L67.6042 657.202 L38.9903 657.202 L67.6042 674.39 L67.6042 681.901 L31.9562 681.901 L31.9562 676.077 L60.5064 676.077 L31.9562 658.921 L31.9562 651.378 Z" fill="#000000" fill-rule="nonzero" fill-opacity="1" /><path clip-path="url(#clip390)" d="M33.3248 613.661 L38.7993 613.661 Q37.4307 616.144 36.7623 618.658 Q36.0621 621.141 36.0621 623.687 Q36.0621 629.384 39.6905 632.535 Q43.2872 635.686 49.812 635.686 Q56.3369 635.686 59.9653 632.535 Q63.5619 629.384 63.5619 623.687 Q63.5619 621.141 62.8935 618.658 Q62.1933 616.144 60.8247 613.661 L66.2355 613.661 Q67.3814 616.112 67.9543 618.754 Q68.5272 621.364 68.5272 624.324 Q68.5272 632.376 63.4664 637.119 Q58.4057 641.861 49.812 641.861 Q41.091 641.861 36.0939 637.087 Q31.0968 632.281 31.0968 623.942 Q31.0968 621.236 31.6697 618.658 Q32.2108 616.08 33.3248 613.661 Z" fill="#000000" fill-rule="nonzero" fill-opacity="1" /><path clip-path="url(#clip390)" d="M67.6042 607.2 L62.7344 607.2 Q61.8432 601.407 57.8328 599.625 Q52.1991 597.46 37.7808 597.46 L31.9562 597.46 L31.9562 573.366 L67.6042 573.366 L67.6042 579.223 L36.635 579.223 L36.635 591.604 L40.168 591.604 Q53.9179 591.604 60.0926 594.405 Q66.6811 597.397 67.6042 607.2 Z" fill="#000000" fill-rule="nonzero" fill-opacity="1" /><path clip-path="url(#clip390)" d="M48.3161 531.321 L51.1806 531.321 L51.1806 558.248 Q57.2281 557.866 60.4109 554.619 Q63.5619 551.341 63.5619 545.516 Q63.5619 542.142 62.7344 538.991 Q61.9069 535.808 60.2518 532.689 L65.7899 532.689 Q67.1267 535.84 67.827 539.15 Q68.5272 542.461 68.5272 545.866 Q68.5272 554.396 63.5619 559.393 Q58.5967 564.359 50.1303 564.359 Q41.3774 564.359 36.2531 559.648 Q31.0968 554.906 31.0968 546.885 Q31.0968 539.692 35.7438 535.522 Q40.3589 531.321 48.3161 531.321 M46.5973 537.177 Q41.7912 537.241 38.9266 539.882 Q36.0621 542.492 36.0621 546.821 Q36.0621 551.723 38.8312 554.683 Q41.6002 557.611 46.6292 558.057 L46.5973 537.177 Z" fill="#000000" fill-rule="nonzero" fill-opacity="1" /><path clip-path="url(#clip390)" d="M31.9562 521.931 L31.9562 516.043 L46.5018 516.043 L46.5018 497.041 L31.9562 497.041 L31.9562 491.153 L67.6042 491.153 L67.6042 497.041 L51.1806 497.041 L51.1806 516.043 L67.6042 516.043 L67.6042 521.931 L31.9562 521.931 Z" fill="#000000" fill-rule="nonzero" fill-opacity="1" /><path clip-path="url(#clip390)" d="M31.9562 448.789 L67.6042 448.789 L67.6042 454.614 L38.9903 454.614 L67.6042 471.801 L67.6042 479.313 L31.9562 479.313 L31.9562 473.488 L60.5064 473.488 L31.9562 456.333 L31.9562 448.789 Z" fill="#000000" fill-rule="nonzero" fill-opacity="1" /><path clip-path="url(#clip390)" d="M42.2368 430.838 Q44.8786 430.838 46.3745 428.801 Q47.8705 426.764 47.8705 422.976 L47.8705 415.083 L36.635 415.083 L36.635 422.976 Q36.635 426.764 38.0991 428.801 Q39.5632 430.838 42.2368 430.838 M67.6042 439.177 L51.9763 428.292 Q51.1488 431.984 48.9845 434.435 Q46.7883 436.885 42.2368 436.885 Q37.0806 436.885 34.5343 433.48 Q31.9562 430.042 31.9562 423.135 L31.9562 409.195 L67.6042 409.195 L67.6042 415.083 L52.5493 415.083 L52.5493 422.372 L67.6042 432.875 L67.6042 439.177 Z" fill="#000000" fill-rule="nonzero" fill-opacity="1" /><path clip-path="url(#clip390)" d="M59.5197 396.018 L59.5197 389.302 L64.9942 389.302 L75.1793 394.522 L75.1793 398.627 L64.9942 396.018 L59.5197 396.018 Z" fill="#000000" fill-rule="nonzero" fill-opacity="1" /><path clip-path="url(#clip390)" d="M33.3248 330.419 L38.7993 330.419 Q37.4307 332.902 36.7623 335.416 Q36.0621 337.899 36.0621 340.445 Q36.0621 346.142 39.6905 349.293 Q43.2872 352.444 49.812 352.444 Q56.3369 352.444 59.9653 349.293 Q63.5619 346.142 63.5619 340.445 Q63.5619 337.899 62.8935 335.416 Q62.1933 332.902 60.8247 330.419 L66.2355 330.419 Q67.3814 332.87 67.9543 335.511 Q68.5272 338.121 68.5272 341.081 Q68.5272 349.134 63.4664 353.877 Q58.4057 358.619 49.812 358.619 Q41.091 358.619 36.0939 353.845 Q31.0968 349.039 31.0968 340.7 Q31.0968 337.994 31.6697 335.416 Q32.2108 332.838 33.3248 330.419 Z" fill="#000000" fill-rule="nonzero" fill-opacity="1" /><path clip-path="url(#clip390)" d="M48.3161 289.742 L51.1806 289.742 L51.1806 316.669 Q57.2281 316.287 60.4109 313.041 Q63.5619 309.762 63.5619 303.938 Q63.5619 300.564 62.7344 297.413 Q61.9069 294.23 60.2518 291.111 L65.7899 291.111 Q67.1267 294.262 67.827 297.572 Q68.5272 300.882 68.5272 304.288 Q68.5272 312.818 63.5619 317.815 Q58.5967 322.78 50.1303 322.78 Q41.3774 322.78 36.2531 318.069 Q31.0968 313.327 31.0968 305.306 Q31.0968 298.113 35.7438 293.943 Q40.3589 289.742 48.3161 289.742 M46.5973 295.598 Q41.7912 295.662 38.9266 298.304 Q36.0621 300.914 36.0621 305.243 Q36.0621 310.144 38.8312 313.104 Q41.6002 316.032 46.6292 316.478 L46.5973 295.598 Z" fill="#000000" fill-rule="nonzero" fill-opacity="1" /><path clip-path="url(#clip390)" d="M31.9562 280.353 L31.9562 274.528 L48.698 274.528 L31.9562 258.009 L31.9562 250.816 L45.738 264.438 L67.6042 249.065 L67.6042 255.622 L49.621 268.258 L55.9867 274.528 L67.6042 274.528 L67.6042 280.353 L31.9562 280.353 Z" fill="#000000" fill-rule="nonzero" fill-opacity="1" /><path clip-path="url(#clip390)" d="M406.47 11.0023 Q416.435 11.0023 422.754 15.2557 Q429.074 19.4686 429.074 26.6793 Q429.074 31.7024 426.198 35.1862 Q423.321 38.6294 418.015 39.9662 Q423.889 41.222 427.17 45.1919 Q430.492 49.1618 430.492 54.9951 Q430.492 64.3122 423.281 69.0517 Q416.111 73.7508 406.47 73.7508 Q401.528 73.7508 395.775 72.414 Q390.023 71.0772 388.241 69.9429 L388.241 61.517 Q394.438 65.1223 397.841 66.0135 Q401.284 66.8642 406.308 66.8642 Q413.923 66.8642 418.136 63.9476 Q422.349 61.0309 422.349 54.9951 Q422.349 49.6479 418.582 46.6502 Q414.855 43.612 406.956 43.612 L398.692 43.612 L398.692 36.8875 L407.28 36.8875 Q414.531 36.8875 417.731 34.4975 Q420.931 32.067 420.931 27.5299 Q420.931 22.8714 417.61 20.4004 Q414.328 17.8888 406.308 17.8888 Q400.879 17.8888 399.016 18.3749 Q397.153 18.861 388.848 21.9802 L388.848 13.9999 Q393.426 12.3796 398.206 11.6909 Q402.986 11.0023 406.47 11.0023 Z" fill="#000000" fill-rule="nonzero" fill-opacity="1" /><path clip-path="url(#clip390)" d="M464.398 49.7694 Q455.364 49.7694 451.88 51.8354 Q448.396 53.9013 448.396 58.8839 Q448.396 62.8538 450.989 65.2034 Q453.622 67.5124 458.119 67.5124 Q464.317 67.5124 468.043 63.1374 Q471.811 58.7219 471.811 51.4303 L471.811 49.7694 L464.398 49.7694 M479.264 46.6907 L479.264 72.576 L471.811 72.576 L471.811 65.6895 Q469.259 69.8214 465.451 71.8063 Q461.643 73.7508 456.134 73.7508 Q449.166 73.7508 445.034 69.8619 Q440.943 65.9325 440.943 59.3701 Q440.943 51.7138 446.047 47.825 Q451.192 43.9361 461.359 43.9361 L471.811 43.9361 L471.811 43.2069 Q471.811 38.0623 468.408 35.2672 Q465.046 32.4315 458.929 32.4315 Q455.04 32.4315 451.354 33.3632 Q447.667 34.295 444.265 36.1584 L444.265 29.2718 Q448.356 27.692 452.204 26.9223 Q456.053 26.1121 459.699 26.1121 Q469.542 26.1121 474.403 31.2163 Q479.264 36.3204 479.264 46.6907 Z" fill="#000000" fill-rule="nonzero" fill-opacity="1" /><path clip-path="url(#clip390)" d="M501.787 51.6733 L501.787 66.6212 L512.401 66.6212 Q517.505 66.6212 520.179 64.7172 Q522.852 62.7728 522.852 59.127 Q522.852 55.4812 520.179 53.5773 Q517.505 51.6733 512.401 51.6733 L501.787 51.6733 M501.787 33.1607 L501.787 45.7185 L511.591 45.7185 Q515.804 45.7185 518.477 44.0576 Q521.151 42.3563 521.151 39.3586 Q521.151 36.3609 518.477 34.7811 Q515.804 33.1607 511.591 33.1607 L501.787 33.1607 M494.334 27.2059 L512.077 27.2059 Q520.057 27.2059 524.351 30.1225 Q528.645 33.0392 528.645 38.4269 Q528.645 42.5993 526.457 45.0704 Q524.27 47.5009 519.976 48.1085 Q525.121 49.0808 527.956 52.1594 Q530.792 55.2381 530.792 59.8562 Q530.792 65.9325 526.093 69.2543 Q521.434 72.576 512.765 72.576 L494.334 72.576 L494.334 27.2059 Z" fill="#000000" fill-rule="nonzero" fill-opacity="1" /><path clip-path="url(#clip390)" d="M582.076 27.2059 L582.076 72.576 L574.663 72.576 L574.663 36.1584 L552.788 72.576 L543.228 72.576 L543.228 27.2059 L550.641 27.2059 L550.641 63.5425 L572.476 27.2059 L582.076 27.2059 Z" fill="#000000" fill-rule="nonzero" fill-opacity="1" /><path clip-path="url(#clip390)" d="M630.08 28.9478 L630.08 35.9153 Q626.92 34.1734 623.72 33.3227 Q620.56 32.4315 617.319 32.4315 Q610.068 32.4315 606.058 37.0496 Q602.047 41.6271 602.047 49.9314 Q602.047 58.2358 606.058 62.8538 Q610.068 67.4314 617.319 67.4314 Q620.56 67.4314 623.72 66.5807 Q626.92 65.6895 630.08 63.9476 L630.08 70.8341 Q626.96 72.2924 623.598 73.0216 Q620.276 73.7508 616.509 73.7508 Q606.26 73.7508 600.224 67.3098 Q594.189 60.8689 594.189 49.9314 Q594.189 38.832 600.265 32.472 Q606.382 26.1121 616.995 26.1121 Q620.438 26.1121 623.72 26.8413 Q627.001 27.5299 630.08 28.9478 Z" fill="#000000" fill-rule="nonzero" fill-opacity="1" /><path clip-path="url(#clip390)" d="M681.607 27.2059 L681.607 72.576 L674.194 72.576 L674.194 36.1584 L652.319 72.576 L642.759 72.576 L642.759 27.2059 L650.172 27.2059 L650.172 63.5425 L672.006 27.2059 L681.607 27.2059 Z" fill="#000000" fill-rule="nonzero" fill-opacity="1" /><path clip-path="url(#clip390)" d="M696.676 27.2059 L707.573 27.2059 L720.455 57.5877 L733.378 27.2059 L744.194 27.2059 L744.194 72.576 L736.699 72.576 L736.699 34.3355 L724.182 63.8666 L716.728 63.8666 L704.171 34.3355 L704.171 72.576 L696.676 72.576 L696.676 27.2059 Z" fill="#000000" fill-rule="nonzero" fill-opacity="1" /><path clip-path="url(#clip390)" d="M777.127 32.4315 Q771.132 32.4315 767.648 37.1306 Q764.164 41.7891 764.164 49.9314 Q764.164 58.0738 767.608 62.7728 Q771.092 67.4314 777.127 67.4314 Q783.082 67.4314 786.566 62.7323 Q790.05 58.0333 790.05 49.9314 Q790.05 41.8701 786.566 37.1711 Q783.082 32.4315 777.127 32.4315 M777.127 26.1121 Q786.85 26.1121 792.399 32.4315 Q797.949 38.7509 797.949 49.9314 Q797.949 61.0714 792.399 67.4314 Q786.85 73.7508 777.127 73.7508 Q767.365 73.7508 761.815 67.4314 Q756.306 61.0714 756.306 49.9314 Q756.306 38.7509 761.815 32.4315 Q767.365 26.1121 777.127 26.1121 Z" fill="#000000" fill-rule="nonzero" fill-opacity="1" /><path clip-path="url(#clip390)" d="M842.955 28.9478 L842.955 35.9153 Q839.795 34.1734 836.595 33.3227 Q833.435 32.4315 830.194 32.4315 Q822.943 32.4315 818.933 37.0496 Q814.922 41.6271 814.922 49.9314 Q814.922 58.2358 818.933 62.8538 Q822.943 67.4314 830.194 67.4314 Q833.435 67.4314 836.595 66.5807 Q839.795 65.6895 842.955 63.9476 L842.955 70.8341 Q839.835 72.2924 836.473 73.0216 Q833.151 73.7508 829.384 73.7508 Q819.135 73.7508 813.099 67.3098 Q807.064 60.8689 807.064 49.9314 Q807.064 38.832 813.14 32.472 Q819.257 26.1121 829.87 26.1121 Q833.313 26.1121 836.595 26.8413 Q839.876 27.5299 842.955 28.9478 Z" fill="#000000" fill-rule="nonzero" fill-opacity="1" /><path clip-path="url(#clip390)" d="M850.53 27.2059 L893.996 27.2059 L893.996 33.1607 L875.929 33.1607 L875.929 72.576 L868.597 72.576 L868.597 33.1607 L850.53 33.1607 L850.53 27.2059 Z" fill="#000000" fill-rule="nonzero" fill-opacity="1" /><path clip-path="url(#clip390)" d="M932.48 59.127 Q932.48 55.4812 929.806 53.5773 Q927.173 51.6733 922.069 51.6733 L911.455 51.6733 L911.455 66.6212 L922.069 66.6212 Q927.173 66.6212 929.806 64.7172 Q932.48 62.7728 932.48 59.127 M903.961 27.2059 L911.455 27.2059 L911.455 45.7185 L922.393 45.7185 Q931.062 45.7185 935.72 49.0402 Q940.419 52.3215 940.419 59.127 Q940.419 65.9325 935.72 69.2543 Q931.062 72.576 922.393 72.576 L903.961 72.576 L903.961 27.2059 Z" fill="#000000" fill-rule="nonzero" fill-opacity="1" /><path clip-path="url(#clip390)" d="M986.681 51.6733 L986.681 66.6212 L997.294 66.6212 Q1002.4 66.6212 1005.07 64.7172 Q1007.75 62.7728 1007.75 59.127 Q1007.75 55.4812 1005.07 53.5773 Q1002.4 51.6733 997.294 51.6733 L986.681 51.6733 M986.681 33.1607 L986.681 45.7185 L996.484 45.7185 Q1000.7 45.7185 1003.37 44.0576 Q1006.04 42.3563 1006.04 39.3586 Q1006.04 36.3609 1003.37 34.7811 Q1000.7 33.1607 996.484 33.1607 L986.681 33.1607 M979.227 27.2059 L996.97 27.2059 Q1004.95 27.2059 1009.24 30.1225 Q1013.54 33.0392 1013.54 38.4269 Q1013.54 42.5993 1011.35 45.0704 Q1009.16 47.5009 1004.87 48.1085 Q1010.01 49.0808 1012.85 52.1594 Q1015.69 55.2381 1015.69 59.8562 Q1015.69 65.9325 1010.99 69.2543 Q1006.33 72.576 997.659 72.576 L979.227 72.576 L979.227 27.2059 Z" fill="#000000" fill-rule="nonzero" fill-opacity="1" /><path clip-path="url(#clip390)" d="M1035.62 65.7705 L1035.62 89.8329 L1028.12 89.8329 L1028.12 27.2059 L1035.62 27.2059 L1035.62 34.0924 Q1037.97 30.0415 1041.53 28.0971 Q1045.14 26.1121 1050.12 26.1121 Q1058.38 26.1121 1063.53 32.6746 Q1068.71 39.2371 1068.71 49.9314 Q1068.71 60.6258 1063.53 67.1883 Q1058.38 73.7508 1050.12 73.7508 Q1045.14 73.7508 1041.53 71.8063 Q1037.97 69.8214 1035.62 65.7705 M1060.97 49.9314 Q1060.97 41.7081 1057.57 37.0496 Q1054.21 32.3505 1048.29 32.3505 Q1042.38 32.3505 1038.98 37.0496 Q1035.62 41.7081 1035.62 49.9314 Q1035.62 58.1548 1038.98 62.8538 Q1042.38 67.5124 1048.29 67.5124 Q1054.21 67.5124 1057.57 62.8538 Q1060.97 58.1548 1060.97 49.9314 Z" fill="#000000" fill-rule="nonzero" fill-opacity="1" /><path clip-path="url(#clip390)" d="M1119.87 48.0275 L1119.87 51.6733 L1085.6 51.6733 Q1086.09 59.3701 1090.22 63.421 Q1094.39 67.4314 1101.81 67.4314 Q1106.1 67.4314 1110.11 66.3781 Q1114.16 65.3249 1118.13 63.2184 L1118.13 70.267 Q1114.12 71.9684 1109.91 72.8596 Q1105.7 73.7508 1101.36 73.7508 Q1090.51 73.7508 1084.15 67.4314 Q1077.83 61.1119 1077.83 50.3365 Q1077.83 39.1965 1083.82 32.6746 Q1089.86 26.1121 1100.07 26.1121 Q1109.22 26.1121 1114.53 32.0264 Q1119.87 37.9003 1119.87 48.0275 M1112.42 45.84 Q1112.34 39.7232 1108.98 36.0774 Q1105.66 32.4315 1100.15 32.4315 Q1093.91 32.4315 1090.14 35.9558 Q1086.41 39.4801 1085.85 45.8805 L1112.42 45.84 Z" fill="#000000" fill-rule="nonzero" fill-opacity="1" /><path clip-path="url(#clip390)" d="M1131.82 27.2059 L1142.72 27.2059 L1155.6 57.5877 L1168.53 27.2059 L1179.34 27.2059 L1179.34 72.576 L1171.85 72.576 L1171.85 34.3355 L1159.33 63.8666 L1151.88 63.8666 L1139.32 34.3355 L1139.32 72.576 L1131.82 72.576 L1131.82 27.2059 Z" fill="#000000" fill-rule="nonzero" fill-opacity="1" /><path clip-path="url(#clip390)" d="M1233.5 48.0275 L1233.5 51.6733 L1199.23 51.6733 Q1199.72 59.3701 1203.85 63.421 Q1208.02 67.4314 1215.44 67.4314 Q1219.73 67.4314 1223.74 66.3781 Q1227.79 65.3249 1231.76 63.2184 L1231.76 70.267 Q1227.75 71.9684 1223.54 72.8596 Q1219.32 73.7508 1214.99 73.7508 Q1204.13 73.7508 1197.77 67.4314 Q1191.45 61.1119 1191.45 50.3365 Q1191.45 39.1965 1197.45 32.6746 Q1203.49 26.1121 1213.69 26.1121 Q1222.85 26.1121 1228.16 32.0264 Q1233.5 37.9003 1233.5 48.0275 M1226.05 45.84 Q1225.97 39.7232 1222.61 36.0774 Q1219.28 32.4315 1213.77 32.4315 Q1207.54 32.4315 1203.77 35.9558 Q1200.04 39.4801 1199.47 45.8805 L1226.05 45.84 Z" fill="#000000" fill-rule="nonzero" fill-opacity="1" /><path clip-path="url(#clip390)" d="M1245.45 27.2059 L1252.95 27.2059 L1252.95 45.7185 L1277.13 45.7185 L1277.13 27.2059 L1284.62 27.2059 L1284.62 72.576 L1277.13 72.576 L1277.13 51.6733 L1252.95 51.6733 L1252.95 72.576 L1245.45 72.576 L1245.45 27.2059 Z" fill="#000000" fill-rule="nonzero" fill-opacity="1" /><path clip-path="url(#clip390)" d="M1338.54 27.2059 L1338.54 72.576 L1331.13 72.576 L1331.13 36.1584 L1309.25 72.576 L1299.69 72.576 L1299.69 27.2059 L1307.11 27.2059 L1307.11 63.5425 L1328.94 27.2059 L1338.54 27.2059 Z" fill="#000000" fill-rule="nonzero" fill-opacity="1" /><path clip-path="url(#clip390)" d="M1387.44 51.6733 L1387.44 66.6212 L1398.05 66.6212 Q1403.15 66.6212 1405.83 64.7172 Q1408.5 62.7728 1408.5 59.127 Q1408.5 55.4812 1405.83 53.5773 Q1403.15 51.6733 1398.05 51.6733 L1387.44 51.6733 M1387.44 33.1607 L1387.44 45.7185 L1397.24 45.7185 Q1401.45 45.7185 1404.13 44.0576 Q1406.8 42.3563 1406.8 39.3586 Q1406.8 36.3609 1404.13 34.7811 Q1401.45 33.1607 1397.24 33.1607 L1387.44 33.1607 M1379.98 27.2059 L1397.73 27.2059 Q1405.71 27.2059 1410 30.1225 Q1414.29 33.0392 1414.29 38.4269 Q1414.29 42.5993 1412.11 45.0704 Q1409.92 47.5009 1405.63 48.1085 Q1410.77 49.0808 1413.61 52.1594 Q1416.44 55.2381 1416.44 59.8562 Q1416.44 65.9325 1411.74 69.2543 Q1407.08 72.576 1398.41 72.576 L1379.98 72.576 L1379.98 27.2059 Z" fill="#000000" fill-rule="nonzero" fill-opacity="1" /><path clip-path="url(#clip390)" d="M1472.02 27.2059 L1479.47 27.2059 L1479.47 72.576 L1472.02 72.576 L1472.02 27.2059 M1475.75 26.1121 L1475.75 26.1121 M1457.4 59.127 Q1457.4 55.4812 1454.72 53.5773 Q1452.09 51.6733 1446.98 51.6733 L1436.37 51.6733 L1436.37 66.6212 L1446.98 66.6212 Q1452.09 66.6212 1454.72 64.7172 Q1457.4 62.7728 1457.4 59.127 M1428.88 27.2059 L1436.37 27.2059 L1436.37 45.7185 L1447.31 45.7185 Q1455.98 45.7185 1460.64 49.0402 Q1465.34 52.3215 1465.34 59.127 Q1465.34 65.9325 1460.64 69.2543 Q1455.98 72.576 1447.31 72.576 L1428.88 72.576 L1428.88 27.2059 Z" fill="#000000" fill-rule="nonzero" fill-opacity="1" /><path clip-path="url(#clip390)" d="M1520.87 72.576 L1520.87 53.4962 L1506.98 53.4962 Q1500.78 53.4962 1496.65 49.6479 Q1492.92 46.1641 1492.92 38.7104 L1492.92 27.2059 L1500.38 27.2059 L1500.38 38.0218 Q1500.38 42.7613 1502.48 45.1514 Q1504.63 47.5414 1508.84 47.5414 L1520.87 47.5414 L1520.87 27.2059 L1528.33 27.2059 L1528.33 72.576 L1520.87 72.576 Z" fill="#000000" fill-rule="nonzero" fill-opacity="1" /><path clip-path="url(#clip390)" d="M1582.24 27.2059 L1582.24 72.576 L1574.83 72.576 L1574.83 36.1584 L1552.96 72.576 L1543.4 72.576 L1543.4 27.2059 L1550.81 27.2059 L1550.81 63.5425 L1572.64 27.2059 L1582.24 27.2059 Z" fill="#000000" fill-rule="nonzero" fill-opacity="1" /><path clip-path="url(#clip390)" d="M1630.25 28.9478 L1630.25 35.9153 Q1627.09 34.1734 1623.89 33.3227 Q1620.73 32.4315 1617.49 32.4315 Q1610.24 32.4315 1606.23 37.0496 Q1602.22 41.6271 1602.22 49.9314 Q1602.22 58.2358 1606.23 62.8538 Q1610.24 67.4314 1617.49 67.4314 Q1620.73 67.4314 1623.89 66.5807 Q1627.09 65.6895 1630.25 63.9476 L1630.25 70.8341 Q1627.13 72.2924 1623.77 73.0216 Q1620.44 73.7508 1616.68 73.7508 Q1606.43 73.7508 1600.39 67.3098 Q1594.36 60.8689 1594.36 49.9314 Q1594.36 38.832 1600.43 32.472 Q1606.55 26.1121 1617.16 26.1121 Q1620.61 26.1121 1623.89 26.8413 Q1627.17 27.5299 1630.25 28.9478 Z" fill="#000000" fill-rule="nonzero" fill-opacity="1" /><path clip-path="url(#clip390)" d="M1638.47 72.576 L1638.47 66.3781 Q1645.84 65.2439 1648.11 60.1397 Q1650.87 52.9696 1650.87 34.619 L1650.87 27.2059 L1681.53 27.2059 L1681.53 72.576 L1674.08 72.576 L1674.08 33.1607 L1658.32 33.1607 L1658.32 37.6572 Q1658.32 55.1571 1654.76 63.0159 Q1650.95 71.4012 1638.47 72.576 Z" fill="#000000" fill-rule="nonzero" fill-opacity="1" /><path clip-path="url(#clip390)" d="M1735.04 48.0275 L1735.04 51.6733 L1700.77 51.6733 Q1701.26 59.3701 1705.39 63.421 Q1709.56 67.4314 1716.98 67.4314 Q1721.27 67.4314 1725.28 66.3781 Q1729.33 65.3249 1733.3 63.2184 L1733.3 70.267 Q1729.29 71.9684 1725.08 72.8596 Q1720.87 73.7508 1716.53 73.7508 Q1705.68 73.7508 1699.32 67.4314 Q1693 61.1119 1693 50.3365 Q1693 39.1965 1698.99 32.6746 Q1705.03 26.1121 1715.24 26.1121 Q1724.39 26.1121 1729.7 32.0264 Q1735.04 37.9003 1735.04 48.0275 M1727.59 45.84 Q1727.51 39.7232 1724.15 36.0774 Q1720.83 32.4315 1715.32 32.4315 Q1709.08 32.4315 1705.31 35.9558 Q1701.58 39.4801 1701.02 45.8805 L1727.59 45.84 Z" fill="#000000" fill-rule="nonzero" fill-opacity="1" /><path clip-path="url(#clip390)" d="M1746.99 27.2059 L1754.49 27.2059 L1754.49 45.7185 L1778.67 45.7185 L1778.67 27.2059 L1786.17 27.2059 L1786.17 72.576 L1778.67 72.576 L1778.67 51.6733 L1754.49 51.6733 L1754.49 72.576 L1746.99 72.576 L1746.99 27.2059 Z" fill="#000000" fill-rule="nonzero" fill-opacity="1" /><path clip-path="url(#clip390)" d="M1840.08 27.2059 L1840.08 72.576 L1832.67 72.576 L1832.67 36.1584 L1810.8 72.576 L1801.24 72.576 L1801.24 27.2059 L1808.65 27.2059 L1808.65 63.5425 L1830.48 27.2059 L1840.08 27.2059 Z" fill="#000000" fill-rule="nonzero" fill-opacity="1" /><path clip-path="url(#clip390)" d="M1862.93 40.2903 Q1862.93 43.6525 1865.52 45.5565 Q1868.12 47.4604 1872.94 47.4604 L1882.98 47.4604 L1882.98 33.1607 L1872.94 33.1607 Q1868.12 33.1607 1865.52 35.0241 Q1862.93 36.8875 1862.93 40.2903 M1852.32 72.576 L1866.17 52.6861 Q1861.47 51.6328 1858.35 48.8782 Q1855.24 46.0831 1855.24 40.2903 Q1855.24 33.7278 1859.57 30.4871 Q1863.94 27.2059 1872.73 27.2059 L1890.48 27.2059 L1890.48 72.576 L1882.98 72.576 L1882.98 53.4152 L1873.71 53.4152 L1860.34 72.576 L1852.32 72.576 Z" fill="#000000" fill-rule="nonzero" fill-opacity="1" /><path clip-path="url(#clip390)" d="M1949.3 32.4315 Q1943.3 32.4315 1939.82 37.1306 Q1936.33 41.7891 1936.33 49.9314 Q1936.33 58.0738 1939.78 62.7728 Q1943.26 67.4314 1949.3 67.4314 Q1955.25 67.4314 1958.74 62.7323 Q1962.22 58.0333 1962.22 49.9314 Q1962.22 41.8701 1958.74 37.1711 Q1955.25 32.4315 1949.3 32.4315 M1949.3 26.1121 Q1959.02 26.1121 1964.57 32.4315 Q1970.12 38.7509 1970.12 49.9314 Q1970.12 61.0714 1964.57 67.4314 Q1959.02 73.7508 1949.3 73.7508 Q1939.53 73.7508 1933.98 67.4314 Q1928.48 61.0714 1928.48 49.9314 Q1928.48 38.7509 1933.98 32.4315 Q1939.53 26.1121 1949.3 26.1121 Z" fill="#000000" fill-rule="nonzero" fill-opacity="1" /><path clip-path="url(#clip390)" d="M1977.09 27.2059 L2020.55 27.2059 L2020.55 33.1607 L2002.49 33.1607 L2002.49 72.576 L1995.15 72.576 L1995.15 33.1607 L1977.09 33.1607 L1977.09 27.2059 Z" fill="#000000" fill-rule="nonzero" fill-opacity="1" /><path clip-path="url(#clip390)" d="M2083.63 51.4708 L2081.84 42.1132 Q2080.02 32.5126 2072.81 32.5126 Q2067.38 32.5126 2064.91 36.9686 Q2061.79 42.5588 2061.79 49.9314 Q2061.79 58.8434 2064.83 63.0969 Q2067.91 67.4314 2072.81 67.4314 Q2078.24 67.4314 2081.15 58.8029 L2083.63 51.4708 M2087.8 39.075 L2091.81 27.2059 L2098.45 27.2059 L2090.15 51.7949 L2091.77 60.6663 Q2092.13 62.6513 2093.55 64.3122 Q2095.21 66.2566 2096.51 66.2566 L2100.07 66.2566 L2100.07 72.576 L2095.62 72.576 Q2091.81 72.576 2088.41 69.1732 Q2086.74 67.4719 2086.06 63.9071 Q2084.19 68.4036 2080.38 71.9279 Q2078.6 73.5887 2072.81 73.5887 Q2063.29 73.5887 2058.67 67.4314 Q2053.93 61.0714 2053.93 49.9314 Q2053.93 38.0218 2059.08 32.4315 Q2064.79 26.1931 2072.81 26.1931 Q2085.41 26.1931 2087.8 39.075 Z" fill="#000000" fill-rule="nonzero" fill-opacity="1" /><circle clip-path="url(#clip392)" cx="470.005" cy="1143.68" r="28.8" fill="#008000" fill-rule="evenodd" fill-opacity="1" stroke="#000000" stroke-opacity="1" stroke-width="2.688"/>
<circle clip-path="url(#clip392)" cx="814.072" cy="881.998" r="28.8" fill="#008000" fill-rule="evenodd" fill-opacity="1" stroke="#000000" stroke-opacity="1" stroke-width="2.688"/>
<circle clip-path="url(#clip392)" cx="1158.14" cy="566.954" r="28.8" fill="#008000" fill-rule="evenodd" fill-opacity="1" stroke="#000000" stroke-opacity="1" stroke-width="2.688"/>
<circle clip-path="url(#clip392)" cx="1674.24" cy="295.746" r="28.8" fill="#008000" fill-rule="evenodd" fill-opacity="1" stroke="#000000" stroke-opacity="1" stroke-width="2.688"/>
<circle clip-path="url(#clip392)" cx="2018.31" cy="150.518" r="28.8" fill="#008000" fill-rule="evenodd" fill-opacity="1" stroke="#000000" stroke-opacity="1" stroke-width="2.688"/>
<path clip-path="url(#clip390)" d="M478.263 259.495 L1104.88 259.495 L1104.88 155.815 L478.263 155.815  Z" fill="#ffffff" fill-rule="evenodd" fill-opacity="1"/>
<polyline clip-path="url(#clip390)" style="stroke:#000000; stroke-linecap:round; stroke-linejoin:round; stroke-width:4; stroke-opacity:1; fill:none" points="478.263,259.495 1104.88,259.495 1104.88,155.815 478.263,155.815 478.263,259.495 "/>
<circle clip-path="url(#clip390)" cx="551.205" cy="207.655" r="21.6847" fill="#008000" fill-rule="evenodd" fill-opacity="1" stroke="#000000" stroke-opacity="1" stroke-width="2.02391"/>
<path clip-path="url(#clip390)" d="M628.823 208.43 L628.823 221.092 L636.323 221.092 Q640.096 221.092 641.902 219.541 Q643.731 217.967 643.731 214.749 Q643.731 211.509 641.902 209.981 Q640.096 208.43 636.323 208.43 L628.823 208.43 M628.823 194.217 L628.823 204.634 L635.745 204.634 Q639.17 204.634 640.837 203.361 Q642.527 202.064 642.527 199.426 Q642.527 196.81 640.837 195.513 Q639.17 194.217 635.745 194.217 L628.823 194.217 M624.147 190.375 L636.092 190.375 Q641.439 190.375 644.332 192.597 Q647.226 194.819 647.226 198.916 Q647.226 202.088 645.745 203.963 Q644.263 205.838 641.393 206.3 Q644.842 207.041 646.74 209.402 Q648.661 211.74 648.661 215.259 Q648.661 219.888 645.513 222.411 Q642.365 224.935 636.555 224.935 L624.147 224.935 L624.147 190.375 Z" fill="#000000" fill-rule="nonzero" fill-opacity="1" /><path clip-path="url(#clip390)" d="M660.606 221.046 L660.606 234.796 L656.323 234.796 L656.323 199.009 L660.606 199.009 L660.606 202.944 Q661.948 200.629 663.985 199.518 Q666.045 198.384 668.893 198.384 Q673.615 198.384 676.555 202.134 Q679.517 205.884 679.517 211.995 Q679.517 218.106 676.555 221.856 Q673.615 225.606 668.893 225.606 Q666.045 225.606 663.985 224.495 Q661.948 223.361 660.606 221.046 M675.096 211.995 Q675.096 207.296 673.152 204.634 Q671.23 201.949 667.851 201.949 Q664.471 201.949 662.527 204.634 Q660.606 207.296 660.606 211.995 Q660.606 216.694 662.527 219.379 Q664.471 222.041 667.851 222.041 Q671.23 222.041 673.152 219.379 Q675.096 216.694 675.096 211.995 Z" fill="#000000" fill-rule="nonzero" fill-opacity="1" /><path clip-path="url(#clip390)" d="M708.753 210.907 L708.753 212.99 L689.17 212.99 Q689.448 217.388 691.809 219.703 Q694.193 221.995 698.429 221.995 Q700.883 221.995 703.175 221.393 Q705.49 220.791 707.758 219.587 L707.758 223.615 Q705.466 224.587 703.059 225.097 Q700.652 225.606 698.175 225.606 Q691.971 225.606 688.337 221.995 Q684.726 218.384 684.726 212.226 Q684.726 205.861 688.152 202.134 Q691.601 198.384 697.434 198.384 Q702.665 198.384 705.698 201.763 Q708.753 205.12 708.753 210.907 M704.494 209.657 Q704.448 206.162 702.527 204.078 Q700.628 201.995 697.48 201.995 Q693.916 201.995 691.763 204.009 Q689.633 206.023 689.309 209.68 L704.494 209.657 Z" fill="#000000" fill-rule="nonzero" fill-opacity="1" /><path clip-path="url(#clip390)" d="M715.582 199.009 L721.809 199.009 L729.17 216.37 L736.554 199.009 L742.735 199.009 L742.735 224.935 L738.452 224.935 L738.452 203.083 L731.3 219.958 L727.04 219.958 L719.864 203.083 L719.864 224.935 L715.582 224.935 L715.582 199.009 Z" fill="#000000" fill-rule="nonzero" fill-opacity="1" /><path clip-path="url(#clip390)" d="M755.79 206.486 Q755.79 208.407 757.272 209.495 Q758.753 210.583 761.508 210.583 L767.248 210.583 L767.248 202.412 L761.508 202.412 Q758.753 202.412 757.272 203.476 Q755.79 204.541 755.79 206.486 M749.725 224.935 L757.642 213.569 Q754.957 212.967 753.174 211.393 Q751.392 209.796 751.392 206.486 Q751.392 202.736 753.869 200.884 Q756.369 199.009 761.392 199.009 L771.531 199.009 L771.531 224.935 L767.248 224.935 L767.248 213.986 L761.948 213.986 L754.309 224.935 L749.725 224.935 Z" fill="#000000" fill-rule="nonzero" fill-opacity="1" /><path clip-path="url(#clip390)" d="M799.193 212.99 L799.193 221.532 L805.258 221.532 Q808.174 221.532 809.702 220.444 Q811.23 219.333 811.23 217.249 Q811.23 215.166 809.702 214.078 Q808.174 212.99 805.258 212.99 L799.193 212.99 M799.193 202.412 L799.193 209.587 L804.795 209.587 Q807.202 209.587 808.73 208.638 Q810.258 207.666 810.258 205.953 Q810.258 204.24 808.73 203.338 Q807.202 202.412 804.795 202.412 L799.193 202.412 M794.934 199.009 L805.072 199.009 Q809.633 199.009 812.086 200.675 Q814.54 202.342 814.54 205.421 Q814.54 207.805 813.29 209.217 Q812.04 210.606 809.586 210.953 Q812.526 211.509 814.146 213.268 Q815.767 215.027 815.767 217.666 Q815.767 221.138 813.082 223.036 Q810.42 224.935 805.466 224.935 L794.934 224.935 L794.934 199.009 Z" fill="#000000" fill-rule="nonzero" fill-opacity="1" /><path clip-path="url(#clip390)" d="M847.526 199.009 L851.785 199.009 L851.785 224.935 L847.526 224.935 L847.526 199.009 M849.655 198.384 L849.655 198.384 M839.169 217.249 Q839.169 215.166 837.642 214.078 Q836.137 212.99 833.22 212.99 L827.156 212.99 L827.156 221.532 L833.22 221.532 Q836.137 221.532 837.642 220.444 Q839.169 219.333 839.169 217.249 M822.873 199.009 L827.156 199.009 L827.156 209.587 L833.406 209.587 Q838.359 209.587 841.021 211.486 Q843.706 213.361 843.706 217.249 Q843.706 221.138 841.021 223.036 Q838.359 224.935 833.406 224.935 L822.873 224.935 L822.873 199.009 Z" fill="#000000" fill-rule="nonzero" fill-opacity="1" /><path clip-path="url(#clip390)" d="M875.442 224.935 L875.442 214.032 L867.503 214.032 Q863.961 214.032 861.6 211.833 Q859.47 209.842 859.47 205.583 L859.47 199.009 L863.729 199.009 L863.729 205.189 Q863.729 207.898 864.933 209.263 Q866.16 210.629 868.567 210.629 L875.442 210.629 L875.442 199.009 L879.702 199.009 L879.702 224.935 L875.442 224.935 Z" fill="#000000" fill-rule="nonzero" fill-opacity="1" /><path clip-path="url(#clip390)" d="M910.512 199.009 L910.512 224.935 L906.276 224.935 L906.276 204.125 L893.776 224.935 L888.313 224.935 L888.313 199.009 L892.549 199.009 L892.549 219.773 L905.026 199.009 L910.512 199.009 Z" fill="#000000" fill-rule="nonzero" fill-opacity="1" /><path clip-path="url(#clip390)" d="M937.942 200.004 L937.942 203.986 Q936.136 202.99 934.308 202.504 Q932.502 201.995 930.65 201.995 Q926.507 201.995 924.215 204.634 Q921.924 207.25 921.924 211.995 Q921.924 216.74 924.215 219.379 Q926.507 221.995 930.65 221.995 Q932.502 221.995 934.308 221.509 Q936.136 220.999 937.942 220.004 L937.942 223.939 Q936.16 224.773 934.238 225.189 Q932.34 225.606 930.187 225.606 Q924.331 225.606 920.882 221.925 Q917.433 218.245 917.433 211.995 Q917.433 205.652 920.905 202.018 Q924.4 198.384 930.465 198.384 Q932.433 198.384 934.308 198.801 Q936.183 199.194 937.942 200.004 Z" fill="#000000" fill-rule="nonzero" fill-opacity="1" /><path clip-path="url(#clip390)" d="M942.641 224.935 L942.641 221.393 Q946.854 220.745 948.15 217.828 Q949.724 213.731 949.724 203.245 L949.724 199.009 L967.247 199.009 L967.247 224.935 L962.988 224.935 L962.988 202.412 L953.984 202.412 L953.984 204.981 Q953.984 214.981 951.947 219.472 Q949.771 224.263 942.641 224.935 Z" fill="#000000" fill-rule="nonzero" fill-opacity="1" /><path clip-path="url(#clip390)" d="M997.826 210.907 L997.826 212.99 L978.243 212.99 Q978.52 217.388 980.882 219.703 Q983.266 221.995 987.502 221.995 Q989.956 221.995 992.247 221.393 Q994.562 220.791 996.831 219.587 L996.831 223.615 Q994.539 224.587 992.132 225.097 Q989.724 225.606 987.247 225.606 Q981.044 225.606 977.409 221.995 Q973.798 218.384 973.798 212.226 Q973.798 205.861 977.224 202.134 Q980.673 198.384 986.507 198.384 Q991.738 198.384 994.77 201.763 Q997.826 205.12 997.826 210.907 M993.567 209.657 Q993.52 206.162 991.599 204.078 Q989.701 201.995 986.553 201.995 Q982.988 201.995 980.835 204.009 Q978.706 206.023 978.382 209.68 L993.567 209.657 Z" fill="#000000" fill-rule="nonzero" fill-opacity="1" /><path clip-path="url(#clip390)" d="M1004.65 199.009 L1008.94 199.009 L1008.94 209.587 L1022.76 209.587 L1022.76 199.009 L1027.04 199.009 L1027.04 224.935 L1022.76 224.935 L1022.76 212.99 L1008.94 212.99 L1008.94 224.935 L1004.65 224.935 L1004.65 199.009 Z" fill="#000000" fill-rule="nonzero" fill-opacity="1" /><path clip-path="url(#clip390)" d="M1057.85 199.009 L1057.85 224.935 L1053.61 224.935 L1053.61 204.125 L1041.11 224.935 L1035.65 224.935 L1035.65 199.009 L1039.89 199.009 L1039.89 219.773 L1052.36 199.009 L1057.85 199.009 Z" fill="#000000" fill-rule="nonzero" fill-opacity="1" /><path clip-path="url(#clip390)" d="M1070.9 206.486 Q1070.9 208.407 1072.39 209.495 Q1073.87 210.583 1076.62 210.583 L1082.36 210.583 L1082.36 202.412 L1076.62 202.412 Q1073.87 202.412 1072.39 203.476 Q1070.9 204.541 1070.9 206.486 M1064.84 224.935 L1072.76 213.569 Q1070.07 212.967 1068.29 211.393 Q1066.51 209.796 1066.51 206.486 Q1066.51 202.736 1068.98 200.884 Q1071.48 199.009 1076.51 199.009 L1086.64 199.009 L1086.64 224.935 L1082.36 224.935 L1082.36 213.986 L1077.06 213.986 L1069.42 224.935 L1064.84 224.935 Z" fill="#000000" fill-rule="nonzero" fill-opacity="1" /></svg>
