<?xml version="1.0" encoding="utf-8"?>
<svg xmlns="http://www.w3.org/2000/svg" xmlns:xlink="http://www.w3.org/1999/xlink" width="528" height="336" viewBox="0 0 2112 1344">
<defs>
  <clipPath id="clip070">
    <rect x="0" y="0" width="2112" height="1344"/>
  </clipPath>
</defs>
<path clip-path="url(#clip070)" d="M0 1344 L2112 1344 L2112 0 L0 0  Z" fill="#ffffff" fill-rule="evenodd" fill-opacity="1"/>
<defs>
  <clipPath id="clip071">
    <rect x="247" y="102" width="1834" height="1126"/>
  </clipPath>
</defs>
<path clip-path="url(#clip070)" d="M170.405 1173.47 L2064.76 1173.47 L2064.76 120.723 L170.405 120.723  Z" fill="#ffffff" fill-rule="evenodd" fill-opacity="1"/>
<defs>
  <clipPath id="clip072">
    <rect x="170" y="120" width="1895" height="1054"/>
  </clipPath>
</defs>
<polyline clip-path="url(#clip072)" style="stroke:#000000; stroke-linecap:round; stroke-linejoin:round; stroke-width:2; stroke-opacity:0.1; fill:none" points="422.588,1173.47 422.588,120.723 "/>
<polyline clip-path="url(#clip072)" style="stroke:#000000; stroke-linecap:round; stroke-linejoin:round; stroke-width:2; stroke-opacity:0.1; fill:none" points="819.727,1173.47 819.727,120.723 "/>
<polyline clip-path="url(#clip072)" style="stroke:#000000; stroke-linecap:round; stroke-linejoin:round; stroke-width:2; stroke-opacity:0.1; fill:none" points="1216.87,1173.47 1216.87,120.723 "/>
<polyline clip-path="url(#clip072)" style="stroke:#000000; stroke-linecap:round; stroke-linejoin:round; stroke-width:2; stroke-opacity:0.1; fill:none" points="1614,1173.47 1614,120.723 "/>
<polyline clip-path="url(#clip072)" style="stroke:#000000; stroke-linecap:round; stroke-linejoin:round; stroke-width:2; stroke-opacity:0.1; fill:none" points="2011.14,1173.47 2011.14,120.723 "/>
<polyline clip-path="url(#clip072)" style="stroke:#000000; stroke-linecap:round; stroke-linejoin:round; stroke-width:2; stroke-opacity:0.1; fill:none" points="170.405,1094.82 2064.76,1094.82 "/>
<polyline clip-path="url(#clip072)" style="stroke:#000000; stroke-linecap:round; stroke-linejoin:round; stroke-width:2; stroke-opacity:0.1; fill:none" points="170.405,935.621 2064.76,935.621 "/>
<polyline clip-path="url(#clip072)" style="stroke:#000000; stroke-linecap:round; stroke-linejoin:round; stroke-width:2; stroke-opacity:0.1; fill:none" points="170.405,776.419 2064.76,776.419 "/>
<polyline clip-path="url(#clip072)" style="stroke:#000000; stroke-linecap:round; stroke-linejoin:round; stroke-width:2; stroke-opacity:0.1; fill:none" points="170.405,617.216 2064.76,617.216 "/>
<polyline clip-path="url(#clip072)" style="stroke:#000000; stroke-linecap:round; stroke-linejoin:round; stroke-width:2; stroke-opacity:0.1; fill:none" points="170.405,458.013 2064.76,458.013 "/>
<polyline clip-path="url(#clip072)" style="stroke:#000000; stroke-linecap:round; stroke-linejoin:round; stroke-width:2; stroke-opacity:0.1; fill:none" points="170.405,298.811 2064.76,298.811 "/>
<polyline clip-path="url(#clip072)" style="stroke:#000000; stroke-linecap:round; stroke-linejoin:round; stroke-width:2; stroke-opacity:0.1; fill:none" points="170.405,139.608 2064.76,139.608 "/>
<polyline clip-path="url(#clip070)" style="stroke:#000000; stroke-linecap:round; stroke-linejoin:round; stroke-width:4; stroke-opacity:1; fill:none" points="170.405,1173.47 2064.76,1173.47 "/>
<polyline clip-path="url(#clip070)" style="stroke:#000000; stroke-linecap:round; stroke-linejoin:round; stroke-width:4; stroke-opacity:1; fill:none" points="422.588,1173.47 422.588,1154.57 "/>
<polyline clip-path="url(#clip070)" style="stroke:#000000; stroke-linecap:round; stroke-linejoin:round; stroke-width:4; stroke-opacity:1; fill:none" points="819.727,1173.47 819.727,1154.57 "/>
<polyline clip-path="url(#clip070)" style="stroke:#000000; stroke-linecap:round; stroke-linejoin:round; stroke-width:4; stroke-opacity:1; fill:none" points="1216.87,1173.47 1216.87,1154.57 "/>
<polyline clip-path="url(#clip070)" style="stroke:#000000; stroke-linecap:round; stroke-linejoin:round; stroke-width:4; stroke-opacity:1; fill:none" points="1614,1173.47 1614,1154.57 "/>
<polyline clip-path="url(#clip070)" style="stroke:#000000; stroke-linecap:round; stroke-linejoin:round; stroke-width:4; stroke-opacity:1; fill:none" points="2011.14,1173.47 2011.14,1154.57 "/>
<path clip-path="url(#clip070)" d="M400.771 1202.09 Q397.16 1202.09 395.331 1205.65 Q393.526 1209.19 393.526 1216.32 Q393.526 1223.43 395.331 1226.99 Q397.16 1230.53 400.771 1230.53 Q404.405 1230.53 406.211 1226.99 Q408.04 1223.43 408.04 1216.32 Q408.04 1209.19 406.211 1205.65 Q404.405 1202.09 400.771 1202.09 M400.771 1198.38 Q406.581 1198.38 409.637 1202.99 Q412.716 1207.57 412.716 1216.32 Q412.716 1225.05 409.637 1229.65 Q406.581 1234.24 400.771 1234.24 Q394.961 1234.24 391.882 1229.65 Q388.827 1225.05 388.827 1216.32 Q388.827 1207.57 391.882 1202.99 Q394.961 1198.38 400.771 1198.38 Z" fill="#000000" fill-rule="nonzero" fill-opacity="1" /><path clip-path="url(#clip070)" d="M420.933 1227.69 L425.817 1227.69 L425.817 1233.57 L420.933 1233.57 L420.933 1227.69 Z" fill="#000000" fill-rule="nonzero" fill-opacity="1" /><path clip-path="url(#clip070)" d="M440.03 1229.63 L456.35 1229.63 L456.35 1233.57 L434.405 1233.57 L434.405 1229.63 Q437.067 1226.88 441.651 1222.25 Q446.257 1217.59 447.438 1216.25 Q449.683 1213.73 450.563 1211.99 Q451.465 1210.23 451.465 1208.54 Q451.465 1205.79 449.521 1204.05 Q447.6 1202.32 444.498 1202.32 Q442.299 1202.32 439.845 1203.08 Q437.414 1203.84 434.637 1205.4 L434.637 1200.67 Q437.461 1199.54 439.914 1198.96 Q442.368 1198.38 444.405 1198.38 Q449.776 1198.38 452.97 1201.07 Q456.164 1203.75 456.164 1208.24 Q456.164 1210.37 455.354 1212.29 Q454.567 1214.19 452.461 1216.78 Q451.882 1217.46 448.78 1220.67 Q445.678 1223.87 440.03 1229.63 Z" fill="#000000" fill-rule="nonzero" fill-opacity="1" /><path clip-path="url(#clip070)" d="M796.868 1202.09 Q793.257 1202.09 791.428 1205.65 Q789.623 1209.19 789.623 1216.32 Q789.623 1223.43 791.428 1226.99 Q793.257 1230.53 796.868 1230.53 Q800.502 1230.53 802.308 1226.99 Q804.136 1223.43 804.136 1216.32 Q804.136 1209.19 802.308 1205.65 Q800.502 1202.09 796.868 1202.09 M796.868 1198.38 Q802.678 1198.38 805.734 1202.99 Q808.812 1207.57 808.812 1216.32 Q808.812 1225.05 805.734 1229.65 Q802.678 1234.24 796.868 1234.24 Q791.058 1234.24 787.979 1229.65 Q784.924 1225.05 784.924 1216.32 Q784.924 1207.57 787.979 1202.99 Q791.058 1198.38 796.868 1198.38 Z" fill="#000000" fill-rule="nonzero" fill-opacity="1" /><path clip-path="url(#clip070)" d="M817.03 1227.69 L821.914 1227.69 L821.914 1233.57 L817.03 1233.57 L817.03 1227.69 Z" fill="#000000" fill-rule="nonzero" fill-opacity="1" /><path clip-path="url(#clip070)" d="M844.946 1203.08 L833.141 1221.53 L844.946 1221.53 L844.946 1203.08 M843.72 1199.01 L849.599 1199.01 L849.599 1221.53 L854.53 1221.53 L854.53 1225.42 L849.599 1225.42 L849.599 1233.57 L844.946 1233.57 L844.946 1225.42 L829.345 1225.42 L829.345 1220.9 L843.72 1199.01 Z" fill="#000000" fill-rule="nonzero" fill-opacity="1" /><path clip-path="url(#clip070)" d="M1194.17 1202.09 Q1190.56 1202.09 1188.73 1205.65 Q1186.92 1209.19 1186.92 1216.32 Q1186.92 1223.43 1188.73 1226.99 Q1190.56 1230.53 1194.17 1230.53 Q1197.8 1230.53 1199.61 1226.99 Q1201.44 1223.43 1201.44 1216.32 Q1201.44 1209.19 1199.61 1205.65 Q1197.8 1202.09 1194.17 1202.09 M1194.17 1198.38 Q1199.98 1198.38 1203.03 1202.99 Q1206.11 1207.57 1206.11 1216.32 Q1206.11 1225.05 1203.03 1229.65 Q1199.98 1234.24 1194.17 1234.24 Q1188.36 1234.24 1185.28 1229.65 Q1182.22 1225.05 1182.22 1216.32 Q1182.22 1207.57 1185.28 1202.99 Q1188.36 1198.38 1194.17 1198.38 Z" fill="#000000" fill-rule="nonzero" fill-opacity="1" /><path clip-path="url(#clip070)" d="M1214.33 1227.69 L1219.21 1227.69 L1219.21 1233.57 L1214.33 1233.57 L1214.33 1227.69 Z" fill="#000000" fill-rule="nonzero" fill-opacity="1" /><path clip-path="url(#clip070)" d="M1239.98 1214.42 Q1236.83 1214.42 1234.98 1216.58 Q1233.15 1218.73 1233.15 1222.48 Q1233.15 1226.21 1234.98 1228.38 Q1236.83 1230.53 1239.98 1230.53 Q1243.13 1230.53 1244.96 1228.38 Q1246.81 1226.21 1246.81 1222.48 Q1246.81 1218.73 1244.96 1216.58 Q1243.13 1214.42 1239.98 1214.42 M1249.26 1199.77 L1249.26 1204.03 Q1247.5 1203.2 1245.7 1202.76 Q1243.91 1202.32 1242.15 1202.32 Q1237.52 1202.32 1235.07 1205.44 Q1232.64 1208.57 1232.29 1214.89 Q1233.66 1212.87 1235.72 1211.81 Q1237.78 1210.72 1240.26 1210.72 Q1245.46 1210.72 1248.47 1213.89 Q1251.51 1217.04 1251.51 1222.48 Q1251.51 1227.8 1248.36 1231.02 Q1245.21 1234.24 1239.98 1234.24 Q1233.98 1234.24 1230.81 1229.65 Q1227.64 1225.05 1227.64 1216.32 Q1227.64 1208.13 1231.53 1203.27 Q1235.42 1198.38 1241.97 1198.38 Q1243.73 1198.38 1245.51 1198.73 Q1247.32 1199.08 1249.26 1199.77 Z" fill="#000000" fill-rule="nonzero" fill-opacity="1" /><path clip-path="url(#clip070)" d="M1591.43 1202.09 Q1587.82 1202.09 1585.99 1205.65 Q1584.19 1209.19 1584.19 1216.32 Q1584.19 1223.43 1585.99 1226.99 Q1587.82 1230.53 1591.43 1230.53 Q1595.07 1230.53 1596.87 1226.99 Q1598.7 1223.43 1598.7 1216.32 Q1598.7 1209.19 1596.87 1205.65 Q1595.07 1202.09 1591.43 1202.09 M1591.43 1198.38 Q1597.24 1198.38 1600.3 1202.99 Q1603.38 1207.57 1603.38 1216.32 Q1603.38 1225.05 1600.3 1229.65 Q1597.24 1234.24 1591.43 1234.24 Q1585.62 1234.24 1582.55 1229.65 Q1579.49 1225.05 1579.49 1216.32 Q1579.49 1207.57 1582.55 1202.99 Q1585.62 1198.38 1591.43 1198.38 Z" fill="#000000" fill-rule="nonzero" fill-opacity="1" /><path clip-path="url(#clip070)" d="M1611.6 1227.69 L1616.48 1227.69 L1616.48 1233.57 L1611.6 1233.57 L1611.6 1227.69 Z" fill="#000000" fill-rule="nonzero" fill-opacity="1" /><path clip-path="url(#clip070)" d="M1636.67 1217.15 Q1633.33 1217.15 1631.41 1218.94 Q1629.51 1220.72 1629.51 1223.84 Q1629.51 1226.97 1631.41 1228.75 Q1633.33 1230.53 1636.67 1230.53 Q1640 1230.53 1641.92 1228.75 Q1643.84 1226.95 1643.84 1223.84 Q1643.84 1220.72 1641.92 1218.94 Q1640.02 1217.15 1636.67 1217.15 M1631.99 1215.16 Q1628.98 1214.42 1627.29 1212.36 Q1625.62 1210.3 1625.62 1207.34 Q1625.62 1203.2 1628.56 1200.79 Q1631.53 1198.38 1636.67 1198.38 Q1641.83 1198.38 1644.77 1200.79 Q1647.71 1203.2 1647.71 1207.34 Q1647.71 1210.3 1646.02 1212.36 Q1644.35 1214.42 1641.36 1215.16 Q1644.74 1215.95 1646.62 1218.24 Q1648.52 1220.53 1648.52 1223.84 Q1648.52 1228.87 1645.44 1231.55 Q1642.38 1234.24 1636.67 1234.24 Q1630.95 1234.24 1627.87 1231.55 Q1624.81 1228.87 1624.81 1223.84 Q1624.81 1220.53 1626.71 1218.24 Q1628.61 1215.95 1631.99 1215.16 M1630.28 1207.78 Q1630.28 1210.47 1631.94 1211.97 Q1633.63 1213.47 1636.67 1213.47 Q1639.67 1213.47 1641.36 1211.97 Q1643.08 1210.47 1643.08 1207.78 Q1643.08 1205.09 1641.36 1203.59 Q1639.67 1202.09 1636.67 1202.09 Q1633.63 1202.09 1631.94 1203.59 Q1630.28 1205.09 1630.28 1207.78 Z" fill="#000000" fill-rule="nonzero" fill-opacity="1" /><path clip-path="url(#clip070)" d="M1978.3 1229.63 L1985.93 1229.63 L1985.93 1203.27 L1977.62 1204.93 L1977.62 1200.67 L1985.89 1199.01 L1990.56 1199.01 L1990.56 1229.63 L1998.2 1229.63 L1998.2 1233.57 L1978.3 1233.57 L1978.3 1229.63 Z" fill="#000000" fill-rule="nonzero" fill-opacity="1" /><path clip-path="url(#clip070)" d="M2007.65 1227.69 L2012.53 1227.69 L2012.53 1233.57 L2007.65 1233.57 L2007.65 1227.69 Z" fill="#000000" fill-rule="nonzero" fill-opacity="1" /><path clip-path="url(#clip070)" d="M2032.72 1202.09 Q2029.11 1202.09 2027.28 1205.65 Q2025.47 1209.19 2025.47 1216.32 Q2025.47 1223.43 2027.28 1226.99 Q2029.11 1230.53 2032.72 1230.53 Q2036.35 1230.53 2038.16 1226.99 Q2039.98 1223.43 2039.98 1216.32 Q2039.98 1209.19 2038.16 1205.65 Q2036.35 1202.09 2032.72 1202.09 M2032.72 1198.38 Q2038.53 1198.38 2041.58 1202.99 Q2044.66 1207.57 2044.66 1216.32 Q2044.66 1225.05 2041.58 1229.65 Q2038.53 1234.24 2032.72 1234.24 Q2026.91 1234.24 2023.83 1229.65 Q2020.77 1225.05 2020.77 1216.32 Q2020.77 1207.57 2023.83 1202.99 Q2026.91 1198.38 2032.72 1198.38 Z" fill="#000000" fill-rule="nonzero" fill-opacity="1" /><path clip-path="url(#clip070)" d="M850.094 1270.16 L850.094 1276.93 Q846.847 1273.91 843.155 1272.41 Q839.495 1270.92 835.357 1270.92 Q827.209 1270.92 822.88 1275.92 Q818.551 1280.88 818.551 1290.3 Q818.551 1299.69 822.88 1304.69 Q827.209 1309.65 835.357 1309.65 Q839.495 1309.65 843.155 1308.16 Q846.847 1306.66 850.094 1303.64 L850.094 1310.35 Q846.72 1312.65 842.932 1313.79 Q839.176 1314.94 834.975 1314.94 Q824.185 1314.94 817.979 1308.35 Q811.772 1301.73 811.772 1290.3 Q811.772 1278.84 817.979 1272.26 Q824.185 1265.64 834.975 1265.64 Q839.24 1265.64 842.996 1266.78 Q846.783 1267.9 850.094 1270.16 Z" fill="#000000" fill-rule="nonzero" fill-opacity="1" /><path clip-path="url(#clip070)" d="M859.547 1278.37 L865.371 1278.37 L865.371 1295.11 L881.89 1278.37 L889.084 1278.37 L875.461 1292.15 L890.834 1314.01 L884.277 1314.01 L871.641 1296.03 L865.371 1302.4 L865.371 1314.01 L859.547 1314.01 L859.547 1278.37 Z" fill="#000000" fill-rule="nonzero" fill-opacity="1" /><path clip-path="url(#clip070)" d="M912.955 1282.47 Q908.244 1282.47 905.507 1286.16 Q902.77 1289.83 902.77 1296.22 Q902.77 1302.62 905.475 1306.31 Q908.212 1309.97 912.955 1309.97 Q917.634 1309.97 920.371 1306.28 Q923.108 1302.59 923.108 1296.22 Q923.108 1289.89 920.371 1286.2 Q917.634 1282.47 912.955 1282.47 M912.955 1277.51 Q920.594 1277.51 924.954 1282.47 Q929.315 1287.44 929.315 1296.22 Q929.315 1304.98 924.954 1309.97 Q920.594 1314.94 912.955 1314.94 Q905.284 1314.94 900.924 1309.97 Q896.595 1304.98 896.595 1296.22 Q896.595 1287.44 900.924 1282.47 Q905.284 1277.51 912.955 1277.51 Z" fill="#000000" fill-rule="nonzero" fill-opacity="1" /><path clip-path="url(#clip070)" d="M944.688 1308.67 L944.688 1327.57 L938.8 1327.57 L938.8 1278.37 L944.688 1278.37 L944.688 1283.78 Q946.534 1280.59 949.335 1279.07 Q952.168 1277.51 956.083 1277.51 Q962.576 1277.51 966.618 1282.66 Q970.692 1287.82 970.692 1296.22 Q970.692 1304.63 966.618 1309.78 Q962.576 1314.94 956.083 1314.94 Q952.168 1314.94 949.335 1313.41 Q946.534 1311.85 944.688 1308.67 M964.613 1296.22 Q964.613 1289.76 961.939 1286.1 Q959.297 1282.41 954.65 1282.41 Q950.003 1282.41 947.33 1286.1 Q944.688 1289.76 944.688 1296.22 Q944.688 1302.68 947.33 1306.38 Q950.003 1310.04 954.65 1310.04 Q959.297 1310.04 961.939 1306.38 Q964.613 1302.68 964.613 1296.22 Z" fill="#000000" fill-rule="nonzero" fill-opacity="1" /><path clip-path="url(#clip070)" d="M994.213 1282.47 Q989.503 1282.47 986.765 1286.16 Q984.028 1289.83 984.028 1296.22 Q984.028 1302.62 986.733 1306.31 Q989.471 1309.97 994.213 1309.97 Q998.892 1309.97 1001.63 1306.28 Q1004.37 1302.59 1004.37 1296.22 Q1004.37 1289.89 1001.63 1286.2 Q998.892 1282.47 994.213 1282.47 M994.213 1277.51 Q1001.85 1277.51 1006.21 1282.47 Q1010.57 1287.44 1010.57 1296.22 Q1010.57 1304.98 1006.21 1309.97 Q1001.85 1314.94 994.213 1314.94 Q986.542 1314.94 982.182 1309.97 Q977.853 1304.98 977.853 1296.22 Q977.853 1287.44 982.182 1282.47 Q986.542 1277.51 994.213 1277.51 Z" fill="#000000" fill-rule="nonzero" fill-opacity="1" /><path clip-path="url(#clip070)" d="M1045.93 1279.74 L1045.93 1285.21 Q1043.45 1283.84 1040.94 1283.17 Q1038.45 1282.47 1035.91 1282.47 Q1030.21 1282.47 1027.06 1286.1 Q1023.91 1289.7 1023.91 1296.22 Q1023.91 1302.75 1027.06 1306.38 Q1030.21 1309.97 1035.91 1309.97 Q1038.45 1309.97 1040.94 1309.3 Q1043.45 1308.6 1045.93 1307.24 L1045.93 1312.65 Q1043.48 1313.79 1040.84 1314.36 Q1038.23 1314.94 1035.27 1314.94 Q1027.22 1314.94 1022.48 1309.88 Q1017.73 1304.82 1017.73 1296.22 Q1017.73 1287.5 1022.51 1282.5 Q1027.31 1277.51 1035.65 1277.51 Q1038.36 1277.51 1040.94 1278.08 Q1043.52 1278.62 1045.93 1279.74 Z" fill="#000000" fill-rule="nonzero" fill-opacity="1" /><path clip-path="url(#clip070)" d="M1051.89 1278.37 L1086.04 1278.37 L1086.04 1283.05 L1071.84 1283.05 L1071.84 1314.01 L1066.08 1314.01 L1066.08 1283.05 L1051.89 1283.05 L1051.89 1278.37 Z" fill="#000000" fill-rule="nonzero" fill-opacity="1" /><path clip-path="url(#clip070)" d="M1116.28 1303.45 Q1116.28 1300.58 1114.17 1299.09 Q1112.11 1297.59 1108.1 1297.59 L1099.76 1297.59 L1099.76 1309.34 L1108.1 1309.34 Q1112.11 1309.34 1114.17 1307.84 Q1116.28 1306.31 1116.28 1303.45 M1093.87 1278.37 L1099.76 1278.37 L1099.76 1292.91 L1108.35 1292.91 Q1115.16 1292.91 1118.82 1295.52 Q1122.51 1298.1 1122.51 1303.45 Q1122.51 1308.79 1118.82 1311.4 Q1115.16 1314.01 1108.35 1314.01 L1093.87 1314.01 L1093.87 1278.37 Z" fill="#000000" fill-rule="nonzero" fill-opacity="1" /><path clip-path="url(#clip070)" d="M1158.89 1308.67 L1158.89 1327.57 L1153.01 1327.57 L1153.01 1278.37 L1158.89 1278.37 L1158.89 1283.78 Q1160.74 1280.59 1163.54 1279.07 Q1166.37 1277.51 1170.29 1277.51 Q1176.78 1277.51 1180.82 1282.66 Q1184.9 1287.82 1184.9 1296.22 Q1184.9 1304.63 1180.82 1309.78 Q1176.78 1314.94 1170.29 1314.94 Q1166.37 1314.94 1163.54 1313.41 Q1160.74 1311.85 1158.89 1308.67 M1178.82 1296.22 Q1178.82 1289.76 1176.15 1286.1 Q1173.5 1282.41 1168.86 1282.41 Q1164.21 1282.41 1161.54 1286.1 Q1158.89 1289.76 1158.89 1296.22 Q1158.89 1302.68 1161.54 1306.38 Q1164.21 1310.04 1168.86 1310.04 Q1173.5 1310.04 1176.15 1306.38 Q1178.82 1302.68 1178.82 1296.22 Z" fill="#000000" fill-rule="nonzero" fill-opacity="1" /><path clip-path="url(#clip070)" d="M1208.42 1282.47 Q1203.71 1282.47 1200.97 1286.16 Q1198.23 1289.83 1198.23 1296.22 Q1198.23 1302.62 1200.94 1306.31 Q1203.68 1309.97 1208.42 1309.97 Q1213.1 1309.97 1215.84 1306.28 Q1218.57 1302.59 1218.57 1296.22 Q1218.57 1289.89 1215.84 1286.2 Q1213.1 1282.47 1208.42 1282.47 M1208.42 1277.51 Q1216.06 1277.51 1220.42 1282.47 Q1224.78 1287.44 1224.78 1296.22 Q1224.78 1304.98 1220.42 1309.97 Q1216.06 1314.94 1208.42 1314.94 Q1200.75 1314.94 1196.39 1309.97 Q1192.06 1304.98 1192.06 1296.22 Q1192.06 1287.44 1196.39 1282.47 Q1200.75 1277.51 1208.42 1277.51 Z" fill="#000000" fill-rule="nonzero" fill-opacity="1" /><path clip-path="url(#clip070)" d="M1260.14 1279.74 L1260.14 1285.21 Q1257.66 1283.84 1255.14 1283.17 Q1252.66 1282.47 1250.11 1282.47 Q1244.42 1282.47 1241.27 1286.1 Q1238.12 1289.7 1238.12 1296.22 Q1238.12 1302.75 1241.27 1306.38 Q1244.42 1309.97 1250.11 1309.97 Q1252.66 1309.97 1255.14 1309.3 Q1257.66 1308.6 1260.14 1307.24 L1260.14 1312.65 Q1257.69 1313.79 1255.05 1314.36 Q1252.44 1314.94 1249.48 1314.94 Q1241.43 1314.94 1236.68 1309.88 Q1231.94 1304.82 1231.94 1296.22 Q1231.94 1287.5 1236.71 1282.5 Q1241.52 1277.51 1249.86 1277.51 Q1252.57 1277.51 1255.14 1278.08 Q1257.72 1278.62 1260.14 1279.74 Z" fill="#000000" fill-rule="nonzero" fill-opacity="1" /><path clip-path="url(#clip070)" d="M1266.09 1278.37 L1300.24 1278.37 L1300.24 1283.05 L1286.05 1283.05 L1286.05 1314.01 L1280.29 1314.01 L1280.29 1283.05 L1266.09 1283.05 L1266.09 1278.37 Z" fill="#000000" fill-rule="nonzero" fill-opacity="1" /><path clip-path="url(#clip070)" d="M1324.5 1296.1 Q1317.4 1296.1 1314.66 1297.72 Q1311.93 1299.34 1311.93 1303.26 Q1311.93 1306.38 1313.96 1308.22 Q1316.03 1310.04 1319.56 1310.04 Q1324.43 1310.04 1327.36 1306.6 Q1330.32 1303.13 1330.32 1297.4 L1330.32 1296.1 L1324.5 1296.1 M1336.18 1293.68 L1336.18 1314.01 L1330.32 1314.01 L1330.32 1308.6 Q1328.32 1311.85 1325.33 1313.41 Q1322.33 1314.94 1318 1314.94 Q1312.53 1314.94 1309.28 1311.88 Q1306.07 1308.79 1306.07 1303.64 Q1306.07 1297.62 1310.08 1294.57 Q1314.12 1291.51 1322.11 1291.51 L1330.32 1291.51 L1330.32 1290.94 Q1330.32 1286.9 1327.65 1284.7 Q1325.01 1282.47 1320.2 1282.47 Q1317.15 1282.47 1314.25 1283.2 Q1311.35 1283.94 1308.68 1285.4 L1308.68 1279.99 Q1311.89 1278.75 1314.92 1278.14 Q1317.94 1277.51 1320.81 1277.51 Q1328.54 1277.51 1332.36 1281.52 Q1336.18 1285.53 1336.18 1293.68 Z" fill="#000000" fill-rule="nonzero" fill-opacity="1" /><path clip-path="url(#clip070)" d="M1349.74 1305.93 L1356.45 1305.93 L1356.45 1311.4 L1351.23 1321.59 L1347.13 1321.59 L1349.74 1311.4 L1349.74 1305.93 Z" fill="#000000" fill-rule="nonzero" fill-opacity="1" /><path clip-path="url(#clip070)" d="M1410.47 1297.43 L1409.07 1290.08 Q1407.63 1282.54 1401.97 1282.54 Q1397.7 1282.54 1395.76 1286.04 Q1393.31 1290.43 1393.31 1296.22 Q1393.31 1303.22 1395.7 1306.57 Q1398.12 1309.97 1401.97 1309.97 Q1406.23 1309.97 1408.53 1303.19 L1410.47 1297.43 M1413.75 1287.69 L1416.9 1278.37 L1422.12 1278.37 L1415.59 1297.69 L1416.86 1304.66 Q1417.15 1306.22 1418.26 1307.52 Q1419.57 1309.05 1420.59 1309.05 L1423.39 1309.05 L1423.39 1314.01 L1419.89 1314.01 Q1416.9 1314.01 1414.22 1311.34 Q1412.92 1310 1412.38 1307.2 Q1410.91 1310.74 1407.92 1313.51 Q1406.52 1314.81 1401.97 1314.81 Q1394.49 1314.81 1390.86 1309.97 Q1387.14 1304.98 1387.14 1296.22 Q1387.14 1286.87 1391.18 1282.47 Q1395.67 1277.57 1401.97 1277.57 Q1411.87 1277.57 1413.75 1287.69 Z" fill="#000000" fill-rule="nonzero" fill-opacity="1" /><polyline clip-path="url(#clip070)" style="stroke:#000000; stroke-linecap:round; stroke-linejoin:round; stroke-width:4; stroke-opacity:1; fill:none" points="170.405,1173.47 170.405,120.723 "/>
<polyline clip-path="url(#clip070)" style="stroke:#000000; stroke-linecap:round; stroke-linejoin:round; stroke-width:4; stroke-opacity:1; fill:none" points="170.405,1094.82 189.303,1094.82 "/>
<polyline clip-path="url(#clip070)" style="stroke:#000000; stroke-linecap:round; stroke-linejoin:round; stroke-width:4; stroke-opacity:1; fill:none" points="170.405,935.621 189.303,935.621 "/>
<polyline clip-path="url(#clip070)" style="stroke:#000000; stroke-linecap:round; stroke-linejoin:round; stroke-width:4; stroke-opacity:1; fill:none" points="170.405,776.419 189.303,776.419 "/>
<polyline clip-path="url(#clip070)" style="stroke:#000000; stroke-linecap:round; stroke-linejoin:round; stroke-width:4; stroke-opacity:1; fill:none" points="170.405,617.216 189.303,617.216 "/>
<polyline clip-path="url(#clip070)" style="stroke:#000000; stroke-linecap:round; stroke-linejoin:round; stroke-width:4; stroke-opacity:1; fill:none" points="170.405,458.013 189.303,458.013 "/>
<polyline clip-path="url(#clip070)" style="stroke:#000000; stroke-linecap:round; stroke-linejoin:round; stroke-width:4; stroke-opacity:1; fill:none" points="170.405,298.811 189.303,298.811 "/>
<polyline clip-path="url(#clip070)" style="stroke:#000000; stroke-linecap:round; stroke-linejoin:round; stroke-width:4; stroke-opacity:1; fill:none" points="170.405,139.608 189.303,139.608 "/>
<path clip-path="url(#clip070)" d="M118.818 1108.17 L126.457 1108.17 L126.457 1081.8 L118.147 1083.47 L118.147 1079.21 L126.41 1077.54 L131.086 1077.54 L131.086 1108.17 L138.725 1108.17 L138.725 1112.1 L118.818 1112.1 L118.818 1108.17 Z" fill="#000000" fill-rule="nonzero" fill-opacity="1" /><path clip-path="url(#clip070)" d="M122.406 948.966 L138.725 948.966 L138.725 952.901 L116.781 952.901 L116.781 948.966 Q119.443 946.212 124.026 941.582 Q128.633 936.929 129.813 935.587 Q132.059 933.064 132.938 931.328 Q133.841 929.568 133.841 927.878 Q133.841 925.124 131.897 923.388 Q129.975 921.652 126.873 921.652 Q124.674 921.652 122.221 922.416 Q119.79 923.179 117.012 924.73 L117.012 920.008 Q119.836 918.874 122.29 918.295 Q124.744 917.716 126.781 917.716 Q132.151 917.716 135.346 920.402 Q138.54 923.087 138.54 927.578 Q138.54 929.707 137.73 931.628 Q136.943 933.527 134.836 936.119 Q134.258 936.79 131.156 940.008 Q128.054 943.202 122.406 948.966 Z" fill="#000000" fill-rule="nonzero" fill-opacity="1" /><path clip-path="url(#clip070)" d="M131.596 775.065 Q134.952 775.782 136.827 778.051 Q138.725 780.319 138.725 783.653 Q138.725 788.768 135.207 791.569 Q131.688 794.37 125.207 794.37 Q123.031 794.37 120.716 793.93 Q118.424 793.514 115.971 792.657 L115.971 788.143 Q117.915 789.277 120.23 789.856 Q122.545 790.435 125.068 790.435 Q129.466 790.435 131.758 788.699 Q134.072 786.963 134.072 783.653 Q134.072 780.597 131.92 778.884 Q129.79 777.148 125.971 777.148 L121.943 777.148 L121.943 773.305 L126.156 773.305 Q129.605 773.305 131.434 771.94 Q133.262 770.551 133.262 767.958 Q133.262 765.296 131.364 763.884 Q129.489 762.449 125.971 762.449 Q124.049 762.449 121.85 762.866 Q119.651 763.282 117.012 764.162 L117.012 759.995 Q119.674 759.255 121.989 758.884 Q124.327 758.514 126.387 758.514 Q131.711 758.514 134.813 760.944 Q137.915 763.352 137.915 767.472 Q137.915 770.342 136.272 772.333 Q134.628 774.301 131.596 775.065 Z" fill="#000000" fill-rule="nonzero" fill-opacity="1" /><path clip-path="url(#clip070)" d="M129.142 604.01 L117.336 622.459 L129.142 622.459 L129.142 604.01 M127.915 599.936 L133.795 599.936 L133.795 622.459 L138.725 622.459 L138.725 626.348 L133.795 626.348 L133.795 634.496 L129.142 634.496 L129.142 626.348 L113.54 626.348 L113.54 621.834 L127.915 599.936 Z" fill="#000000" fill-rule="nonzero" fill-opacity="1" /><path clip-path="url(#clip070)" d="M117.823 440.733 L136.179 440.733 L136.179 444.669 L122.105 444.669 L122.105 453.141 Q123.123 452.793 124.142 452.631 Q125.16 452.446 126.179 452.446 Q131.966 452.446 135.346 455.618 Q138.725 458.789 138.725 464.205 Q138.725 469.784 135.253 472.886 Q131.781 475.965 125.461 475.965 Q123.285 475.965 121.017 475.594 Q118.772 475.224 116.364 474.483 L116.364 469.784 Q118.448 470.918 120.67 471.474 Q122.892 472.029 125.369 472.029 Q129.373 472.029 131.711 469.923 Q134.049 467.817 134.049 464.205 Q134.049 460.594 131.711 458.488 Q129.373 456.381 125.369 456.381 Q123.494 456.381 121.619 456.798 Q119.767 457.215 117.823 458.094 L117.823 440.733 Z" fill="#000000" fill-rule="nonzero" fill-opacity="1" /><path clip-path="url(#clip070)" d="M127.197 296.947 Q124.049 296.947 122.198 299.1 Q120.369 301.253 120.369 305.003 Q120.369 308.73 122.198 310.905 Q124.049 313.058 127.197 313.058 Q130.346 313.058 132.174 310.905 Q134.026 308.73 134.026 305.003 Q134.026 301.253 132.174 299.1 Q130.346 296.947 127.197 296.947 M136.48 282.295 L136.48 286.554 Q134.721 285.72 132.915 285.281 Q131.133 284.841 129.373 284.841 Q124.744 284.841 122.29 287.966 Q119.86 291.091 119.512 297.41 Q120.878 295.396 122.938 294.331 Q124.998 293.244 127.475 293.244 Q132.684 293.244 135.693 296.415 Q138.725 299.563 138.725 305.003 Q138.725 310.327 135.577 313.544 Q132.429 316.762 127.197 316.762 Q121.202 316.762 118.031 312.179 Q114.86 307.572 114.86 298.845 Q114.86 290.651 118.748 285.79 Q122.637 280.906 129.188 280.906 Q130.947 280.906 132.73 281.253 Q134.535 281.6 136.48 282.295 Z" fill="#000000" fill-rule="nonzero" fill-opacity="1" /><path clip-path="url(#clip070)" d="M116.503 122.328 L138.725 122.328 L138.725 124.319 L126.179 156.888 L121.295 156.888 L133.1 126.263 L116.503 126.263 L116.503 122.328 Z" fill="#000000" fill-rule="nonzero" fill-opacity="1" /><path clip-path="url(#clip070)" d="M44.9104 962.756 L62.3206 962.756 L62.3206 952.444 Q62.3206 947.256 60.1881 944.773 Q58.0238 942.259 53.5996 942.259 Q49.1436 942.259 47.0429 944.773 Q44.9104 947.256 44.9104 952.444 L44.9104 962.756 M25.3677 962.756 L39.6905 962.756 L39.6905 953.24 Q39.6905 948.529 37.94 946.237 Q36.1576 943.914 32.5291 943.914 Q28.9325 943.914 27.1501 946.237 Q25.3677 948.529 25.3677 953.24 L25.3677 962.756 M20.0842 969.186 L20.0842 952.762 Q20.0842 945.41 23.1397 941.431 Q26.1952 937.453 31.8289 937.453 Q36.1894 937.453 38.7675 939.49 Q41.3456 941.527 41.9822 945.473 Q43.0007 940.731 46.2472 938.121 Q49.4619 935.479 54.2998 935.479 Q60.6655 935.479 64.1348 939.808 Q67.6042 944.137 67.6042 952.126 L67.6042 969.186 L20.0842 969.186 Z" fill="#000000" fill-rule="nonzero" fill-opacity="1" /><path clip-path="url(#clip070)" d="M62.257 919.056 L81.1631 919.056 L81.1631 924.944 L31.9562 924.944 L31.9562 919.056 L37.3671 919.056 Q34.1842 917.21 32.6564 914.409 Q31.0968 911.576 31.0968 907.661 Q31.0968 901.168 36.2531 897.126 Q41.4093 893.052 49.812 893.052 Q58.2147 893.052 63.371 897.126 Q68.5272 901.168 68.5272 907.661 Q68.5272 911.576 66.9994 914.409 Q65.4398 917.21 62.257 919.056 M49.812 899.131 Q43.3508 899.131 39.6905 901.805 Q35.9984 904.446 35.9984 909.093 Q35.9984 913.74 39.6905 916.414 Q43.3508 919.056 49.812 919.056 Q56.2732 919.056 59.9653 916.414 Q63.6256 913.74 63.6256 909.093 Q63.6256 904.446 59.9653 901.805 Q56.2732 899.131 49.812 899.131 Z" fill="#000000" fill-rule="nonzero" fill-opacity="1" /><path clip-path="url(#clip070)" d="M48.3161 852.852 L51.1806 852.852 L51.1806 879.779 Q57.2281 879.397 60.4109 876.151 Q63.5619 872.873 63.5619 867.048 Q63.5619 863.674 62.7344 860.523 Q61.9069 857.34 60.2518 854.221 L65.7899 854.221 Q67.1267 857.372 67.827 860.682 Q68.5272 863.992 68.5272 867.398 Q68.5272 875.928 63.5619 880.925 Q58.5967 885.89 50.1303 885.89 Q41.3774 885.89 36.2531 881.18 Q31.0968 876.437 31.0968 868.417 Q31.0968 861.223 35.7438 857.054 Q40.3589 852.852 48.3161 852.852 M46.5973 858.709 Q41.7912 858.773 38.9266 861.414 Q36.0621 864.024 36.0621 868.353 Q36.0621 873.255 38.8312 876.215 Q41.6002 879.143 46.6292 879.588 L46.5973 858.709 Z" fill="#000000" fill-rule="nonzero" fill-opacity="1" /><path clip-path="url(#clip070)" d="M31.9562 843.463 L31.9562 834.901 L55.8276 824.78 L31.9562 814.626 L31.9562 806.128 L67.6042 806.128 L67.6042 812.016 L37.558 812.016 L60.761 821.851 L60.761 827.708 L37.558 837.575 L67.6042 837.575 L67.6042 843.463 L31.9562 843.463 Z" fill="#000000" fill-rule="nonzero" fill-opacity="1" /><path clip-path="url(#clip070)" d="M42.2368 788.177 Q44.8786 788.177 46.3745 786.14 Q47.8705 784.103 47.8705 780.315 L47.8705 772.422 L36.635 772.422 L36.635 780.315 Q36.635 784.103 38.0991 786.14 Q39.5632 788.177 42.2368 788.177 M67.6042 796.516 L51.9763 785.631 Q51.1488 789.323 48.9845 791.773 Q46.7883 794.224 42.2368 794.224 Q37.0806 794.224 34.5343 790.819 Q31.9562 787.381 31.9562 780.474 L31.9562 766.533 L67.6042 766.533 L67.6042 772.422 L52.5493 772.422 L52.5493 779.71 L67.6042 790.214 L67.6042 796.516 Z" fill="#000000" fill-rule="nonzero" fill-opacity="1" /><path clip-path="url(#clip070)" d="M70.9143 719.3 Q77.28 721.783 79.2216 724.138 Q81.1631 726.493 81.1631 730.44 L81.1631 735.119 L76.2615 735.119 L76.2615 731.681 Q76.2615 729.262 75.1157 727.925 Q73.9699 726.589 69.7048 724.965 L67.0312 723.915 L31.9562 738.333 L31.9562 732.127 L59.838 720.987 L31.9562 709.847 L31.9562 703.64 L70.9143 719.3 Z" fill="#000000" fill-rule="nonzero" fill-opacity="1" /><path clip-path="url(#clip070)" d="M62.9254 687.599 L62.9254 670.602 L36.635 670.602 L36.635 682.92 L41.091 682.92 Q54.2043 682.92 61.2066 686.676 L62.9254 687.599 M62.9254 696.097 Q61.6522 693.201 58.9468 691.927 Q52.231 688.808 38.7038 688.808 L31.9562 688.808 L31.9562 664.714 L62.9254 664.714 L62.9254 660.035 L76.6116 660.035 L76.6116 664.714 L67.6042 664.714 L67.6042 693.614 L76.6116 693.614 L76.6116 698.293 L62.9254 698.293 L62.9254 696.097 Z" fill="#000000" fill-rule="nonzero" fill-opacity="1" /><path clip-path="url(#clip070)" d="M51.1806 644.853 L62.9254 644.853 L62.9254 636.514 Q62.9254 632.504 61.4294 630.403 Q59.9017 628.302 57.0371 628.302 Q54.1725 628.302 52.6766 630.403 Q51.1806 632.504 51.1806 636.514 L51.1806 644.853 M36.635 644.853 L46.5018 644.853 L46.5018 637.15 Q46.5018 633.84 45.1969 631.74 Q43.8601 629.639 41.5048 629.639 Q39.1494 629.639 37.9081 631.74 Q36.635 633.84 36.635 637.15 L36.635 644.853 M31.9562 650.709 L31.9562 636.769 Q31.9562 630.498 34.2479 627.124 Q36.5395 623.751 40.7727 623.751 Q44.051 623.751 45.9926 625.469 Q47.9023 627.188 48.3797 630.562 Q49.1436 626.52 51.5626 624.292 Q53.9815 622.064 57.61 622.064 Q62.3843 622.064 64.9942 625.756 Q67.6042 629.416 67.6042 636.227 L67.6042 650.709 L31.9562 650.709 Z" fill="#000000" fill-rule="nonzero" fill-opacity="1" /><path clip-path="url(#clip070)" d="M36.0621 598.256 Q36.0621 602.967 39.7542 605.704 Q43.4145 608.441 49.812 608.441 Q56.2095 608.441 59.9017 605.736 Q63.5619 602.998 63.5619 598.256 Q63.5619 593.577 59.8698 590.84 Q56.1777 588.103 49.812 588.103 Q43.4781 588.103 39.786 590.84 Q36.0621 593.577 36.0621 598.256 M31.0968 598.256 Q31.0968 590.617 36.0621 586.257 Q41.0273 581.896 49.812 581.896 Q58.5649 581.896 63.5619 586.257 Q68.5272 590.617 68.5272 598.256 Q68.5272 605.927 63.5619 610.287 Q58.5649 614.616 49.812 614.616 Q41.0273 614.616 36.0621 610.287 Q31.0968 605.927 31.0968 598.256 Z" fill="#000000" fill-rule="nonzero" fill-opacity="1" /><path clip-path="url(#clip070)" d="M48.3161 541.697 L51.1806 541.697 L51.1806 568.624 Q57.2281 568.242 60.4109 564.995 Q63.5619 561.717 63.5619 555.892 Q63.5619 552.518 62.7344 549.367 Q61.9069 546.185 60.2518 543.065 L65.7899 543.065 Q67.1267 546.216 67.827 549.527 Q68.5272 552.837 68.5272 556.242 Q68.5272 564.772 63.5619 569.769 Q58.5967 574.735 50.1303 574.735 Q41.3774 574.735 36.2531 570.024 Q31.0968 565.282 31.0968 557.261 Q31.0968 550.068 35.7438 545.898 Q40.3589 541.697 48.3161 541.697 M46.5973 547.553 Q41.7912 547.617 38.9266 550.259 Q36.0621 552.869 36.0621 557.197 Q36.0621 562.099 38.8312 565.059 Q41.6002 567.987 46.6292 568.433 L46.5973 547.553 Z" fill="#000000" fill-rule="nonzero" fill-opacity="1" /><path clip-path="url(#clip070)" d="M31.9562 532.307 L31.9562 526.419 L46.5018 526.419 L46.5018 507.417 L31.9562 507.417 L31.9562 501.529 L67.6042 501.529 L67.6042 507.417 L51.1806 507.417 L51.1806 526.419 L67.6042 526.419 L67.6042 532.307 L31.9562 532.307 Z" fill="#000000" fill-rule="nonzero" fill-opacity="1" /><path clip-path="url(#clip070)" d="M31.9562 459.165 L67.6042 459.165 L67.6042 464.99 L38.9903 464.99 L67.6042 482.177 L67.6042 489.689 L31.9562 489.689 L31.9562 483.864 L60.5064 483.864 L31.9562 466.709 L31.9562 459.165 Z" fill="#000000" fill-rule="nonzero" fill-opacity="1" /><path clip-path="url(#clip070)" d="M42.2368 441.214 Q44.8786 441.214 46.3745 439.177 Q47.8705 437.14 47.8705 433.352 L47.8705 425.459 L36.635 425.459 L36.635 433.352 Q36.635 437.14 38.0991 439.177 Q39.5632 441.214 42.2368 441.214 M67.6042 449.553 L51.9763 438.668 Q51.1488 442.36 48.9845 444.811 Q46.7883 447.261 42.2368 447.261 Q37.0806 447.261 34.5343 443.856 Q31.9562 440.418 31.9562 433.512 L31.9562 419.571 L67.6042 419.571 L67.6042 425.459 L52.5493 425.459 L52.5493 432.748 L67.6042 443.251 L67.6042 449.553 Z" fill="#000000" fill-rule="nonzero" fill-opacity="1" /><path clip-path="url(#clip070)" d="M59.5197 406.394 L59.5197 399.678 L64.9942 399.678 L75.1793 404.898 L75.1793 409.004 L64.9942 406.394 L59.5197 406.394 Z" fill="#000000" fill-rule="nonzero" fill-opacity="1" /><path clip-path="url(#clip070)" d="M21.8347 360.656 L31.9562 360.656 L31.9562 348.593 L36.5077 348.593 L36.5077 360.656 L55.8594 360.656 Q60.2199 360.656 61.4613 359.478 Q62.7026 358.269 62.7026 354.609 L62.7026 348.593 L67.6042 348.593 L67.6042 354.609 Q67.6042 361.388 65.0897 363.966 Q62.5434 366.544 55.8594 366.544 L36.5077 366.544 L36.5077 370.841 L31.9562 370.841 L31.9562 366.544 L21.8347 366.544 L21.8347 360.656 Z" fill="#000000" fill-rule="nonzero" fill-opacity="1" /><path clip-path="url(#clip070)" d="M63.9757 338.503 L63.9757 325.008 L67.6042 325.008 L67.6042 344.042 L64.103 344.042 Q63.1163 342.959 61.3339 340.954 Q51.6262 330.005 48.6344 330.005 Q46.5337 330.005 45.2605 331.66 Q43.9556 333.315 43.9556 336.021 Q43.9556 337.676 44.5285 339.617 Q45.0696 341.559 46.1836 343.851 L42.2686 343.851 Q41.3774 341.4 40.9318 339.299 Q40.4862 337.167 40.4862 335.352 Q40.4862 330.737 42.5869 327.968 Q44.6876 325.199 48.1251 325.199 Q52.5493 325.199 61.5886 335.734 Q63.1163 337.517 63.9757 338.503 Z" fill="#000000" fill-rule="nonzero" fill-opacity="1" /><path clip-path="url(#clip070)" d="M334.824 11.0023 Q344.79 11.0023 351.109 15.2557 Q357.428 19.4686 357.428 26.6793 Q357.428 31.7024 354.552 35.1862 Q351.676 38.6294 346.369 39.9662 Q352.243 41.222 355.524 45.1919 Q358.846 49.1618 358.846 54.9951 Q358.846 64.3122 351.636 69.0517 Q344.465 73.7508 334.824 73.7508 Q329.882 73.7508 324.13 72.414 Q318.378 71.0772 316.595 69.9429 L316.595 61.517 Q322.793 65.1223 326.196 66.0135 Q329.639 66.8642 334.662 66.8642 Q342.278 66.8642 346.491 63.9476 Q350.704 61.0309 350.704 54.9951 Q350.704 49.6479 346.937 46.6502 Q343.21 43.612 335.31 43.612 L327.047 43.612 L327.047 36.8875 L335.635 36.8875 Q342.886 36.8875 346.086 34.4975 Q349.286 32.067 349.286 27.5299 Q349.286 22.8714 345.964 20.4004 Q342.683 17.8888 334.662 17.8888 Q329.234 17.8888 327.371 18.3749 Q325.507 18.861 317.203 21.9802 L317.203 13.9999 Q321.78 12.3796 326.56 11.6909 Q331.341 11.0023 334.824 11.0023 Z" fill="#000000" fill-rule="nonzero" fill-opacity="1" /><path clip-path="url(#clip070)" d="M392.752 49.7694 Q383.719 49.7694 380.235 51.8354 Q376.751 53.9013 376.751 58.8839 Q376.751 62.8538 379.344 65.2034 Q381.977 67.5124 386.473 67.5124 Q392.671 67.5124 396.398 63.1374 Q400.165 58.7219 400.165 51.4303 L400.165 49.7694 L392.752 49.7694 M407.619 46.6907 L407.619 72.576 L400.165 72.576 L400.165 65.6895 Q397.613 69.8214 393.805 71.8063 Q389.998 73.7508 384.488 73.7508 Q377.521 73.7508 373.389 69.8619 Q369.298 65.9325 369.298 59.3701 Q369.298 51.7138 374.402 47.825 Q379.546 43.9361 389.714 43.9361 L400.165 43.9361 L400.165 43.2069 Q400.165 38.0623 396.763 35.2672 Q393.4 32.4315 387.284 32.4315 Q383.395 32.4315 379.708 33.3632 Q376.022 34.295 372.619 36.1584 L372.619 29.2718 Q376.711 27.692 380.559 26.9223 Q384.407 26.1121 388.053 26.1121 Q397.897 26.1121 402.758 31.2163 Q407.619 36.3204 407.619 46.6907 Z" fill="#000000" fill-rule="nonzero" fill-opacity="1" /><path clip-path="url(#clip070)" d="M430.142 51.6733 L430.142 66.6212 L440.755 66.6212 Q445.86 66.6212 448.533 64.7172 Q451.207 62.7728 451.207 59.127 Q451.207 55.4812 448.533 53.5773 Q445.86 51.6733 440.755 51.6733 L430.142 51.6733 M430.142 33.1607 L430.142 45.7185 L439.945 45.7185 Q444.158 45.7185 446.832 44.0576 Q449.505 42.3563 449.505 39.3586 Q449.505 36.3609 446.832 34.7811 Q444.158 33.1607 439.945 33.1607 L430.142 33.1607 M422.688 27.2059 L440.431 27.2059 Q448.412 27.2059 452.706 30.1225 Q457 33.0392 457 38.4269 Q457 42.5993 454.812 45.0704 Q452.625 47.5009 448.331 48.1085 Q453.475 49.0808 456.311 52.1594 Q459.147 55.2381 459.147 59.8562 Q459.147 65.9325 454.448 69.2543 Q449.789 72.576 441.12 72.576 L422.688 72.576 L422.688 27.2059 Z" fill="#000000" fill-rule="nonzero" fill-opacity="1" /><path clip-path="url(#clip070)" d="M510.431 27.2059 L510.431 72.576 L503.018 72.576 L503.018 36.1584 L481.143 72.576 L471.583 72.576 L471.583 27.2059 L478.996 27.2059 L478.996 63.5425 L500.83 27.2059 L510.431 27.2059 Z" fill="#000000" fill-rule="nonzero" fill-opacity="1" /><path clip-path="url(#clip070)" d="M558.434 28.9478 L558.434 35.9153 Q555.275 34.1734 552.074 33.3227 Q548.915 32.4315 545.674 32.4315 Q538.423 32.4315 534.412 37.0496 Q530.402 41.6271 530.402 49.9314 Q530.402 58.2358 534.412 62.8538 Q538.423 67.4314 545.674 67.4314 Q548.915 67.4314 552.074 66.5807 Q555.275 65.6895 558.434 63.9476 L558.434 70.8341 Q555.315 72.2924 551.953 73.0216 Q548.631 73.7508 544.864 73.7508 Q534.615 73.7508 528.579 67.3098 Q522.543 60.8689 522.543 49.9314 Q522.543 38.832 528.62 32.472 Q534.736 26.1121 545.35 26.1121 Q548.793 26.1121 552.074 26.8413 Q555.356 27.5299 558.434 28.9478 Z" fill="#000000" fill-rule="nonzero" fill-opacity="1" /><path clip-path="url(#clip070)" d="M609.962 27.2059 L609.962 72.576 L602.549 72.576 L602.549 36.1584 L580.674 72.576 L571.114 72.576 L571.114 27.2059 L578.527 27.2059 L578.527 63.5425 L600.361 27.2059 L609.962 27.2059 Z" fill="#000000" fill-rule="nonzero" fill-opacity="1" /><path clip-path="url(#clip070)" d="M625.031 27.2059 L635.928 27.2059 L648.81 57.5877 L661.732 27.2059 L672.548 27.2059 L672.548 72.576 L665.054 72.576 L665.054 34.3355 L652.537 63.8666 L645.083 63.8666 L632.525 34.3355 L632.525 72.576 L625.031 72.576 L625.031 27.2059 Z" fill="#000000" fill-rule="nonzero" fill-opacity="1" /><path clip-path="url(#clip070)" d="M705.482 32.4315 Q699.487 32.4315 696.003 37.1306 Q692.519 41.7891 692.519 49.9314 Q692.519 58.0738 695.962 62.7728 Q699.446 67.4314 705.482 67.4314 Q711.437 67.4314 714.921 62.7323 Q718.404 58.0333 718.404 49.9314 Q718.404 41.8701 714.921 37.1711 Q711.437 32.4315 705.482 32.4315 M705.482 26.1121 Q715.204 26.1121 720.754 32.4315 Q726.304 38.7509 726.304 49.9314 Q726.304 61.0714 720.754 67.4314 Q715.204 73.7508 705.482 73.7508 Q695.719 73.7508 690.17 67.4314 Q684.66 61.0714 684.66 49.9314 Q684.66 38.7509 690.17 32.4315 Q695.719 26.1121 705.482 26.1121 Z" fill="#000000" fill-rule="nonzero" fill-opacity="1" /><path clip-path="url(#clip070)" d="M771.309 28.9478 L771.309 35.9153 Q768.15 34.1734 764.949 33.3227 Q761.79 32.4315 758.549 32.4315 Q751.298 32.4315 747.287 37.0496 Q743.277 41.6271 743.277 49.9314 Q743.277 58.2358 747.287 62.8538 Q751.298 67.4314 758.549 67.4314 Q761.79 67.4314 764.949 66.5807 Q768.15 65.6895 771.309 63.9476 L771.309 70.8341 Q768.19 72.2924 764.828 73.0216 Q761.506 73.7508 757.739 73.7508 Q747.49 73.7508 741.454 67.3098 Q735.418 60.8689 735.418 49.9314 Q735.418 38.832 741.495 32.472 Q747.611 26.1121 758.225 26.1121 Q761.668 26.1121 764.949 26.8413 Q768.231 27.5299 771.309 28.9478 Z" fill="#000000" fill-rule="nonzero" fill-opacity="1" /><path clip-path="url(#clip070)" d="M778.884 27.2059 L822.351 27.2059 L822.351 33.1607 L804.284 33.1607 L804.284 72.576 L796.951 72.576 L796.951 33.1607 L778.884 33.1607 L778.884 27.2059 Z" fill="#000000" fill-rule="nonzero" fill-opacity="1" /><path clip-path="url(#clip070)" d="M860.834 59.127 Q860.834 55.4812 858.161 53.5773 Q855.528 51.6733 850.423 51.6733 L839.81 51.6733 L839.81 66.6212 L850.423 66.6212 Q855.528 66.6212 858.161 64.7172 Q860.834 62.7728 860.834 59.127 M832.316 27.2059 L839.81 27.2059 L839.81 45.7185 L850.747 45.7185 Q859.416 45.7185 864.075 49.0402 Q868.774 52.3215 868.774 59.127 Q868.774 65.9325 864.075 69.2543 Q859.416 72.576 850.747 72.576 L832.316 72.576 L832.316 27.2059 Z" fill="#000000" fill-rule="nonzero" fill-opacity="1" /><path clip-path="url(#clip070)" d="M915.035 51.6733 L915.035 66.6212 L925.649 66.6212 Q930.753 66.6212 933.426 64.7172 Q936.1 62.7728 936.1 59.127 Q936.1 55.4812 933.426 53.5773 Q930.753 51.6733 925.649 51.6733 L915.035 51.6733 M915.035 33.1607 L915.035 45.7185 L924.839 45.7185 Q929.051 45.7185 931.725 44.0576 Q934.399 42.3563 934.399 39.3586 Q934.399 36.3609 931.725 34.7811 Q929.051 33.1607 924.839 33.1607 L915.035 33.1607 M907.582 27.2059 L925.325 27.2059 Q933.305 27.2059 937.599 30.1225 Q941.893 33.0392 941.893 38.4269 Q941.893 42.5993 939.705 45.0704 Q937.518 47.5009 933.224 48.1085 Q938.369 49.0808 941.204 52.1594 Q944.04 55.2381 944.04 59.8562 Q944.04 65.9325 939.341 69.2543 Q934.682 72.576 926.013 72.576 L907.582 72.576 L907.582 27.2059 Z" fill="#000000" fill-rule="nonzero" fill-opacity="1" /><path clip-path="url(#clip070)" d="M963.97 65.7705 L963.97 89.8329 L956.476 89.8329 L956.476 27.2059 L963.97 27.2059 L963.97 34.0924 Q966.32 30.0415 969.885 28.0971 Q973.49 26.1121 978.473 26.1121 Q986.736 26.1121 991.881 32.6746 Q997.066 39.2371 997.066 49.9314 Q997.066 60.6258 991.881 67.1883 Q986.736 73.7508 978.473 73.7508 Q973.49 73.7508 969.885 71.8063 Q966.32 69.8214 963.97 65.7705 M989.329 49.9314 Q989.329 41.7081 985.926 37.0496 Q982.564 32.3505 976.65 32.3505 Q970.735 32.3505 967.333 37.0496 Q963.97 41.7081 963.97 49.9314 Q963.97 58.1548 967.333 62.8538 Q970.735 67.5124 976.65 67.5124 Q982.564 67.5124 985.926 62.8538 Q989.329 58.1548 989.329 49.9314 Z" fill="#000000" fill-rule="nonzero" fill-opacity="1" /><path clip-path="url(#clip070)" d="M1048.23 48.0275 L1048.23 51.6733 L1013.96 51.6733 Q1014.44 59.3701 1018.58 63.421 Q1022.75 67.4314 1030.16 67.4314 Q1034.46 67.4314 1038.47 66.3781 Q1042.52 65.3249 1046.49 63.2184 L1046.49 70.267 Q1042.48 71.9684 1038.26 72.8596 Q1034.05 73.7508 1029.72 73.7508 Q1018.86 73.7508 1012.5 67.4314 Q1006.18 61.1119 1006.18 50.3365 Q1006.18 39.1965 1012.18 32.6746 Q1018.21 26.1121 1028.42 26.1121 Q1037.58 26.1121 1042.88 32.0264 Q1048.23 37.9003 1048.23 48.0275 M1040.78 45.84 Q1040.69 39.7232 1037.33 36.0774 Q1034.01 32.4315 1028.5 32.4315 Q1022.26 32.4315 1018.5 35.9558 Q1014.77 39.4801 1014.2 45.8805 L1040.78 45.84 Z" fill="#000000" fill-rule="nonzero" fill-opacity="1" /><path clip-path="url(#clip070)" d="M1060.18 27.2059 L1071.08 27.2059 L1083.96 57.5877 L1096.88 27.2059 L1107.7 27.2059 L1107.7 72.576 L1100.2 72.576 L1100.2 34.3355 L1087.68 63.8666 L1080.23 63.8666 L1067.67 34.3355 L1067.67 72.576 L1060.18 72.576 L1060.18 27.2059 Z" fill="#000000" fill-rule="nonzero" fill-opacity="1" /><path clip-path="url(#clip070)" d="M1161.86 48.0275 L1161.86 51.6733 L1127.59 51.6733 Q1128.07 59.3701 1132.2 63.421 Q1136.38 67.4314 1143.79 67.4314 Q1148.08 67.4314 1152.09 66.3781 Q1156.15 65.3249 1160.12 63.2184 L1160.12 70.267 Q1156.1 71.9684 1151.89 72.8596 Q1147.68 73.7508 1143.34 73.7508 Q1132.49 73.7508 1126.13 67.4314 Q1119.81 61.1119 1119.81 50.3365 Q1119.81 39.1965 1125.8 32.6746 Q1131.84 26.1121 1142.05 26.1121 Q1151.2 26.1121 1156.51 32.0264 Q1161.86 37.9003 1161.86 48.0275 M1154.4 45.84 Q1154.32 39.7232 1150.96 36.0774 Q1147.64 32.4315 1142.13 32.4315 Q1135.89 32.4315 1132.12 35.9558 Q1128.4 39.4801 1127.83 45.8805 L1154.4 45.84 Z" fill="#000000" fill-rule="nonzero" fill-opacity="1" /><path clip-path="url(#clip070)" d="M1173.81 27.2059 L1181.3 27.2059 L1181.3 45.7185 L1205.49 45.7185 L1205.49 27.2059 L1212.98 27.2059 L1212.98 72.576 L1205.49 72.576 L1205.49 51.6733 L1181.3 51.6733 L1181.3 72.576 L1173.81 72.576 L1173.81 27.2059 Z" fill="#000000" fill-rule="nonzero" fill-opacity="1" /><path clip-path="url(#clip070)" d="M1266.9 27.2059 L1266.9 72.576 L1259.48 72.576 L1259.48 36.1584 L1237.61 72.576 L1228.05 72.576 L1228.05 27.2059 L1235.46 27.2059 L1235.46 63.5425 L1257.3 27.2059 L1266.9 27.2059 Z" fill="#000000" fill-rule="nonzero" fill-opacity="1" /><path clip-path="url(#clip070)" d="M1327.5 76.7889 Q1324.34 84.8907 1321.34 87.3618 Q1318.34 89.8329 1313.32 89.8329 L1307.37 89.8329 L1307.37 83.5945 L1311.74 83.5945 Q1314.82 83.5945 1316.52 82.1361 Q1318.22 80.6778 1320.29 75.2496 L1321.62 71.8468 L1303.27 27.2059 L1311.17 27.2059 L1325.35 62.6918 L1339.53 27.2059 L1347.43 27.2059 L1327.5 76.7889 Z" fill="#000000" fill-rule="nonzero" fill-opacity="1" /><path clip-path="url(#clip070)" d="M1367.85 66.6212 L1389.48 66.6212 L1389.48 33.1607 L1373.8 33.1607 L1373.8 38.832 Q1373.8 55.5217 1369.02 64.4337 L1367.85 66.6212 M1357.03 66.6212 Q1360.72 65.0008 1362.34 61.5575 Q1366.31 53.0101 1366.31 35.7938 L1366.31 27.2059 L1396.97 27.2059 L1396.97 66.6212 L1402.93 66.6212 L1402.93 84.0401 L1396.97 84.0401 L1396.97 72.576 L1360.19 72.576 L1360.19 84.0401 L1354.23 84.0401 L1354.23 66.6212 L1357.03 66.6212 Z" fill="#000000" fill-rule="nonzero" fill-opacity="1" /><path clip-path="url(#clip070)" d="M1422.25 51.6733 L1422.25 66.6212 L1432.86 66.6212 Q1437.97 66.6212 1440.64 64.7172 Q1443.31 62.7728 1443.31 59.127 Q1443.31 55.4812 1440.64 53.5773 Q1437.97 51.6733 1432.86 51.6733 L1422.25 51.6733 M1422.25 33.1607 L1422.25 45.7185 L1432.05 45.7185 Q1436.27 45.7185 1438.94 44.0576 Q1441.61 42.3563 1441.61 39.3586 Q1441.61 36.3609 1438.94 34.7811 Q1436.27 33.1607 1432.05 33.1607 L1422.25 33.1607 M1414.8 27.2059 L1432.54 27.2059 Q1440.52 27.2059 1444.81 30.1225 Q1449.11 33.0392 1449.11 38.4269 Q1449.11 42.5993 1446.92 45.0704 Q1444.73 47.5009 1440.44 48.1085 Q1445.58 49.0808 1448.42 52.1594 Q1451.25 55.2381 1451.25 59.8562 Q1451.25 65.9325 1446.55 69.2543 Q1441.9 72.576 1433.23 72.576 L1414.8 72.576 L1414.8 27.2059 Z" fill="#000000" fill-rule="nonzero" fill-opacity="1" /><path clip-path="url(#clip070)" d="M1481.55 32.4315 Q1475.56 32.4315 1472.08 37.1306 Q1468.59 41.7891 1468.59 49.9314 Q1468.59 58.0738 1472.03 62.7728 Q1475.52 67.4314 1481.55 67.4314 Q1487.51 67.4314 1490.99 62.7323 Q1494.48 58.0333 1494.48 49.9314 Q1494.48 41.8701 1490.99 37.1711 Q1487.51 32.4315 1481.55 32.4315 M1481.55 26.1121 Q1491.28 26.1121 1496.83 32.4315 Q1502.38 38.7509 1502.38 49.9314 Q1502.38 61.0714 1496.83 67.4314 Q1491.28 73.7508 1481.55 73.7508 Q1471.79 73.7508 1466.24 67.4314 Q1460.73 61.0714 1460.73 49.9314 Q1460.73 38.7509 1466.24 32.4315 Q1471.79 26.1121 1481.55 26.1121 Z" fill="#000000" fill-rule="nonzero" fill-opacity="1" /><path clip-path="url(#clip070)" d="M1553.54 48.0275 L1553.54 51.6733 L1519.27 51.6733 Q1519.75 59.3701 1523.89 63.421 Q1528.06 67.4314 1535.47 67.4314 Q1539.77 67.4314 1543.78 66.3781 Q1547.83 65.3249 1551.8 63.2184 L1551.8 70.267 Q1547.79 71.9684 1543.57 72.8596 Q1539.36 73.7508 1535.03 73.7508 Q1524.17 73.7508 1517.81 67.4314 Q1511.49 61.1119 1511.49 50.3365 Q1511.49 39.1965 1517.49 32.6746 Q1523.52 26.1121 1533.73 26.1121 Q1542.88 26.1121 1548.19 32.0264 Q1553.54 37.9003 1553.54 48.0275 M1546.09 45.84 Q1546 39.7232 1542.64 36.0774 Q1539.32 32.4315 1533.81 32.4315 Q1527.57 32.4315 1523.81 35.9558 Q1520.08 39.4801 1519.51 45.8805 L1546.09 45.84 Z" fill="#000000" fill-rule="nonzero" fill-opacity="1" /><path clip-path="url(#clip070)" d="M1565.49 27.2059 L1572.98 27.2059 L1572.98 45.7185 L1597.17 45.7185 L1597.17 27.2059 L1604.66 27.2059 L1604.66 72.576 L1597.17 72.576 L1597.17 51.6733 L1572.98 51.6733 L1572.98 72.576 L1565.49 72.576 L1565.49 27.2059 Z" fill="#000000" fill-rule="nonzero" fill-opacity="1" /><path clip-path="url(#clip070)" d="M1658.58 27.2059 L1658.58 72.576 L1651.17 72.576 L1651.17 36.1584 L1629.29 72.576 L1619.73 72.576 L1619.73 27.2059 L1627.14 27.2059 L1627.14 63.5425 L1648.98 27.2059 L1658.58 27.2059 Z" fill="#000000" fill-rule="nonzero" fill-opacity="1" /><path clip-path="url(#clip070)" d="M1681.43 40.2903 Q1681.43 43.6525 1684.02 45.5565 Q1686.61 47.4604 1691.43 47.4604 L1701.48 47.4604 L1701.48 33.1607 L1691.43 33.1607 Q1686.61 33.1607 1684.02 35.0241 Q1681.43 36.8875 1681.43 40.2903 M1670.81 72.576 L1684.67 52.6861 Q1679.97 51.6328 1676.85 48.8782 Q1673.73 46.0831 1673.73 40.2903 Q1673.73 33.7278 1678.06 30.4871 Q1682.44 27.2059 1691.23 27.2059 L1708.97 27.2059 L1708.97 72.576 L1701.48 72.576 L1701.48 53.4152 L1692.2 53.4152 L1678.83 72.576 L1670.81 72.576 Z" fill="#000000" fill-rule="nonzero" fill-opacity="1" /><path clip-path="url(#clip070)" d="M1767.79 32.4315 Q1761.8 32.4315 1758.31 37.1306 Q1754.83 41.7891 1754.83 49.9314 Q1754.83 58.0738 1758.27 62.7728 Q1761.76 67.4314 1767.79 67.4314 Q1773.75 67.4314 1777.23 62.7323 Q1780.71 58.0333 1780.71 49.9314 Q1780.71 41.8701 1777.23 37.1711 Q1773.75 32.4315 1767.79 32.4315 M1767.79 26.1121 Q1777.51 26.1121 1783.06 32.4315 Q1788.61 38.7509 1788.61 49.9314 Q1788.61 61.0714 1783.06 67.4314 Q1777.51 73.7508 1767.79 73.7508 Q1758.03 73.7508 1752.48 67.4314 Q1746.97 61.0714 1746.97 49.9314 Q1746.97 38.7509 1752.48 32.4315 Q1758.03 26.1121 1767.79 26.1121 Z" fill="#000000" fill-rule="nonzero" fill-opacity="1" /><path clip-path="url(#clip070)" d="M1795.58 27.2059 L1839.05 27.2059 L1839.05 33.1607 L1820.98 33.1607 L1820.98 72.576 L1813.65 72.576 L1813.65 33.1607 L1795.58 33.1607 L1795.58 27.2059 Z" fill="#000000" fill-rule="nonzero" fill-opacity="1" /><path clip-path="url(#clip070)" d="M1902.12 51.4708 L1900.34 42.1132 Q1898.51 32.5126 1891.3 32.5126 Q1885.88 32.5126 1883.4 36.9686 Q1880.28 42.5588 1880.28 49.9314 Q1880.28 58.8434 1883.32 63.0969 Q1886.4 67.4314 1891.3 67.4314 Q1896.73 67.4314 1899.65 58.8029 L1902.12 51.4708 M1906.29 39.075 L1910.3 27.2059 L1916.95 27.2059 L1908.64 51.7949 L1910.26 60.6663 Q1910.63 62.6513 1912.04 64.3122 Q1913.7 66.2566 1915 66.2566 L1918.57 66.2566 L1918.57 72.576 L1914.11 72.576 Q1910.3 72.576 1906.9 69.1732 Q1905.24 67.4719 1904.55 63.9071 Q1902.69 68.4036 1898.88 71.9279 Q1897.1 73.5887 1891.3 73.5887 Q1881.78 73.5887 1877.17 67.4314 Q1872.43 61.0714 1872.43 49.9314 Q1872.43 38.0218 1877.57 32.4315 Q1883.28 26.1931 1891.3 26.1931 Q1903.9 26.1931 1906.29 39.075 Z" fill="#000000" fill-rule="nonzero" fill-opacity="1" /><circle clip-path="url(#clip072)" cx="224.019" cy="150.518" r="28.8" fill="#ff0000" fill-rule="evenodd" fill-opacity="1" stroke="#000000" stroke-opacity="1" stroke-width="2.688"/>
<circle clip-path="url(#clip072)" cx="621.157" cy="886.191" r="28.8" fill="#ff0000" fill-rule="evenodd" fill-opacity="1" stroke="#000000" stroke-opacity="1" stroke-width="2.688"/>
<circle clip-path="url(#clip072)" cx="1018.3" cy="1033.33" r="28.8" fill="#ff0000" fill-rule="evenodd" fill-opacity="1" stroke="#000000" stroke-opacity="1" stroke-width="2.688"/>
<circle clip-path="url(#clip072)" cx="1614" cy="1116.09" r="28.8" fill="#ff0000" fill-rule="evenodd" fill-opacity="1" stroke="#000000" stroke-opacity="1" stroke-width="2.688"/>
<circle clip-path="url(#clip072)" cx="2011.14" cy="1143.68" r="28.8" fill="#ff0000" fill-rule="evenodd" fill-opacity="1" stroke="#000000" stroke-opacity="1" stroke-width="2.688"/>
<path clip-path="url(#clip070)" d="M1311.9 259.495 L2001.61 259.495 L2001.61 155.815 L1311.9 155.815  Z" fill="#ffffff" fill-rule="evenodd" fill-opacity="1"/>
<polyline clip-path="url(#clip070)" style="stroke:#000000; stroke-linecap:round; stroke-linejoin:round; stroke-width:4; stroke-opacity:1; fill:none" points="1311.9,259.495 2001.61,259.495 2001.61,155.815 1311.9,155.815 1311.9,259.495 "/>
<circle clip-path="url(#clip070)" cx="1396.09" cy="207.655" r="21.6847" fill="#ff0000" fill-rule="evenodd" fill-opacity="1" stroke="#000000" stroke-opacity="1" stroke-width="2.02391"/>
<path clip-path="url(#clip070)" d="M1499.38 224.935 L1499.38 210.768 L1489.73 210.768 Q1485.43 210.768 1482.86 208.083 Q1480.29 205.375 1480.29 199.865 L1480.29 190.375 L1484.94 190.375 L1484.94 199.495 Q1484.94 203.175 1486.38 205.004 Q1487.81 206.833 1490.68 206.833 L1499.38 206.833 L1499.38 190.375 L1504.08 190.375 L1504.08 224.935 L1499.38 224.935 Z" fill="#000000" fill-rule="nonzero" fill-opacity="1" /><path clip-path="url(#clip070)" d="M1535.24 199.009 L1535.24 224.935 L1531 224.935 L1531 204.125 L1518.5 224.935 L1513.04 224.935 L1513.04 199.009 L1517.28 199.009 L1517.28 219.773 L1529.75 199.009 L1535.24 199.009 Z" fill="#000000" fill-rule="nonzero" fill-opacity="1" /><path clip-path="url(#clip070)" d="M1562.67 200.004 L1562.67 203.986 Q1560.87 202.99 1559.04 202.504 Q1557.23 201.995 1555.38 201.995 Q1551.24 201.995 1548.94 204.634 Q1546.65 207.25 1546.65 211.995 Q1546.65 216.74 1548.94 219.379 Q1551.24 221.995 1555.38 221.995 Q1557.23 221.995 1559.04 221.509 Q1560.87 220.999 1562.67 220.004 L1562.67 223.939 Q1560.89 224.773 1558.97 225.189 Q1557.07 225.606 1554.92 225.606 Q1549.06 225.606 1545.61 221.925 Q1542.16 218.245 1542.16 211.995 Q1542.16 205.652 1545.63 202.018 Q1549.13 198.384 1555.19 198.384 Q1557.16 198.384 1559.04 198.801 Q1560.91 199.194 1562.67 200.004 Z" fill="#000000" fill-rule="nonzero" fill-opacity="1" /><path clip-path="url(#clip070)" d="M1567.37 224.935 L1567.37 221.393 Q1571.58 220.745 1572.88 217.828 Q1574.45 213.731 1574.45 203.245 L1574.45 199.009 L1591.98 199.009 L1591.98 224.935 L1587.72 224.935 L1587.72 202.412 L1578.71 202.412 L1578.71 204.981 Q1578.71 214.981 1576.68 219.472 Q1574.5 224.263 1567.37 224.935 Z" fill="#000000" fill-rule="nonzero" fill-opacity="1" /><path clip-path="url(#clip070)" d="M1622.56 210.907 L1622.56 212.99 L1602.97 212.99 Q1603.25 217.388 1605.61 219.703 Q1608 221.995 1612.23 221.995 Q1614.68 221.995 1616.98 221.393 Q1619.29 220.791 1621.56 219.587 L1621.56 223.615 Q1619.27 224.587 1616.86 225.097 Q1614.45 225.606 1611.98 225.606 Q1605.77 225.606 1602.14 221.995 Q1598.53 218.384 1598.53 212.226 Q1598.53 205.861 1601.95 202.134 Q1605.4 198.384 1611.24 198.384 Q1616.47 198.384 1619.5 201.763 Q1622.56 205.12 1622.56 210.907 M1618.3 209.657 Q1618.25 206.162 1616.33 204.078 Q1614.43 201.995 1611.28 201.995 Q1607.72 201.995 1605.56 204.009 Q1603.43 206.023 1603.11 209.68 L1618.3 209.657 Z" fill="#000000" fill-rule="nonzero" fill-opacity="1" /><path clip-path="url(#clip070)" d="M1629.38 199.009 L1633.67 199.009 L1633.67 209.587 L1647.49 209.587 L1647.49 199.009 L1651.77 199.009 L1651.77 224.935 L1647.49 224.935 L1647.49 212.99 L1633.67 212.99 L1633.67 224.935 L1629.38 224.935 L1629.38 199.009 Z" fill="#000000" fill-rule="nonzero" fill-opacity="1" /><path clip-path="url(#clip070)" d="M1660.38 199.009 L1664.66 199.009 L1664.66 209.587 L1678.48 209.587 L1678.48 199.009 L1682.76 199.009 L1682.76 224.935 L1678.48 224.935 L1678.48 212.99 L1664.66 212.99 L1664.66 224.935 L1660.38 224.935 L1660.38 199.009 Z" fill="#000000" fill-rule="nonzero" fill-opacity="1" /><path clip-path="url(#clip070)" d="M1701.58 201.995 Q1698.16 201.995 1696.17 204.68 Q1694.18 207.342 1694.18 211.995 Q1694.18 216.648 1696.14 219.333 Q1698.13 221.995 1701.58 221.995 Q1704.99 221.995 1706.98 219.31 Q1708.97 216.624 1708.97 211.995 Q1708.97 207.388 1706.98 204.703 Q1704.99 201.995 1701.58 201.995 M1701.58 198.384 Q1707.14 198.384 1710.31 201.995 Q1713.48 205.606 1713.48 211.995 Q1713.48 218.361 1710.31 221.995 Q1707.14 225.606 1701.58 225.606 Q1696 225.606 1692.83 221.995 Q1689.68 218.361 1689.68 211.995 Q1689.68 205.606 1692.83 201.995 Q1696 198.384 1701.58 198.384 Z" fill="#000000" fill-rule="nonzero" fill-opacity="1" /><path clip-path="url(#clip070)" d="M1742.72 210.907 L1742.72 212.99 L1723.13 212.99 Q1723.41 217.388 1725.77 219.703 Q1728.16 221.995 1732.39 221.995 Q1734.85 221.995 1737.14 221.393 Q1739.45 220.791 1741.72 219.587 L1741.72 223.615 Q1739.43 224.587 1737.02 225.097 Q1734.61 225.606 1732.14 225.606 Q1725.93 225.606 1722.3 221.995 Q1718.69 218.384 1718.69 212.226 Q1718.69 205.861 1722.11 202.134 Q1725.56 198.384 1731.4 198.384 Q1736.63 198.384 1739.66 201.763 Q1742.72 205.12 1742.72 210.907 M1738.46 209.657 Q1738.41 206.162 1736.49 204.078 Q1734.59 201.995 1731.44 201.995 Q1727.88 201.995 1725.73 204.009 Q1723.6 206.023 1723.27 209.68 L1738.46 209.657 Z" fill="#000000" fill-rule="nonzero" fill-opacity="1" /><path clip-path="url(#clip070)" d="M1768.9 221.046 L1768.9 234.796 L1764.61 234.796 L1764.61 199.009 L1768.9 199.009 L1768.9 202.944 Q1770.24 200.629 1772.28 199.518 Q1774.34 198.384 1777.18 198.384 Q1781.91 198.384 1784.85 202.134 Q1787.81 205.884 1787.81 211.995 Q1787.81 218.106 1784.85 221.856 Q1781.91 225.606 1777.18 225.606 Q1774.34 225.606 1772.28 224.495 Q1770.24 223.361 1768.9 221.046 M1783.39 211.995 Q1783.39 207.296 1781.44 204.634 Q1779.52 201.949 1776.14 201.949 Q1772.76 201.949 1770.82 204.634 Q1768.9 207.296 1768.9 211.995 Q1768.9 216.694 1770.82 219.379 Q1772.76 222.041 1776.14 222.041 Q1779.52 222.041 1781.44 219.379 Q1783.39 216.694 1783.39 211.995 Z" fill="#000000" fill-rule="nonzero" fill-opacity="1" /><path clip-path="url(#clip070)" d="M1817.04 210.907 L1817.04 212.99 L1797.46 212.99 Q1797.74 217.388 1800.1 219.703 Q1802.48 221.995 1806.72 221.995 Q1809.17 221.995 1811.47 221.393 Q1813.78 220.791 1816.05 219.587 L1816.05 223.615 Q1813.76 224.587 1811.35 225.097 Q1808.94 225.606 1806.47 225.606 Q1800.26 225.606 1796.63 221.995 Q1793.02 218.384 1793.02 212.226 Q1793.02 205.861 1796.44 202.134 Q1799.89 198.384 1805.73 198.384 Q1810.96 198.384 1813.99 201.763 Q1817.04 205.12 1817.04 210.907 M1812.79 209.657 Q1812.74 206.162 1810.82 204.078 Q1808.92 201.995 1805.77 201.995 Q1802.21 201.995 1800.05 204.009 Q1797.92 206.023 1797.6 209.68 L1812.79 209.657 Z" fill="#000000" fill-rule="nonzero" fill-opacity="1" /><path clip-path="url(#clip070)" d="M1843.39 221.532 L1854.36 221.532 L1854.36 199.009 L1858.64 199.009 L1858.64 224.935 L1823.87 224.935 L1823.87 199.009 L1828.16 199.009 L1828.16 221.532 L1839.1 221.532 L1839.1 199.009 L1843.39 199.009 L1843.39 221.532 Z" fill="#000000" fill-rule="nonzero" fill-opacity="1" /><path clip-path="url(#clip070)" d="M1889.59 210.907 L1889.59 212.99 L1870.01 212.99 Q1870.29 217.388 1872.65 219.703 Q1875.03 221.995 1879.27 221.995 Q1881.72 221.995 1884.01 221.393 Q1886.33 220.791 1888.6 219.587 L1888.6 223.615 Q1886.3 224.587 1883.9 225.097 Q1881.49 225.606 1879.01 225.606 Q1872.81 225.606 1869.17 221.995 Q1865.56 218.384 1865.56 212.226 Q1865.56 205.861 1868.99 202.134 Q1872.44 198.384 1878.27 198.384 Q1883.5 198.384 1886.54 201.763 Q1889.59 205.12 1889.59 210.907 M1885.33 209.657 Q1885.29 206.162 1883.36 204.078 Q1881.47 201.995 1878.32 201.995 Q1874.75 201.995 1872.6 204.009 Q1870.47 206.023 1870.15 209.68 L1885.33 209.657 Z" fill="#000000" fill-rule="nonzero" fill-opacity="1" /><path clip-path="url(#clip070)" d="M1896.42 199.009 L1900.7 199.009 L1900.7 209.587 L1914.52 209.587 L1914.52 199.009 L1918.8 199.009 L1918.8 224.935 L1914.52 224.935 L1914.52 212.99 L1900.7 212.99 L1900.7 224.935 L1896.42 224.935 L1896.42 199.009 Z" fill="#000000" fill-rule="nonzero" fill-opacity="1" /><path clip-path="url(#clip070)" d="M1949.61 199.009 L1949.61 224.935 L1945.38 224.935 L1945.38 204.125 L1932.88 224.935 L1927.41 224.935 L1927.41 199.009 L1931.65 199.009 L1931.65 219.773 L1944.13 199.009 L1949.61 199.009 Z" fill="#000000" fill-rule="nonzero" fill-opacity="1" /><path clip-path="url(#clip070)" d="M1980.56 210.907 L1980.56 212.99 L1960.98 212.99 Q1961.26 217.388 1963.62 219.703 Q1966 221.995 1970.24 221.995 Q1972.69 221.995 1974.98 221.393 Q1977.3 220.791 1979.57 219.587 L1979.57 223.615 Q1977.28 224.587 1974.87 225.097 Q1972.46 225.606 1969.98 225.606 Q1963.78 225.606 1960.15 221.995 Q1956.53 218.384 1956.53 212.226 Q1956.53 205.861 1959.96 202.134 Q1963.41 198.384 1969.24 198.384 Q1974.47 198.384 1977.51 201.763 Q1980.56 205.12 1980.56 210.907 M1976.3 209.657 Q1976.26 206.162 1974.34 204.078 Q1972.44 201.995 1969.29 201.995 Q1965.72 201.995 1963.57 204.009 Q1961.44 206.023 1961.12 209.68 L1976.3 209.657 Z" fill="#000000" fill-rule="nonzero" fill-opacity="1" /></svg>
